<svg xmlns="http://www.w3.org/2000/svg" clip-rule="evenodd" fill-rule="evenodd" stroke-linejoin="round" stroke-miterlimit="2" width="1280px" height="1526px" clip-path="url(#ClipPath-1)"><defs><clipPath id="ClipPath-1"><path d="M1280 1356.5h-1280v-1286.5c0 0 66.6-80.3 214.7 0c79.6 43.1 178.7-47 273.8 36.1c68.7 60.1 133.8 70.7 226.4 37.9c56.3-19.9 151.9-9.2 194.2 32.6c41.2 40.7 113.4 47.4 169.5 41.1c153.6-17.4 201.4 139.2 201.4 139.2v999.6Z"/></clipPath></defs><path d="M1280 1526h-1280v-1456c0 0 103.5-70 207 0c79.5 43.1 202.5-26 283 44c72.5 62.6 140.3 66.8 233 34c56.3-19.9 149.7-5.8 192 36c41.1 40.7 112.8 42.3 169 36c153.5-17.3 196 148 196 148v1158Z" fill="#ff6d88"/><path d="M0 126.3c48.4-2.2 90.8 17.4 130.6 53c15 13.5 32.7 20.3 45.2 38.4c19.6 28.3 31.1 68 44.9 101.4c37.2 90 93.5 253.1 164.5 295.8c130.9 78.9 929.5-176 928.5-180.5c-3.4-15.7-58.9-292-72.6-295.6c-80.9-21.1-324.3 28.5-382.6-60.4c-53.1-81-351.9 71-376.5-29.5c-11.4-46.5-192.8 4.8-209.3-38.2c-11.5-29.8-22.1-70.2-41.2-92.8c-45.7-53.9-122.7-81.5-181.6-92.9" fill="#fff" fill-opacity=".19"/><path d="M484.4 221.7c-43.1-18.8-64.8-117.2-108.3-116.9c-19.1 .1-36.8 9.7-53.6 19.9c-14.6 8.9-31 18.9-40.8 35.5c-41.4 70.2 9.8 207.5 55.9 255.4c17.1 17.8 38 28.9 60.6 25.4c49.2-7.6 283.4-133.6 86.2-219.3Z" fill="#de4ad2" fill-opacity=".17"/><path d="M827.2 466.4c166.6 24.5 147.7-170.8 123.6-217.6c-45.5-88.5-129.1-54.7-147.9-41.5c-16.4 11.5-34.6 24.4-47.4 41.5c-53.8 72.1-24.6 180 14.4 210.5c14.4 11.3 32.8 3.5 57.3 7.1Z" fill="#ffe4fd" fill-opacity=".1"/><path d="M942.4 202.7c-28.3 44.2-111 38.1-124.7 88.7c-6 22.4-4.3 46.1-1.8 69c2.1 19.8 4.6 42.1 14.2 58.8c40.8 70.8 162.9 55.1 214.6 16.7c19.1-14.2 34.4-34.9 39-62.4c9.9-59.9-12.1-373.1-141.3-170.8Z" fill="#de4ad2" fill-opacity=".15"/><path d="M140.8 267.4c6.2 55.7-54.9 124.6-34.8 171.9c8.8 20.9 23.8 35.8 38.9 49.6c13.1 11.9 27.8 25.2 44.3 28.3c69.7 13.2 145.5-105.7 159-178.1c5-26.8 3.5-54.7-9.4-77.9c-28-50.3-226.3-248.7-198 6.2Z" fill="#ff79d4" fill-opacity=".44"/><path d="M855.3 645.2c-19.3-104.9-4.7-210.7 17.8-225.6c95.7-62.9 173.6 58.1 195.3 92.1c220.2 344.3-124.9 613.8-213.1 133.5Z" fill="#ff8879" fill-opacity=".81"/></svg>