<?xml version="1.0" encoding="UTF-8" standalone="no"?><!DOCTYPE svg PUBLIC "-//W3C//DTD SVG 1.1//EN" "http://www.w3.org/Graphics/SVG/1.1/DTD/svg11.dtd"><svg width="100%" height="100%" viewBox="0 0 1280 1526" version="1.1" xmlns="http://www.w3.org/2000/svg" xmlns:xlink="http://www.w3.org/1999/xlink" xml:space="preserve" xmlns:serif="http://www.serif.com/" style="fill-rule:evenodd;clip-rule:evenodd;stroke-linejoin:round;stroke-miterlimit:2;"><g><path d="M1280,1356.55l-1280,0l0,-1286.58c0,0 79.718,73.241 214.739,0c79.521,-43.135 160.951,120.527 271.572,74.061c84.212,-35.373 134.073,-109.366 225.789,-74.061c73.03,28.113 139.105,72.792 195.423,53.541c119.408,-40.817 148.939,103.226 179.514,150.812c72.428,112.724 192.963,82.568 192.963,82.568l0,999.659Z" style="fill:#ff6d88;"/><clipPath id="_clip1"><path d="M1280,1356.55l-1280,0l0,-1286.58c0,0 79.718,73.241 214.739,0c79.521,-43.135 160.951,120.527 271.572,74.061c84.212,-35.373 134.073,-109.366 225.789,-74.061c73.03,28.113 139.105,72.792 195.423,53.541c119.408,-40.817 148.939,103.226 179.514,150.812c72.428,112.724 192.963,82.568 192.963,82.568l0,999.659Z"/></clipPath><g clip-path="url(#_clip1)"><path d="M0,126.346c48.427,-2.213 90.794,17.315 130.643,52.992c15.004,13.433 32.648,20.27 45.172,38.368c19.606,28.329 31.038,67.967 44.864,101.436c37.181,90.001 93.525,253.013 164.546,295.79c130.889,78.837 929.511,-175.989 928.509,-180.533c-3.468,-15.718 -58.898,-292.048 -72.613,-295.615c-80.914,-21.042 -324.273,28.526 -382.582,-60.375c-53.136,-81.014 -351.979,71.026 -376.553,-29.524c-11.365,-46.503 -192.756,4.859 -209.305,-38.159c-11.472,-29.821 -22.047,-70.179 -41.22,-92.791c-45.691,-53.885 -122.691,-81.501 -181.595,-92.974" style="fill:#fff;fill-opacity:0.19;"/><path d="M484.397,221.664c-43.086,-18.743 -64.841,-117.155 -108.249,-116.862c-19.163,0.129 -36.812,9.715 -53.649,19.923c-14.63,8.869 -30.958,18.868 -40.749,35.461c-41.443,70.232 9.756,207.519 55.894,255.424c17.087,17.74 37.923,28.935 60.562,25.427c49.232,-7.627 283.361,-133.602 86.191,-219.373Z" style="fill:#de4ad2;fill-opacity:0.17;"/><path d="M827.192,466.377c166.611,24.557 147.701,-170.741 123.579,-217.621c-45.517,-88.458 -129.087,-54.658 -147.9,-41.442c-16.347,11.483 -34.608,24.387 -47.321,41.442c-53.814,72.192 -24.615,180.012 14.313,210.515c14.417,11.296 32.851,3.498 57.329,7.106Z" style="fill:#ffe4fd;fill-opacity:0.1;"/><path d="M942.381,202.732c-28.235,44.207 -110.983,38.032 -124.664,88.713c-6.04,22.374 -4.313,46.012 -1.847,68.905c2.142,19.891 4.611,42.123 14.25,58.849c40.803,70.798 162.917,55.114 214.586,16.692c19.134,-14.229 34.43,-34.925 38.982,-62.432c9.899,-59.818 -12.094,-373.029 -141.307,-170.727Z" style="fill:#de4ad2;fill-opacity:0.15;"/><path d="M140.837,267.409c6.183,55.705 -54.973,124.558 -34.886,171.9c8.868,20.9 23.875,35.813 38.961,49.554c13.108,11.94 27.81,25.22 44.283,28.331c69.729,13.17 145.496,-105.686 158.988,-178.082c4.997,-26.81 3.547,-54.724 -9.354,-77.879c-28.053,-50.353 -226.288,-248.741 -197.992,6.176Z" style="fill:#ff79d4;fill-opacity:0.44;"/><path d="M242.186,1163.35c-37.531,-66.578 -115.17,7.629 -140.33,-82.694c-11.107,-39.874 -15.089,-88.072 -18.189,-135.343c-2.692,-41.073 -5.631,-87.036 -0.402,-127.442c22.134,-171.034 142.619,-231.342 201.174,-193.786c21.685,13.908 41.241,43.522 52.149,94.696c23.722,111.284 77.349,749.25 -94.402,444.569Z" style="fill:#ff8879;fill-opacity:0.36;"/><g><path d="M855.255,645.234c-19.276,-104.956 -4.702,-210.744 17.887,-225.615c95.611,-62.945 173.521,58.09 195.243,92.049c220.233,344.296 -124.918,613.867 -213.13,133.566Z" style="fill:#ff8879;fill-opacity:0.81;"/></g></g></g></svg>