<svg xmlns="http://www.w3.org/2000/svg" width="1280px" height="1526px" clip-rule="evenodd" fill-rule="evenodd" stroke-linejoin="round" stroke-miterlimit="2"><defs><clipPath id="ClipPath-1"><path d="M1280 1356.5h-1280v-1286.5c0 0 66.6-80.3 214.7 0c79.6 43.1 178.7-47 273.8 36.1c68.7 60.1 133.8 70.7 226.4 37.9c56.3-19.9 151.9-9.2 194.2 32.6c41.2 40.7 113.4 47.4 169.5 41.1c153.6-17.4 201.4 139.2 201.4 139.2v999.6Z"/></clipPath></defs><style>
@keyframes a0_d { 0% { d: path('M1280 1526h-1280v-1456c0 0 66.6-80.3 214.7 0c79.6 43.1 178.7-47 273.8 36.1c68.7 60.1 133.8 70.7 226.4 37.9c56.3-19.9 151.9-9.2 194.2 32.6c41.2 40.7 113.4 47.4 169.5 41.1c153.6-17.4 201.4 139.2 201.4 139.2v1169.1Z'); animation-timing-function: cubic-bezier(0,0,.6,1); } 9.375% { d: path('M1280 1526h-1280v-1456c0 0 62.7-43.3 210.9 37c79.5 43.1 151-83.1 246.1 0c68.8 60.1 140.4 69.7 259.5 53.3c78.4 6.4 138.7 16.7 181.1 58.5c41.1 40.7 98.5 1.9 154.7-4.5c153.6-17.3 227.7 182.6 227.7 182.6v1129.1Z'); animation-timing-function: cubic-bezier(0,0,.6,1); } 20.625% { d: path('M1280 1526h-1280v-1456c0 0 58.8-6.3 207 74c79.5 43.1 181.9-83.1 277 0c68.8 60.2 88.6 32.6 234 32.6c100.6 32.6 125.7 42.6 168 84.4c41.1 40.7 83.8-43.7 140-50c153.5-17.3 254 226 254 226v1089Z'); animation-timing-function: cubic-bezier(.4,0,.6,1); } 31.25% { d: path('M1280 1526h-1280v-1456c0 0 0 191 160 147.7c210.5-73.7 144.5 43.3 293 0c105-41.1 94.3 32.8 187 0c56.3-19.9 211.7-87.5 254-45.7c41.1 40.7 130.8 150.3 187 144c153.5-17.3 199 121 199 121v1089Z'); animation-timing-function: cubic-bezier(0,0,.6,1); } 48.75% { d: path('M1280 1526h-1280v-1456c0 0 3.3 135.1 160 126.8c173.4-40.6 148.3 56.2 281.7 48.7c94.7-12.4 126.9-15.9 219.5-48.7c56.3-19.9 194.8-65.3 237.1-23.5c41.1 40.7 125.8 121.2 182 114.8c153.6-17.3 199.7 126.2 199.7 126.2v1111.7Z'); animation-timing-function: cubic-bezier(0,0,.6,1); } 60.625% { d: path('M1280 1526h-1280v-1456c0 0 33.3 55.3 187.4 73.8c145-15.2 123.8 103.1 245.6 123c86.9 9.6 151.8-53.2 244.5-85.9c56.3-20 181.7-48.4 224.1-6.6c41.1 40.7 122 98.9 178.2 92.5c153.6-17.3 200.2 130.1 200.2 130.1v1129.1Z'); animation-timing-function: cubic-bezier(0,0,.6,1); } 73.75% { d: path('M1280 1526h-1280v-1456c0 0 66.6-80.3 214.7 0c79.6 43.1 147.2 64.5 242.3 147.7c68.8 60.1 184.3 32.8 277 0c56.3-19.9 101.7-119.5 144-77.7c41.1 40.7 144.4 84 200.6 77.7c153.6-17.4 201.4 139.2 201.4 139.2v1169.1Z'); animation-timing-function: cubic-bezier(0,0,.6,1); } 85% { d: path('M1280 1526h-1280v-1456c0 0 11.8-33.3 160 47c79.5 43.1 212.9-23.5 308 59.6c68.8 60.1 141.3 32.8 234 0c56.3-19.9 137.7-41.8 180 0c98.9-52 126.3 51.7 175 57.4c153.5-17.3 223 122.9 223 122.9v1169.1Z'); animation-timing-function: cubic-bezier(0,0,.6,1); } 100% { d: path('M1280 1526h-1280v-1456c0 0 66.6-80.3 214.7 0c79.6 43.1 178.7-47 273.8 36.1c68.7 60.1 133.8 70.7 226.4 37.9c56.3-19.9 151.9-9.2 194.2 32.6c41.2 40.7 113.4 47.4 169.5 41.1c153.6-17.4 201.4 139.2 201.4 139.2v1169.1Z'); } }
@keyframes a1_d { 0% { d: path('M0 126.3c48.4-2.2 90.8 17.4 130.6 53c15 13.5 32.7 20.3 45.2 38.4c19.6 28.3 31.1 68 44.9 101.4c37.2 90 93.5 253.1 164.5 295.8c130.9 78.9 929.5-176 928.5-180.5c-3.4-15.7-58.9-292-72.6-295.6c-80.9-21.1-324.3 28.5-382.6-60.4c-53.1-81-351.9 71-376.5-29.5c-11.4-46.5-192.8 4.8-209.3-38.2c-11.5-29.8-22.1-70.2-41.2-92.8c-45.7-53.9-122.7-81.5-181.6-92.9'); } 31.25% { d: path('M0 126.3c48.4-2.2-0.8 96 39 131.7c15 13.4 26.5 78.9 39 97c19.6 28.3 139.6 107.5 153.5 141c37.1 90 384.5 11.2 455.5 54c130.9 78.8 627.7-111.1 626.7-115.6c-3.4-15.7-58.9-292-72.6-295.6c-80.9-21.1-324.3 28.5-382.6-60.4c-53.1-81-351.9 71-376.5-29.5c-11.4-46.5-192.8 4.8-209.3-38.2c-11.5-29.8-22.1-70.2-41.2-92.8c-45.7-53.8-122.7-81.5-181.6-92.9'); } 68.75% { d: path('M0 126.3c48.4-2.2-0.8 96 39 131.7c15 13.4 26.5 78.9 39 97c19.6 28.3 139.6 107.5 153.5 141c37.1 90 431.5-104.4 502.5-61.6c130.9 78.8 580.7 4.5 579.7 0c-3.4-15.7-58.9-292-72.6-295.6c-80.9-21.1-324.3 28.5-382.6-60.4c-53.1-81-351.9 71-376.5-29.5c-11.4-46.5-192.8 4.8-209.3-38.2c-11.5-29.8-22.1-70.2-41.2-92.8c-45.7-53.8-122.7-81.5-181.6-92.9'); } 91.875% { d: path('M0 126.3c48.4-2.2 90.8 17.4 130.6 53c15 13.5 32.7 20.3 45.2 38.4c19.6 28.3 31.1 68 44.9 101.4c37.2 90 93.5 253.1 164.5 295.8c130.9 78.9 929.5-176 928.5-180.5c-3.4-15.7-58.9-292-72.6-295.6c-80.9-21.1-324.3 28.5-382.6-60.4c-53.1-81-351.9 71-376.5-29.5c-11.4-46.5-192.8 4.8-209.3-38.2c-11.5-29.8-22.1-70.2-41.2-92.8c-45.7-53.9-122.7-81.5-181.6-92.9'); } 100% { d: path('M0 126.3c48.4-2.2 90.8 17.4 130.6 53c15 13.5 32.7 20.3 45.2 38.4c19.6 28.3 31.1 68 44.9 101.4c37.2 90 93.5 253.1 164.5 295.8c130.9 78.9 929.5-176 928.5-180.5c-3.4-15.7-58.9-292-72.6-295.6c-80.9-21.1-324.3 28.5-382.6-60.4c-53.1-81-351.9 71-376.5-29.5c-11.4-46.5-192.8 4.8-209.3-38.2c-11.5-29.8-22.1-70.2-41.2-92.8c-45.7-53.9-122.7-81.5-181.6-92.9'); } }
@keyframes a2_d { 0% { d: path('M484.4 221.7c-43.1-18.8-64.8-117.2-108.3-116.9c-19.1 .1-36.8 9.7-53.6 19.9c-14.6 8.9-31 18.9-40.7 35.5c-41.5 70.2 9.7 207.5 55.8 255.4c17.1 17.8 38 28.9 60.6 25.4c49.2-7.6 283.4-133.6 86.2-219.3Z'); } 18.75% { d: path('M488 273c-43.1-18.7-46.4-113.1-89.8-112.8c-19.2 .1-43.7-10.2-60.6 0c-14.6 8.9-50.8 44.9-60.6 61.5c-41.4 70.2-46.1 171.4 0 219.3c17.1 17.8 98.6 69.5 121.2 66c49.2-7.6 287-148.2 89.8-234Z'); } 31.25% { d: path('M597 320c-43.1-18.7-112.4-61.8-155.8-61.5c-19.2 .2-43.7-10.2-60.6 0c-14.6 8.9-109.8 44.9-119.6 61.5c-41.4 70.2 12.9 171.5 59 219.4c17.1 17.7 98.6 69.4 121.2 65.9c49.2-7.6 353-199.5 155.8-285.3Z'); } 68.75% { d: path('M597 320c-43.1-18.7-112.4-61.8-155.8-61.5c-19.2 .2-65.4-69.7-82.2-59.5c-14.6 8.9-107.2-16.6-117 0c-41.4 70.2 31.9 292.5 78 340.4c17.1 17.7 98.6 69.4 121.2 65.9c49.2-7.6 353-199.5 155.8-285.3Z'); } 100% { d: path('M484.4 221.7c-43.1-18.8-64.8-117.2-108.3-116.9c-19.1 .1-36.8 9.7-53.6 19.9c-14.6 8.9-31 18.9-40.7 35.5c-41.5 70.2 9.7 207.5 55.8 255.4c17.1 17.8 38 28.9 60.6 25.4c49.2-7.6 283.4-133.6 86.2-219.3Z'); } }
@keyframes a3_d { 0% { d: path('M827.2 466.4c166.6 24.5 147.7-170.8 123.6-217.6c-45.5-88.5-129.1-54.7-147.9-41.5c-16.4 11.5-34.6 24.4-47.4 41.5c-53.8 72.1-24.6 180 14.4 210.5c14.4 11.3 32.8 3.5 57.3 7.1Z'); } 68.75% { d: path('M827.2 466.4c166.6 24.5 147.7-170.8 123.6-217.6c-45.5-88.5-129.1-54.7-147.9-41.5c-16.4 11.5-115.2 68.6-127.9 85.7c-53.8 72.2 55.9 135.8 94.9 166.3c14.4 11.3 32.8 3.5 57.3 7.1Z'); } 100% { d: path('M827.2 466.4c166.6 24.5 147.7-170.8 123.6-217.6c-45.5-88.5-129.1-54.7-147.9-41.5c-16.4 11.5-34.6 24.4-47.4 41.5c-53.8 72.1-24.6 180 14.4 210.5c14.4 11.3 32.8 3.5 57.3 7.1Z'); } }
@keyframes a4_t { 0% { transform: translate(0px,0px); } 18.75% { transform: translate(0px,92px); } 100% { transform: translate(0px,0px); } }
@keyframes a4_d { 0% { d: path('M942.4 202.7c-28.3 44.2-111 38.1-124.7 88.7c-6 22.4-4.3 46.1-1.8 69c2.1 19.8 4.6 42.1 14.2 58.8c40.8 70.8 162.9 55.1 214.6 16.7c19.1-14.2 34.4-34.9 39-62.4c9.9-59.9-12.1-373.1-141.3-170.8Z'); } 31.25% { d: path('M872.7 244.3c-28.2 44.2-111 38-124.7 88.7c-6 22.4-4.3 46-1.8 68.9c2.1 19.9 4.6 42.1 14.2 58.9c40.8 70.8 162.9 55.1 214.6 16.6c19.2-14.2 34.4-34.9 39-62.4c9.9-59.8-12.1-373-141.3-170.7Z'); } 92.5% { d: path('M942.4 202.7c-28.3 44.2-111 38.1-124.7 88.7c-6 22.4-4.3 46.1-1.8 69c2.1 19.8 4.6 42.1 14.2 58.8c40.8 70.8 162.9 55.1 214.6 16.7c19.1-14.2 34.4-34.9 39-62.4c9.9-59.9-12.1-373.1-141.3-170.8Z'); } 100% { d: path('M942.4 202.7c-28.3 44.2-111 38.1-124.7 88.7c-6 22.4-4.3 46.1-1.8 69c2.1 19.8 4.6 42.1 14.2 58.8c40.8 70.8 162.9 55.1 214.6 16.7c19.1-14.2 34.4-34.9 39-62.4c9.9-59.9-12.1-373.1-141.3-170.8Z'); } }
@keyframes a5_t { 0% { transform: translate(0px,0px); } 18.75% { transform: translate(-22.8px,49.7px); } 100% { transform: translate(0px,0px); } }
@keyframes a5_d { 0% { d: path('M140.8 267.4c6.2 55.7-54.9 124.6-34.8 171.9c8.8 20.9 23.8 35.8 38.9 49.6c13.1 11.9 27.8 25.2 44.3 28.3c69.7 13.2 145.5-105.7 159-178.1c5-26.8 3.5-54.7-9.4-77.9c-28-50.3-226.3-248.7-198 6.2Z'); } 31.25% { d: path('M106 339.1c6.1 55.7-20.1 98.9 0 146.2c8.8 20.9 84.7 48.3 99.8 62c13.1 11.9 50.5-3.1 67 0c69.7 13.2 61.9-135.8 75.4-208.2c5-26.8 3.5-54.7-9.4-77.9c-28-50.3-261.1-177-232.8 77.9Z'); } 68.75% { d: path('M109.9 243.2c6.2 55.7-71 108.8-50.9 156.1c8.8 20.9 84.7 48.3 99.8 62c13.1 11.9 50.5-3.1 67 0c69.7 13.2 112.8-145.7 126.3-218.1c5-26.8 3.6-54.7-9.3-77.9c-28.1-50.4-261.2-177-232.9 77.9Z'); } 87.5% { d: path('M140.8 267.4c6.2 55.7-54.9 124.6-34.8 171.9c8.8 20.9 23.8 35.8 38.9 49.6c13.1 11.9 27.8 25.2 44.3 28.3c69.7 13.2 145.5-105.7 159-178.1c5-26.8 3.5-54.7-9.4-77.9c-28-50.3-226.3-248.7-198 6.2Z'); } 100% { d: path('M140.8 267.4c6.2 55.7-54.9 124.6-34.8 171.9c8.8 20.9 23.8 35.8 38.9 49.6c13.1 11.9 27.8 25.2 44.3 28.3c69.7 13.2 145.5-105.7 159-178.1c5-26.8 3.5-54.7-9.4-77.9c-28-50.3-226.3-248.7-198 6.2Z'); } }
@keyframes a6_t { 0% { transform: translate(140.3px,-41.4px); } 18.75% { transform: translate(179.7px,-114.6px); } 31.25% { transform: translate(96.1px,-49.9px); } 100% { transform: translate(140.3px,-41.4px); } }
@keyframes a6_d { 0% { d: path('M852.3 534c-13-57-3.1-114.5 12.1-122.5c64.4-34.2 117 31.5 131.6 49.9c148.4 187-84.2 333.4-143.7 72.6Z'); } 68.75% { d: path('M919.3 450.4c-13-57-3.2-114.4 12-122.5c64.5-34.2 117 31.6 131.6 50c148.5 187-84.2 333.3-143.6 72.5Z'); } 87.5% { d: path('M852.3 534c-13-57-3.1-114.5 12.1-122.5c64.4-34.2 117 31.5 131.6 49.9c148.4 187-84.2 333.4-143.7 72.6Z'); } 100% { d: path('M852.3 534c-13-57-3.1-114.5 12.1-122.5c64.4-34.2 117 31.5 131.6 49.9c148.4 187-84.2 333.4-143.7 72.6Z'); } }
</style><path d="M1280 1526h-1280v-1456c0 0 66.6-80.3 214.7 0c79.6 43.1 178.7-47 273.8 36.1c68.7 60.1 133.8 70.7 226.4 37.9c56.3-19.9 151.9-9.2 194.2 32.6c41.2 40.7 113.4 47.4 169.5 41.1c153.6-17.4 201.4 139.2 201.4 139.2v1169.1Z" fill="#ff6d88" style="animation: 16s linear infinite both a0_d;"/><g clip-path="url(#ClipPath-1)"><path d="M0 126.3c48.4-2.2 90.8 17.4 130.6 53c15 13.5 32.7 20.3 45.2 38.4c19.6 28.3 31.1 68 44.9 101.4c37.2 90 93.5 253.1 164.5 295.8c130.9 78.9 929.5-176 928.5-180.5c-3.4-15.7-58.9-292-72.6-295.6c-80.9-21.1-324.3 28.5-382.6-60.4c-53.1-81-351.9 71-376.5-29.5c-11.4-46.5-192.8 4.8-209.3-38.2c-11.5-29.8-22.1-70.2-41.2-92.8c-45.7-53.9-122.7-81.5-181.6-92.9" fill="#fff" fill-opacity=".19" style="animation: 16s linear infinite both a1_d;"/><path d="M484.4 221.7c-43.1-18.8-64.8-117.2-108.3-116.9c-19.1 .1-36.8 9.7-53.6 19.9c-14.6 8.9-31 18.9-40.8 35.5c-41.4 70.2 9.8 207.5 55.9 255.4c17.1 17.8 38 28.9 60.6 25.4c49.2-7.6 283.4-133.6 86.2-219.3Z" fill="#de4ad2" fill-opacity=".17" style="animation: 16s linear infinite both a2_d;"/><path d="M827.2 466.4c166.6 24.5 147.7-170.8 123.6-217.6c-45.5-88.5-129.1-54.7-147.9-41.5c-16.4 11.5-34.6 24.4-47.4 41.5c-53.8 72.1-24.6 180 14.4 210.5c14.4 11.3 32.8 3.5 57.3 7.1Z" fill="#ffe4fd" fill-opacity=".1" style="animation: 16s linear infinite both a3_d;"/><path d="M942.4 202.7c-28.3 44.2-111 38.1-124.7 88.7c-6 22.4-4.3 46.1-1.8 69c2.1 19.8 4.6 42.1 14.2 58.8c40.8 70.8 162.9 55.1 214.6 16.7c19.1-14.2 34.4-34.9 39-62.4c9.9-59.9-12.1-373.1-141.3-170.8Z" fill="#de4ad2" fill-opacity=".15" style="animation: 16s linear infinite both a4_t, 16s linear infinite both a4_d;"/><path d="M140.8 267.4c6.2 55.7-54.9 124.6-34.8 171.9c8.8 20.9 23.8 35.8 38.9 49.6c13.1 11.9 27.8 25.2 44.3 28.3c69.7 13.2 145.5-105.7 159-178.1c5-26.8 3.5-54.7-9.4-77.9c-28-50.3-226.3-248.7-198 6.2Z" fill="#ff79d4" fill-opacity=".44" style="animation: 16s linear infinite both a5_t, 16s linear infinite both a5_d;"/><path d="M203.6 686c-26.7-29.5-81.9 3.4-99.8-36.7c-7.9-17.7-10.7-39.1-13-60.1c-1.9-18.3-4-38.7-0.2-56.7c15.7-75.9 101.4-102.7 143-86.1c15.5 6.2 29.4 19.4 37.1 42.1c16.9 49.5 55 332.9-67.1 197.5Z" fill="#ff8879" fill-opacity=".36"/><path d="M852.3 534c-13-57-3.1-114.5 12.1-122.5c64.4-34.2 117 31.5 131.6 49.9c148.4 187-84.2 333.4-143.7 72.6Z" fill="#ff8879" fill-opacity=".81" transform="translate(140.3,-41.4)" style="animation: 16s linear infinite both a6_t, 16s linear infinite both a6_d;"/></g></svg>