<?xml version="1.0" encoding="UTF-8" standalone="no"?><!DOCTYPE svg PUBLIC "-//W3C//DTD SVG 1.1//EN" "http://www.w3.org/Graphics/SVG/1.1/DTD/svg11.dtd"><svg width="100%" height="100%" viewBox="0 0 909 199" version="1.1" xmlns="http://www.w3.org/2000/svg" xmlns:xlink="http://www.w3.org/1999/xlink" xml:space="preserve" xmlns:serif="http://www.serif.com/" style="fill-rule:evenodd;clip-rule:evenodd;stroke-linecap:round;stroke-linejoin:round;stroke-miterlimit:1.5;"><g><path d="M900.524,82.746c0,-41.022 -33.305,-74.327 -74.327,-74.327l-743.67,0c-41.022,0 -74.327,33.305 -74.327,74.327l0,34.007c0,41.022 33.305,74.327 74.327,74.327l743.67,0c41.022,0 74.327,-33.305 74.327,-74.327l0,-34.007Z" style="fill:#e44542;"/><clipPath id="_clip1"><path d="M900.524,82.746c0,-41.022 -33.305,-74.327 -74.327,-74.327l-743.67,0c-41.022,0 -74.327,33.305 -74.327,74.327l0,34.007c0,41.022 33.305,74.327 74.327,74.327l743.67,0c41.022,0 74.327,-33.305 74.327,-74.327l0,-34.007Z"/></clipPath><g clip-path="url(#_clip1)"><path d="M865.707,86.743c0,-30.457 -24.727,-55.184 -55.183,-55.184l-714.604,0c-30.456,0 -55.183,24.727 -55.183,55.184l0,25.249c0,30.457 24.727,55.183 55.183,55.183l714.604,0c30.456,0 55.183,-24.726 55.183,-55.183l0,-25.249Z" style="fill:#ebebeb;"/></g><path d="M900.524,82.746c0,-41.022 -33.305,-74.327 -74.327,-74.327l-743.67,0c-41.022,0 -74.327,33.305 -74.327,74.327l0,34.007c0,41.022 33.305,74.327 74.327,74.327l743.67,0c41.022,0 74.327,-33.305 74.327,-74.327l0,-34.007Z" style="fill:none;stroke:#372637;stroke-width:15px;"/><text x="73.863px" y="141.38px" style="font-family:'Pusab';font-size:135.461px;fill:#372637;">B<tspan x="179.608px 281.297px 371.601px 449.428px 551.118px 641.422px 739.056px " y="141.38px 141.38px 141.38px 141.38px 141.38px 141.38px 141.38px ">anyango</tspan></text></g></svg>