<?xml version="1.0" encoding="UTF-8" standalone="no"?><!DOCTYPE svg PUBLIC "-//W3C//DTD SVG 1.1//EN" "http://www.w3.org/Graphics/SVG/1.1/DTD/svg11.dtd"><svg width="100%" height="100%" viewBox="0 0 1920 236" version="1.1" xmlns="http://www.w3.org/2000/svg" xmlns:xlink="http://www.w3.org/1999/xlink" xml:space="preserve" xmlns:serif="http://www.serif.com/" style="fill-rule:evenodd;clip-rule:evenodd;stroke-linejoin:round;stroke-miterlimit:1.41421;"><g><g><g><path d="M1397.58,50.078c0,-15.17 -12.316,-27.487 -27.487,-27.487l-822.19,0c-15.171,0 -27.487,12.317 -27.487,27.487l0,54.973c0,15.171 12.316,27.487 27.487,27.487l822.19,0c15.171,0 27.487,-12.316 27.487,-27.487l0,-54.973Z" style="fill:#e44542;"/><g transform="matrix(1,0,0,1,-219.77,-3055.29)"><g transform="matrix(0.999889,-0.0149175,0.0149175,0.999889,-47.0425,16.0779)"><text x="1054.21px" y="3161.38px" style="font-family:'Pusab';font-size:95px;fill:#fff;">J</text></g><g transform="matrix(0.999976,-0.00693019,0.00693019,0.999976,-21.8781,7.65902)"><text x="1094.21px" y="3160.71px" style="font-family:'Pusab';font-size:95px;fill:#fff;">A</text></g><g transform="matrix(0.999991,0.00418863,-0.00418863,0.999991,13.2472,-4.84972)"><text x="1164.45px" y="3160.22px" style="font-family:'Pusab';font-size:95px;fill:#fff;">M</text></g><g transform="matrix(0.999887,0.0150521,-0.0150521,0.999887,47.7134,-18.2831)"><text x="1238.44px" y="3160.55px" style="font-family:'Pusab';font-size:95px;fill:#fff;">S</text></g></g></g></g></g></svg>