<?xml version="1.0" encoding="UTF-8" standalone="no"?><!DOCTYPE svg PUBLIC "-//W3C//DTD SVG 1.1//EN" "http://www.w3.org/Graphics/SVG/1.1/DTD/svg11.dtd"><svg width="100%" height="100%" viewBox="0 0 1920 236" version="1.1" xmlns="http://www.w3.org/2000/svg" xmlns:xlink="http://www.w3.org/1999/xlink" xml:space="preserve" xmlns:serif="http://www.serif.com/" style="fill-rule:evenodd;clip-rule:evenodd;stroke-linejoin:round;stroke-miterlimit:1.41421;"><g><g><g><path d="M1397.58,50.078c0,-15.17 -12.316,-27.487 -27.487,-27.487l-822.19,0c-15.171,0 -27.487,12.317 -27.487,27.487l0,54.973c0,15.171 12.316,27.487 27.487,27.487l822.19,0c15.171,0 27.487,-12.316 27.487,-27.487l0,-54.973Z" style="fill:#e44542;"/><g><path d="M867.629,44.498c-2.471,-0.058 -4.18,-0.033 -5.225,-0.017c-8.643,0.224 -13.853,1.252 -15.444,2.891c-1.032,0.87 -1.443,5.152 -1.236,12.655l0.701,21.556c0.151,3.704 0.183,5.888 0.192,6.458c-0.056,2.661 -0.881,4.669 -2.477,5.928c-0.469,0.387 -2.45,1.367 -5.942,2.939c-1.321,0.59 -1.962,2.214 -1.922,4.874c0.049,3.325 2.174,5.668 5.309,5.622c6.649,-0.1 13.178,-1.907 19.586,-5.423c2.357,-1.271 4.609,-3.109 6.76,-5.422c5.517,-5.973 8.25,-13.804 8.391,-23.497c0.11,-11.688 0.2,-18.436 0.075,-20.429c-0.175,-5.318 -3.16,-8.029 -8.768,-8.135Z" style="fill:#fff;fill-rule:nonzero;"/><path d="M906.506,43.349c-2.944,0.116 -5.595,1.464 -7.953,3.856c-1.604,1.626 -3.577,4.774 -6.109,9.542c-3.751,7.151 -7.305,15.251 -10.756,24.49c-3.638,9.621 -5.397,16.283 -5.277,19.987c0.117,3.04 3.356,4.347 9.909,4.017c4.082,-0.314 5.308,-1.652 6.325,-5.744c0.74,-2.855 1.965,-4.289 3.579,-4.395c2.375,-0.112 4.085,-0.123 5.035,-0.035l6.27,-0.044c1.425,-0.009 2.57,0.743 3.341,2.257c0.677,1.801 1.162,3.222 1.454,4.17c1.065,2.938 6.204,4.233 15.513,4.073c4.75,-0.128 8.262,-0.532 10.442,-1.307c3.791,-1.262 4.637,-2.503 4.23,-6.395c-0.715,-7.215 -4.78,-18.112 -12.197,-32.786c-4.913,-9.751 -8.564,-15.711 -10.86,-17.975c-2.774,-2.736 -6.202,-3.947 -10.097,-3.825l-2.849,0.114Zm-5.769,31.201c0.665,-0.005 2.206,2.93 4.431,8.805c0.485,1.326 -0.841,2 -4.166,2.023c-3.325,0.024 -4.754,-0.537 -4.382,-1.774c1.858,-5.998 3.262,-9.048 4.117,-9.054Z" style="fill:#fff;fill-rule:nonzero;"/><path d="M950.666,59.155c-2.33,11.96 -3.616,24.115 -3.953,36.463c-0.109,3.325 0.262,5.511 0.922,6.749c0.942,1.809 2.934,2.673 5.973,2.78c2.945,0.108 5.037,-0.264 6.275,-1.018c1.524,-0.944 2.386,-2.746 2.682,-5.404c0.297,-2.659 0.495,-4.653 0.596,-5.983c0.499,-5.888 1.082,-8.83 1.747,-8.828c0.19,0.001 0.379,0.192 0.663,0.478l5.48,7.148c1.417,1.811 2.838,2.767 4.263,2.773c1.425,0.006 2.854,-0.938 4.382,-2.832c2.96,-3.692 4.87,-6.059 5.73,-7.196c0.287,-0.473 0.573,-0.757 0.858,-0.756c0.475,0.002 1.122,4.28 2.132,12.834c0.46,3.517 1.59,5.897 3.389,7.329c1.61,1.242 4.267,1.823 7.972,1.934l6.079,0.12c3.325,0.109 5.797,-0.356 7.606,-1.393c2.19,-1.226 3.245,-3.407 3.067,-6.447c-0.799,-13.209 -2.361,-26.04 -4.683,-38.495c-1.952,-10.268 -5.921,-15.415 -12.001,-15.441l-3.23,-0.013c-4.085,-0.017 -7.607,1.678 -10.376,4.991c-3.915,4.829 -6.11,7.195 -6.585,7.193c-0.475,0.093 -1.044,-0.289 -1.611,-0.957l-5.575,-7.148c-2.174,-2.764 -4.923,-4.201 -8.248,-4.215l-2.09,-0.009c-5.604,-0.023 -9.426,5.091 -11.464,15.343Z" style="fill:#fff;fill-rule:nonzero;"/><path d="M1050.85,107.168c19.293,-0.375 28.715,-7.739 28.364,-22.281c-0.181,-6.938 -4.56,-12.705 -13.324,-17.493c-2.921,-1.564 -4.322,-3.2 -4.296,-4.91c0.025,-1.71 0.893,-2.552 2.698,-2.524c1.52,0.022 3.595,1.004 6.32,3.04c1.598,1.164 3.204,1.758 4.629,1.78c1.806,-0.068 3.546,-2.037 5.029,-5.91c0.301,-1.041 0.41,-1.989 0.423,-2.844c0.024,-1.615 -0.431,-2.952 -1.463,-3.822c-2.623,-2.415 -5.731,-4.267 -9.321,-5.651c-5.95,-2.37 -12.393,-3.512 -19.332,-3.332c-19.292,0.375 -28.714,7.739 -28.363,22.281c0.18,6.938 4.559,12.705 13.323,17.492c2.922,1.565 4.322,3.201 4.297,4.911c-0.026,1.709 -0.894,2.551 -2.699,2.524c-1.52,-0.023 -3.595,-1.004 -6.32,-3.04c-1.597,-1.164 -3.204,-1.759 -4.628,-1.78c-1.807,0.068 -3.546,2.037 -5.03,5.91c-0.301,1.04 -0.41,1.989 -0.423,2.844c-0.024,1.615 0.431,2.952 1.463,3.822c2.624,2.415 5.731,4.267 9.321,5.651c5.95,2.37 12.393,3.512 19.332,3.332Z" style="fill:#fff;fill-rule:nonzero;"/></g></g></g></g></svg>