<?xml version="1.0" encoding="UTF-8" standalone="no"?><!DOCTYPE svg PUBLIC "-//W3C//DTD SVG 1.1//EN" "http://www.w3.org/Graphics/SVG/1.1/DTD/svg11.dtd"><svg width="100%" height="100%" viewBox="0 0 1926 206" version="1.1" xmlns="http://www.w3.org/2000/svg" xmlns:xlink="http://www.w3.org/1999/xlink" xml:space="preserve" xmlns:serif="http://www.serif.com/" style="fill-rule:evenodd;clip-rule:evenodd;stroke-linecap:round;stroke-linejoin:round;stroke-miterlimit:1.5;"><g><path d="M1925.92,-69.238l-1925.81,0l0,194.395c0,0 223.442,-14.764 509.285,-3.44c462.963,18.343 456.251,-19.764 937.084,3.44c180.252,8.698 479.441,0 479.441,0l0,-194.395Z" style="fill:#e44542;"/><g><path d="M1266.83,113.591c0,-31.521 -25.591,-57.112 -57.112,-57.112l-487.702,0c-31.52,0 -57.111,25.591 -57.111,57.112l0,26.131c0,31.521 25.591,57.112 57.111,57.112l487.702,0c31.521,0 57.112,-25.591 57.112,-57.112l0,-26.131Z" style="fill:#e44542;"/><clipPath id="_clip1"><path d="M1266.83,113.591c0,-31.521 -25.591,-57.112 -57.112,-57.112l-487.702,0c-31.52,0 -57.111,25.591 -57.111,57.112l0,26.131c0,31.521 25.591,57.112 57.111,57.112l487.702,0c31.521,0 57.112,-25.591 57.112,-57.112l0,-26.131Z"/></clipPath><g clip-path="url(#_clip1)"><path d="M1243.34,116.662c0,-23.402 -19,-42.402 -42.403,-42.402l-471.687,0c-23.403,0 -42.403,19 -42.403,42.402l0,19.401c0,23.403 19,42.403 42.403,42.403l471.687,0c23.403,0 42.403,-19 42.403,-42.403l0,-19.401Z" style="fill:#ebebeb;"/></g><path d="M1266.83,113.591c0,-31.521 -25.591,-57.112 -57.112,-57.112l-487.702,0c-31.52,0 -57.111,25.591 -57.111,57.112l0,26.131c0,31.521 25.591,57.112 57.111,57.112l487.702,0c31.521,0 57.112,-25.591 57.112,-57.112l0,-26.131Z" style="fill:none;stroke:#372637;stroke-width:15px;"/><text x="709.194px" y="158.644px" style="font-family:'Pusab';font-size:104.087px;fill:#372637;">B<tspan x="780.525px 849.121px 910.036px 962.535px 1031.13px 1092.05px 1157.91px " y="158.644px 158.644px 158.644px 158.644px 158.644px 158.644px 158.644px ">anyango</tspan></text></g></g></svg>