<?xml version="1.0" encoding="UTF-8" standalone="no"?><!DOCTYPE svg PUBLIC "-//W3C//DTD SVG 1.1//EN" "http://www.w3.org/Graphics/SVG/1.1/DTD/svg11.dtd"><svg width="100%" height="100%" viewBox="0 0 1920 205" version="1.1" xmlns="http://www.w3.org/2000/svg" xmlns:xlink="http://www.w3.org/1999/xlink" xml:space="preserve" xmlns:serif="http://www.serif.com/" style="fill-rule:evenodd;clip-rule:evenodd;stroke-linecap:round;stroke-linejoin:round;stroke-miterlimit:1.5;"><g><g><path d="M1920.92,-69.238l-1925.81,0l0,194.395c0,0 223.442,-14.764 509.285,-3.44c462.963,18.343 456.251,-19.764 937.084,3.44c180.252,8.698 479.441,0 479.441,0l0,-194.395Z" style="fill:#e44542;"/></g><g><path d="M1261.83,113.591c0,-31.521 -25.591,-57.112 -57.112,-57.112l-487.702,0c-31.52,0 -57.111,25.591 -57.111,57.112l0,26.131c0,31.521 25.591,57.112 57.111,57.112l487.702,0c31.521,0 57.112,-25.591 57.112,-57.112l0,-26.131Z" style="fill:#e44542;"/><clipPath id="_clip1"><path d="M1261.83,113.591c0,-31.521 -25.591,-57.112 -57.112,-57.112l-487.702,0c-31.52,0 -57.111,25.591 -57.111,57.112l0,26.131c0,31.521 25.591,57.112 57.111,57.112l487.702,0c31.521,0 57.112,-25.591 57.112,-57.112l0,-26.131Z"/></clipPath><g clip-path="url(#_clip1)"><path d="M1238.34,116.662c0,-23.402 -19,-42.402 -42.403,-42.402l-471.687,0c-23.403,0 -42.403,19 -42.403,42.402l0,19.401c0,23.403 19,42.403 42.403,42.403l471.687,0c23.403,0 42.403,-19 42.403,-42.403l0,-19.401Z" style="fill:#ebebeb;"/></g><path d="M1261.83,113.591c0,-31.521 -25.591,-57.112 -57.112,-57.112l-487.702,0c-31.52,0 -57.111,25.591 -57.111,57.112l0,26.131c0,31.521 25.591,57.112 57.111,57.112l487.702,0c31.521,0 57.112,-25.591 57.112,-57.112l0,-26.131Z" style="fill:none;stroke:#372637;stroke-width:15px;"/><g><path d="M773.421,140.013c0,-5.725 -2.841,-10.513 -8.522,-14.364c4.84,-3.123 7.259,-7.39 7.259,-12.803c0,-5.933 -1.683,-10.512 -5.155,-13.635c-5.576,-5.1 -16.518,-7.598 -32.825,-7.598c-5.997,0 -11.783,0.416 -17.359,1.249c-3.893,0.52 -6.418,1.457 -7.786,2.81c-1.788,1.769 -2.735,11.762 -2.735,29.769c0,18.007 0.947,27.895 2.735,29.769c1.579,1.561 5.997,2.602 13.362,3.33c5.155,0.521 9.153,0.729 11.783,0.729c12.73,0 21.883,-1.145 27.46,-3.435c7.89,-3.227 11.783,-8.431 11.783,-15.821Zm-33.456,-1.874c0,-2.81 0.841,-4.579 2.63,-5.516c1.262,-0.625 3.366,-0.833 6.418,-0.729c5.26,0.312 7.89,2.186 7.89,5.725c0,4.059 -2.525,6.141 -7.68,6.141c-3.262,0 -5.366,-0.208 -6.418,-0.624c-1.893,-0.729 -2.84,-2.394 -2.84,-4.997Zm7.575,-30.081c5.47,0 8.206,1.77 8.206,5.413c0,3.747 -2.736,5.621 -8.312,5.621c-2.945,0 -4.944,-0.209 -5.891,-0.729c-1.578,-0.729 -2.315,-2.394 -2.315,-4.892c0,-2.394 0.842,-3.955 2.525,-4.684c1.052,-0.52 2.946,-0.729 5.787,-0.729Z" style="fill:#372637;fill-rule:nonzero;"/><path d="M807.193,99.523c-2.841,0.104 -5.366,1.353 -7.681,3.643c-1.578,1.562 -3.577,4.58 -5.996,9.056c-3.577,6.557 -7.049,14.364 -10.521,23.315c-3.577,9.16 -5.366,15.509 -5.261,19.048c0.106,3.019 3.262,4.268 9.574,3.955c2.104,-0.104 3.577,-0.624 4.314,-1.561c0.631,-0.52 1.262,-1.874 1.788,-3.851c0.737,-2.706 1.894,-4.06 3.577,-4.164c2.315,-0.104 3.893,-0.104 4.84,0l6.102,0c1.578,0 2.525,0.625 3.051,1.978l1.473,4.163c0.947,2.811 5.997,4.164 14.94,4.06c4.524,-0.104 7.89,-0.416 10.1,-1.145c3.787,-1.249 4.629,-2.394 4.208,-6.141c-0.736,-6.974 -4.629,-17.487 -11.678,-31.538c-4.735,-9.368 -8.101,-15.093 -10.311,-17.175c-2.735,-2.602 -5.996,-3.851 -9.784,-3.747l-2.735,0.104Zm-5.682,29.769c0.632,0 1.999,2.81 4.104,8.431c0.315,0.729 -0.316,1.353 -1.789,1.665c-0.842,0.209 -1.578,0.313 -2.209,0.313c-1.789,0 -2.946,-0.209 -3.683,-0.729c-0.526,-0.312 -0.631,-0.624 -0.526,-1.041c1.789,-5.725 3.157,-8.639 4.103,-8.639Z" style="fill:#372637;fill-rule:nonzero;"/><path d="M902.301,106.497c-0.316,-4.268 -2.104,-6.349 -5.471,-6.349l-3.261,0c-4.419,0 -6.523,1.977 -6.418,5.829c0.316,6.973 0.421,10.721 0.421,11.137c-0.105,0.52 -0.211,0.833 -0.526,0.833c-0.211,0 -0.632,-0.313 -1.263,-0.937c-2.314,-2.394 -5.891,-6.245 -10.836,-11.762c-3.051,-3.331 -6.208,-4.996 -9.679,-5.1l-6.734,-0.104c-3.998,-0.104 -6.943,0.832 -8.837,2.81c-2.104,2.186 -3.262,10.721 -3.367,25.813c-0.105,6.766 0.105,14.573 0.631,23.212c0.316,4.684 1.999,7.078 5.261,7.182l3.577,0.104c4.313,0.104 6.838,-1.77 6.418,-6.037c-0.211,-1.978 -0.316,-3.539 -0.316,-4.58l0,-3.851c0,-2.394 0.316,-3.539 0.947,-3.539c0.21,0 0.421,0.104 0.736,0.312c2.63,2.082 7.575,6.558 14.835,13.531c2.84,2.707 6.417,4.06 10.52,4.06l6.313,0c2.104,0 3.893,-0.729 5.471,-2.082c0.736,-0.624 1.157,-1.561 1.473,-2.914c0.526,-2.186 0.736,-7.807 0.736,-16.758c0,-13.532 -0.21,-23.836 -0.631,-30.81Z" style="fill:#372637;fill-rule:nonzero;"/><path d="M924.395,149.068c0.105,2.499 0.315,4.164 0.631,4.997c0.526,1.145 1.578,2.29 3.367,3.226c3.051,1.145 6.312,1.77 9.994,1.874l2.736,0c4.418,-0.208 7.47,-0.833 9.153,-1.978c2.209,-1.561 3.261,-4.371 3.156,-8.431l-0.316,-8.535c-0.105,-3.227 0.106,-5.308 0.632,-6.245c7.259,-12.178 11.467,-19.672 12.625,-22.483c1.578,-3.643 2.314,-6.349 2.314,-8.119c0,-2.185 -3.472,-3.122 -10.415,-2.81c-1.789,0.104 -3.051,0.416 -3.788,1.145c-0.315,0.208 -1.894,2.81 -4.524,7.911c-1.473,2.706 -2.946,4.892 -4.524,6.661c-0.315,0.208 -0.736,0.312 -1.052,0.312c-0.421,0 -0.947,-0.208 -1.473,-0.624c-1.999,-2.706 -3.892,-5.413 -5.786,-8.015c-2.946,-3.851 -5.261,-6.037 -6.839,-6.765c-1.367,-0.521 -3.472,-0.937 -6.417,-1.041c-1.368,-0.104 -3.051,-0.104 -4.84,0c-7.891,0.312 -11.889,1.769 -11.889,4.475c0,2.186 1.473,5.829 4.419,10.93c4.524,7.806 8.206,13.947 11.047,18.215c0.842,1.353 1.368,3.747 1.473,7.39c0.21,3.539 0.316,6.141 0.316,7.91Z" style="fill:#372637;fill-rule:nonzero;"/><path d="M989.203,99.523c-2.841,0.104 -5.366,1.353 -7.68,3.643c-1.578,1.562 -3.577,4.58 -5.997,9.056c-3.577,6.557 -7.049,14.364 -10.521,23.315c-3.577,9.16 -5.366,15.509 -5.26,19.048c0.105,3.019 3.261,4.268 9.574,3.955c2.104,-0.104 3.577,-0.624 4.313,-1.561c0.631,-0.52 1.263,-1.874 1.789,-3.851c0.736,-2.706 1.893,-4.06 3.577,-4.164c2.314,-0.104 3.892,-0.104 4.839,0l6.102,0c1.578,0 2.525,0.625 3.051,1.978l1.473,4.163c0.947,2.811 5.997,4.164 14.94,4.06c4.524,-0.104 7.89,-0.416 10.1,-1.145c3.787,-1.249 4.629,-2.394 4.208,-6.141c-0.736,-6.974 -4.629,-17.487 -11.678,-31.538c-4.734,-9.368 -8.101,-15.093 -10.31,-17.175c-2.736,-2.602 -5.997,-3.851 -9.785,-3.747l-2.735,0.104Zm-5.681,29.769c0.631,0 1.999,2.81 4.103,8.431c0.315,0.729 -0.316,1.353 -1.789,1.665c-0.841,0.209 -1.578,0.313 -2.209,0.313c-1.789,0 -2.946,-0.209 -3.682,-0.729c-0.526,-0.312 -0.632,-0.624 -0.526,-1.041c1.788,-5.725 3.156,-8.639 4.103,-8.639Z" style="fill:#372637;fill-rule:nonzero;"/><path d="M1084.31,106.497c-0.316,-4.268 -2.104,-6.349 -5.471,-6.349l-3.261,0c-4.419,0 -6.523,1.977 -6.418,5.829c0.316,6.973 0.421,10.721 0.421,11.137c-0.105,0.52 -0.21,0.833 -0.526,0.833c-0.21,0 -0.631,-0.313 -1.263,-0.937c-2.314,-2.394 -5.891,-6.245 -10.836,-11.762c-3.051,-3.331 -6.207,-4.996 -9.679,-5.1l-6.733,-0.104c-3.998,-0.104 -6.944,0.832 -8.838,2.81c-2.104,2.186 -3.261,10.721 -3.367,25.813c-0.105,6.766 0.106,14.573 0.632,23.212c0.315,4.684 1.999,7.078 5.26,7.182l3.577,0.104c4.314,0.104 6.839,-1.77 6.418,-6.037c-0.211,-1.978 -0.316,-3.539 -0.316,-4.58l0,-3.851c0,-2.394 0.316,-3.539 0.947,-3.539c0.21,0 0.421,0.104 0.736,0.312c2.631,2.082 7.575,6.558 14.835,13.531c2.84,2.707 6.418,4.06 10.521,4.06l6.312,0c2.104,0 3.893,-0.729 5.471,-2.082c0.736,-0.624 1.157,-1.561 1.473,-2.914c0.526,-2.186 0.736,-7.807 0.736,-16.758c0,-13.532 -0.21,-23.836 -0.631,-30.81Z" style="fill:#372637;fill-rule:nonzero;"/><path d="M1145.54,132.623c-3.577,-0.104 -5.891,0 -6.838,0.312c-1.999,0.52 -3.156,2.186 -3.262,4.892c-0.21,3.643 -1.893,5.621 -5.05,5.933c-5.365,0.52 -8.101,-4.268 -8.101,-14.364c0,-0.729 0.105,-2.082 0.316,-3.955c0.736,-6.245 2.525,-9.576 5.471,-9.993c3.892,-0.52 6.523,1.874 7.89,7.182c0.632,2.394 2.21,3.539 4.84,3.227c3.261,-0.312 5.366,-0.728 6.523,-1.145c2.209,-0.832 3.261,-2.29 3.261,-4.371c0,-0.729 -0.105,-1.458 -0.421,-2.394c-3.997,-12.699 -13.992,-19.048 -29.879,-19.048c-9.574,0 -17.254,2.706 -22.83,8.118c-5.576,5.413 -8.311,12.907 -8.311,22.379c0,9.16 2.63,16.55 7.996,22.171c5.365,5.62 12.625,8.431 21.778,8.431c8.101,0 13.887,-2.082 17.464,-6.142l0.421,1.666c0.316,2.602 2.946,3.851 7.68,3.851c3.893,0 5.892,-1.561 6.208,-4.684l0,-3.331c0.105,-0.52 0.105,-1.145 0.105,-1.769l0,-3.851c-0.105,-4.684 -0.105,-7.182 -0.105,-7.495c-0.106,-3.643 -1.894,-5.516 -5.156,-5.62Z" style="fill:#372637;fill-rule:nonzero;"/><path d="M1218.35,129.604c0,-3.539 -0.631,-7.39 -1.788,-11.449c-5.155,-12.803 -15.255,-19.152 -30.405,-19.152c-19.464,0 -31.142,11.345 -31.142,30.601c0,19.152 11.783,30.498 31.142,30.498c9.784,0 17.569,-2.707 23.356,-8.119c5.892,-5.413 8.837,-12.907 8.837,-22.379Zm-29.879,13.532c-1.367,0.312 -2.525,0 -3.682,-1.145c-3.051,-3.019 -4.629,-7.703 -4.629,-14.052c0,-0.937 0,-1.978 0.105,-3.123c0.421,-6.245 2.315,-9.263 5.576,-9.055c3.051,0.208 5.26,2.706 6.418,7.494c0.736,3.227 1.052,6.766 0.841,10.617c-0.315,5.516 -1.893,8.535 -4.629,9.264Z" style="fill:#372637;fill-rule:nonzero;"/></g></g></g></svg>