<svg xmlns="http://www.w3.org/2000/svg" width="100%" height="100%" viewBox="0 0 851 259" clip-rule="evenodd" fill-rule="evenodd" stroke-linejoin="round" stroke-miterlimit="2"><path id="_a0" d="M181.5 209.2c0-1.8 0-4.1-0.1-6.8c-0.1-2.7-0.1-6-0.1-9.7c0-3.9 0-7.2 .1-9.9c.1-2.7 .1-5 .1-6.8c.4-8.3 2.2-15.5 5.3-21.6c3.2-6 7.5-10.9 12.8-14.8c5.4-3.9 11.6-6.7 18.8-8.5c7.1-1.8 14.7-2.8 22.9-2.8c4.7 0 9.5 .4 14.5 1c5 .7 9.8 1.8 14.4 3.4c4.7 1.6 9 3.6 13.1 6.2c4.1 2.5 7.6 5.6 10.5 9.4c4.9 5.8 7.3 11.8 7.5 17.9c0 1.1-0.4 2-1.2 2.7c-1 .9-2 1.3-3 1.3h-29.5c-1 0-2-0.2-3-0.7c-0.6-0.5-1.3-1.1-1.9-1.8c-1.9-4.5-4.7-7.7-8.4-9.5c-3.7-1.9-8-2.9-13-2.9c-14.7 0-22.3 7.2-22.9 21.6c0 1.7-0.1 3.8-0.1 6.4c-0.1 2.6-0.1 5.7-0.1 9.2c0 3.5 0 6.6 .1 9.1c0 2.6 .1 4.8 .1 6.7c.3 7.6 2.4 13.3 6.3 17.1c3.8 3.8 10.4 5.7 19.8 5.7c3.1 0 5.6-0.1 7.5-0.4c1.9-0.2 3.5-0.5 4.9-1c1.3-0.4 2.5-0.9 3.5-1.6c1-0.7 2-1.4 3-2.3c2.8-2.3 4.7-5.2 5.6-8.8c.5-2 1.3-3.6 2.5-4.8c1.1-1.3 2.4-2.3 3.7-3.1c1.3-0.8 2.6-1.4 3.9-1.7c1.3-0.4 2.4-0.6 3.3-0.6h-33.9c-1.2 0-2.4-0.5-3.4-1.4c-1-1-1.5-2.1-1.5-3.3v-3.1c0-1.9 .4-3.8 1.1-5.7c.8-1.9 1.9-3.6 3.3-5.1c1.4-1.5 3.1-2.7 5.1-3.6c2.1-0.9 4.4-1.3 7.1-1.3h28.3c4.7 0 8.1 1.1 10.2 3.5c2.1 2.3 3.1 5.5 3.1 9.5v12.7c0 8.6-1.6 15.9-4.8 22.1c-3.3 6.2-7.7 11.2-13.2 15.2c-5.6 4-12 7-19.3 8.9c-7.3 1.9-15.1 2.9-23.2 2.9c-8.4 0-16.2-1-23.3-2.9c-7.2-1.9-13.4-4.9-18.6-8.9c-5.3-4-9.5-9-12.7-15.2c-3.1-6.2-4.8-13.5-5.2-21.9Z" fill="#e5c9d9" fill-rule="nonzero" opacity="0"/><path id="_a1" d="M313.1 255.2c-0.8-1-1.1-1.9-1.1-2.7c0-0.9 0-1.4 .2-1.7l44.3-115.6c1.4-3.5 3.9-5.2 7.6-5.2h29.6c3.7 0 6.3 1.7 7.7 5.2l44.3 115.6c.1 .3 .2 .8 .2 1.7c0 .9-0.4 1.8-1.3 2.6c-0.8 .8-1.7 1.2-2.7 1.2h-24.7c-3.2 0-5.3-1.3-6.5-4l-9.9-25.6c-4.6 1.7-9.2 3.1-13.9 4.2c-4.8 1.1-9.3 1.9-13.7 2.5c-4.4 .5-8.5 .9-12.3 1c-3.8 .2-7.2 .3-10 .3h-4.5c-1.2 0-2.1 0-2.7-0.2c2.3 .4 4.2 1.6 5.6 3.7c1.5 2 1.6 4.4 .5 7.2l-2.7 6.9c-1.1 2.7-3.3 4-6.5 4h-24.6c-0.9 0-1.9-0.4-2.9-1.1Zm48.5-46.4c3.6-0.2 7.3-0.7 11.1-1.3c3.3-0.4 6.8-1.1 10.4-2c3.7-1 7.1-2.3 10.4-3.9l-14.7-39.9l-17.2 47.1Z" fill="#e5c9d9" fill-rule="nonzero" opacity="0"/><path id="_a2" d="M589 130.2c1.4 0 2.5 .4 3.4 1.1c.9 .8 1.3 1.9 1.3 3.4v117.2c0 1.4-0.4 2.4-1.3 3.1c-0.9 .9-2 1.3-3.4 1.3h-24.3c-1.3 0-2.4-0.5-3.3-1.4c-1-0.9-1.5-1.9-1.5-3v-61.9c0-0.6-0.3-0.9-0.9-0.9c-0.4 0-0.7 .1-1 .3l-18.5 32.5c-1.7 2.7-3.9 4.1-6.7 4.1h-10.3c-2.7 0-4.9-1.4-6.7-4.1l-18.3-32.3c-0.3-0.4-0.6-0.5-1-0.5c-0.6 0-0.9 .3-0.9 .9v61.9c0 1.2-0.6 2.3-1.6 3.1c-0.9 .9-2 1.3-3.4 1.3h-24.1c-1.4 0-2.5-0.4-3.4-1.3c-0.9-0.7-1.4-1.7-1.4-3.1v-106.7c0-2.5 .6-4.8 1.8-6.7c1.1-1.9 2.5-3.5 4.2-4.7c1.6-1.2 3.3-2.1 5.1-2.7c1.8-0.6 3.3-0.9 4.6-0.9h10.7c3.1 0 5.4 1.2 6.9 3.8l31.7 54.1c.1 .4 .4 .6 .9 .6c.4 0 .7-0.2 1-0.6l31.9-54.1c1.5-2.6 3.8-3.8 6.9-3.8h21.6Z" fill="#e5c9d9" fill-rule="nonzero" opacity="0"/><path id="_a3" d="M619.9 251.4v-106c0-4.6 1.7-8.4 5-11.3c3.3-3 7.2-4.5 11.6-4.5h78c1.4 0 2.6 .5 3.5 1.4c1 .9 1.4 2 1.4 3.3v18c0 1.3-0.4 2.3-1.3 3c-0.9 .9-2.1 1.3-3.6 1.3h-70.5c3 0 5.6 1 7.5 3.1c2 2.1 3 4.3 3 6.7v7.6c0 1.3 .5 2.6 1.4 3.8c1 1.2 2.4 1.8 4.3 1.8h41.7c1.4 0 2.6 .5 3.5 1.4c1 .9 1.4 2 1.4 3.3v16.3c0 1.4-0.4 2.5-1.4 3.4c-0.9 .9-2.1 1.4-3.5 1.4h-57.9c2.9 0 5.4 .9 7.4 2.9c2.1 1.9 3.1 4.1 3.1 6.5v8.5c0 1.3 .5 2.6 1.5 3.8c1 1.2 2.4 1.8 4.2 1.8h55.8c3.3 0 5 1.6 5 4.7v17.8c0 1.4-0.5 2.6-1.5 3.3c-0.9 .8-2.1 1.2-3.5 1.2h-91.3c-1.3 0-2.4-0.4-3.3-1.3c-1-0.9-1.5-2-1.5-3.2Z" fill="#e5c9d9" fill-rule="nonzero" opacity="0"/><path id="_a4" d="M850.9 217.9c0 7.3-1.8 13.6-5.5 18.6c-3.6 5.1-8.2 9.2-13.8 12.4c-5.6 3.1-11.9 5.4-18.7 6.7c-6.9 1.4-13.6 2.1-20.1 2.1c-6.2 0-12.7-0.6-19.4-1.8c-6.7-1.2-12.8-3.2-18.4-6.1c-5.6-2.8-10.3-6.5-14.1-11.2c-3.7-4.6-5.8-10.4-6.2-17.3c0-1.1 .4-2 1.3-2.7c.8-0.7 1.8-1.1 2.9-1.1h25.4c.8 0 1.5 .1 2 .2c.6 .1 1.2 .3 1.7 .5c.9 .5 1.9 1.4 3.2 2.6c2.1 3.8 5.1 6.5 9.1 7.8c4 1.4 8.2 2.1 12.5 2.1c1.9 0 4.1-0.1 6.6-0.3c2.5-0.3 4.8-0.8 6.9-1.6c2.1-0.8 3.9-1.9 5.4-3.4c1.5-1.5 2.3-3.5 2.3-5.9c0-3.3-1.3-5.6-3.8-7.1c-2.6-1.4-5.2-2.6-8-3.4c-2.2-0.7-4.8-1.4-7.8-2.1c-3-0.7-6.4-1.4-10.4-2.1c-5.8-1.1-11.5-2.5-17-4.2c-5.5-1.8-10.3-4.1-14.6-7c-4.3-2.9-7.7-6.6-10.3-11c-2.6-4.4-3.9-9.8-3.9-16.2c0-8 2.3-14.8 6.9-20.6c4.7-5.7 10.8-10.1 18.3-13.1c8.1-3.1 17.5-4.7 28.1-4.7c4.2 0 8.5 .3 13.1 1c4.5 .6 8.9 1.7 13.1 3.2c4.3 1.6 8.3 3.5 12 6c3.7 2.5 6.9 5.5 9.5 9c4.4 5.3 6.7 10.7 7.1 16.1c0 1-0.4 1.9-1.2 2.7c-0.9 .9-1.8 1.3-2.8 1.3h-26.8c-2.6 0-4.7-1.1-6.3-3.3c-0.7-2.5-2.7-4.7-5.9-6.5c-3.4-1.7-7.4-2.5-11.8-2.5c-1.9 0-3.9 .1-5.9 .3c-1.9 .3-3.7 .8-5.4 1.7c-1.7 .8-3 1.9-4 3.3c-1 1.4-1.5 3.2-1.5 5.4c0 3.4 1.9 6.1 5.7 8.1c3.8 2 10.9 4 21.4 6c6 1.1 11.9 2.4 17.8 3.9c6 1.5 11.2 3.7 15.8 6.4c4.6 2.8 8.3 6.4 11.2 10.8c2.8 4.4 4.3 10.1 4.3 17Z" fill="#e5c9d9" fill-rule="nonzero" opacity="0"/><path id="_a5" d="M.8 99.2v-84.3c0-2.2 .4-4 1.3-5.6c.8-1.5 1.9-2.8 3.2-3.9c1.3-1 2.8-1.8 4.4-2.3c1.5-0.4 3-0.7 4.3-0.7h37.3c5.2 0 10.1 .5 14.6 1.4c4.6 .9 8.6 2.5 12 4.7c3.5 2.2 6.2 5.1 8.2 8.8c2 3.7 3.1 8.3 3.1 13.8c0 4.1-1.1 7.9-3.3 11.2c-2.2 3.4-5.2 6.1-9 8.1c4.5 1.7 8.1 4.7 10.7 8.8c2.5 4.2 3.8 8.6 3.8 13.1c0 5.5-1 10.3-3.1 14.1c-2.1 3.8-4.9 7-8.4 9.4c-3.6 2.5-7.7 4.3-12.4 5.4c-4.7 1.1-9.7 1.6-14.9 1.6h-48c-1 0-1.9-0.3-2.7-1.1c-0.8-0.7-1.1-1.5-1.1-2.5Zm47.4-57c3.4 0 6.2-0.9 8.3-2.7c2.1-1.8 3.2-4.3 3.2-7.7c0-3.4-1.1-5.9-3.3-7.6c-2.2-1.6-4.9-2.5-8.3-2.5h-27.3c2.3 0 4.3 .8 5.9 2.4c1.7 1.6 2.5 3.3 2.5 5.2v8.7c0 .9 .4 1.8 1.2 2.7c.8 1 1.9 1.5 3.3 1.5h14.4Zm1.3 41.2c3.7 0 6.6-1 8.9-2.9c2.3-1.9 3.4-4.7 3.4-8.2c0-3.5-1.1-6.2-3.5-8.3c-2.3-2.1-5.2-3.1-8.8-3.1h-28.7c2.3 0 4.3 .8 5.9 2.4c1.7 1.6 2.5 3.3 2.5 5.2v10.5c0 1 .3 2 1.1 2.9c.8 1 1.9 1.5 3.4 1.5h15.8Z" fill="#e5c9d9" fill-rule="nonzero" transform="translate(7.4,4) translate(0,0) scale(0,0) translate(0,0)"/><path id="_a6" d="M99.9 102.4c-0.6-0.8-0.9-1.5-0.9-2.2c0-0.7 .1-1.1 .2-1.3l35.2-91.9c1.1-2.8 3.1-4.2 6.1-4.2h23.5c3 0 5 1.4 6.1 4.2l35.2 91.9c.1 .2 .2 .6 .2 1.3c0 .8-0.4 1.5-1 2.1c-0.7 .6-1.4 .9-2.2 .9h-19.6c-2.5 0-4.3-1-5.2-3.1l-7.9-20.3c-3.6 1.3-7.3 2.4-11 3.3c-3.8 .8-7.4 1.5-10.9 1.9c-3.5 .5-6.8 .7-9.8 .9c-3 .1-5.7 .2-7.9 .2h-3.6c-0.9 0-1.7 0-2.2-0.1c1.9 .2 3.3 1.2 4.5 2.8c1.2 1.7 1.3 3.6 .4 5.8l-2.1 5.5c-0.9 2.1-2.7 3.1-5.2 3.1h-19.6c-0.7 0-1.5-0.2-2.3-0.8Zm38.6-36.9c2.8-0.2 5.8-0.5 8.8-1c2.6-0.4 5.4-0.9 8.3-1.7c2.9-0.7 5.6-1.7 8.3-3.1l-11.7-31.6l-13.7 37.4Z" fill="#e5c9d9" fill-rule="nonzero" transform="translate(7.4,4) translate(0,0) scale(0,0) translate(0,0)"/><path id="_a7" d="M217.6 99.2v-84.3c0-3.3 1.3-6.2 3.8-8.7c2.6-2.5 5.7-3.8 9.4-3.8h5c1.2 0 2.5 .2 4 .7c1.5 .4 3.1 1.7 4.7 3.8c6 8.8 11.3 16.8 16.1 23.9c2.9 4.3 5.2 7.7 6.9 10.3c1.7 2.5 3.3 4.9 4.8 7c1.5 2.2 2.8 4.1 3.8 5.6c1 1.5 1.6 2.4 1.8 2.7c0 .2 .2 .3 .6 .3c.5 0 .8-0.2 .8-0.7v-41.1c0-3.7 1.3-6.7 4.1-9c2.7-2.3 5.8-3.5 9.2-3.5h9.8c1.1 0 2 .3 2.7 1c.7 .9 1.1 1.8 1.1 2.8v92.9c0 .8-0.4 1.7-1.1 2.6c-0.8 .7-1.7 1.1-2.7 1.1h-17.2c-2.2 0-3.9-0.9-5.2-2.7c-6-8.9-11.5-16.8-16.4-23.8c-2.9-4.2-5.2-7.6-6.9-10.1c-1.8-2.6-3.4-4.9-4.9-7.1c-1.5-2.2-2.8-4-3.8-5.5c-1-1.5-1.6-2.4-1.8-2.6c-0.3-0.3-0.6-0.5-0.8-0.5c-0.5 0-0.7 .3-0.7 .7v48c0 1.1-0.4 1.9-1.3 2.6c-0.8 .7-1.7 1-2.7 1h-19.3c-0.9 0-1.7-0.4-2.6-1.1c-0.8-0.8-1.2-1.6-1.2-2.5Z" fill="#e5c9d9" fill-rule="nonzero" transform="translate(7.4,4) translate(0,0) scale(0,0) translate(0,0)"/><path id="_a8" d="M354.3 99.5v-25.6c0-1.6-0.2-3.1-0.6-4.7c-0.4-1.6-0.9-2.9-1.5-4l-32.8-57.9c-0.3-0.5-0.5-1-0.5-1.6c0-0.7 .3-1.4 1-2.1c.7-0.6 1.4-0.9 2.2-0.9h19.9c1.1 0 2.2 .3 3.3 .8c1 .5 1.8 1.3 2.2 2.4c3.6 6.2 6.9 11.8 9.8 16.8c1.8 3.1 3.2 5.5 4.2 7.3c1.1 1.8 2 3.4 2.9 5c.9 1.5 1.6 2.8 2.3 3.9c.6 1 1 1.6 1.1 1.8c.2 .3 .5 .5 .8 .5c.3 0 .5-0.2 .6-0.5c.1-0.2 .5-0.8 1.1-1.9c.7-1.1 1.5-2.5 2.5-4.1c.9-1.7 2-3.5 3.2-5.6c1.2-2.2 2.4-4.3 3.7-6.4c2.9-5 6.2-10.6 9.8-16.8c1.3-2.1 3.2-3.2 5.5-3.2h19.9c.8 0 1.5 .3 2.2 .9c.7 .7 1 1.4 1 2.1c0 .6-0.2 1.1-0.5 1.6c-5.8 10.4-11.2 19.7-15.9 28c-2.9 5-5.1 9.1-6.8 12c-1.6 2.9-3.2 5.6-4.6 8.2c-1.4 2.5-2.6 4.7-3.7 6.5c-1 1.8-1.6 2.8-1.8 3.1c-0.7 1.2-1.2 2.6-1.6 4.1c-0.3 1.5-0.5 2.9-0.5 4.2v26.1c0 1.2-0.4 2-1.1 2.7c-0.7 .6-1.6 .9-2.9 .9h-20.6c-1.1 0-2-0.3-2.7-1c-0.7-0.7-1.1-1.5-1.1-2.6Z" fill="#e5c9d9" fill-rule="nonzero" transform="translate(7.4,4) translate(0,0) scale(0,0) translate(0,0)"/><path id="_a9" d="M422.6 102.4c-0.6-0.8-0.9-1.5-0.9-2.2c0-0.7 .1-1.1 .2-1.3l35.2-91.9c1.1-2.8 3.1-4.2 6.1-4.2h23.5c3 0 5 1.4 6.1 4.2l35.2 91.9c.1 .2 .2 .6 .2 1.3c0 .8-0.3 1.5-1 2.1c-0.7 .6-1.4 .9-2.2 .9h-19.6c-2.5 0-4.3-1-5.2-3.1l-7.9-20.3c-3.6 1.3-7.3 2.4-11 3.3c-3.8 .8-7.4 1.5-10.9 1.9c-3.5 .5-6.8 .7-9.8 .9c-3 .1-5.7 .2-7.9 .2h-3.6c-0.9 0-1.7 0-2.2-0.1c1.9 .2 3.3 1.2 4.5 2.8c1.2 1.7 1.3 3.6 .4 5.8l-2.1 5.5c-0.9 2.1-2.7 3.1-5.2 3.1h-19.6c-0.7 0-1.5-0.2-2.3-0.8Zm38.6-36.9c2.8-0.2 5.8-0.5 8.8-1c2.6-0.4 5.4-0.9 8.3-1.7c2.9-0.7 5.6-1.7 8.3-3.1l-11.7-31.6l-13.7 37.4Z" fill="#e5c9d9" fill-rule="nonzero" transform="translate(7.4,4) translate(0,0) scale(0,0) translate(0,0)"/><path id="_a10" d="M540.3 99.2v-84.3c0-3.3 1.3-6.2 3.8-8.7c2.6-2.5 5.7-3.8 9.4-3.8h5.1c1.1 0 2.4 .2 3.9 .7c1.5 .4 3.1 1.7 4.7 3.8c6 8.8 11.3 16.8 16.1 23.9c2.9 4.3 5.2 7.7 6.9 10.3c1.7 2.5 3.3 4.9 4.8 7c1.5 2.2 2.8 4.1 3.8 5.6c1 1.5 1.6 2.4 1.8 2.7c0 .2 .2 .3 .6 .3c.5 0 .8-0.2 .8-0.7v-41.1c0-3.7 1.4-6.7 4.1-9c2.7-2.3 5.8-3.5 9.2-3.5h9.8c1.1 0 2 .3 2.7 1c.7 .9 1.1 1.8 1.1 2.8v92.9c0 .8-0.4 1.7-1.1 2.6c-0.8 .7-1.7 1.1-2.7 1.1h-17.2c-2.2 0-3.9-0.9-5.2-2.7c-6-8.9-11.5-16.8-16.4-23.8c-2.9-4.2-5.2-7.6-6.9-10.1c-1.8-2.6-3.4-4.9-4.9-7.1c-1.5-2.2-2.8-4-3.8-5.5c-1-1.5-1.6-2.4-1.8-2.6c-0.3-0.3-0.6-0.5-0.8-0.5c-0.5 0-0.7 .3-0.7 .7v48c0 1.1-0.4 1.9-1.3 2.6c-0.8 .7-1.7 1-2.7 1h-19.3c-0.9 0-1.7-0.4-2.6-1.1c-0.8-0.8-1.2-1.6-1.2-2.5Z" fill="#e5c9d9" fill-rule="nonzero" transform="translate(7.4,4) translate(0,0) scale(0,0) translate(0,0)"/><path id="_a11" d="M646.6 65.8c0-1.4 0-3.2 0-5.4c-0.1-2.2-0.1-4.7-0.1-7.7c0-3.1 0-5.7 .1-7.9c0-2.1 0-3.9 0-5.4c.3-6.6 1.8-12.3 4.3-17.1c2.5-4.8 5.9-8.7 10.2-11.8c4.2-3.1 9.2-5.3 14.8-6.8c5.7-1.4 11.8-2.2 18.3-2.2c3.7 0 7.6 .3 11.5 .8c4 .6 7.8 1.5 11.5 2.7c3.7 1.3 7.1 2.9 10.4 4.9c3.2 2 6 4.5 8.3 7.5c3.9 4.6 5.8 9.4 5.9 14.3c0 .8-0.3 1.5-0.9 2.1c-0.8 .7-1.6 1-2.4 1h-23.4c-0.8 0-1.6-0.2-2.4-0.6c-0.5-0.3-1-0.8-1.5-1.4c-1.5-3.5-3.8-6.1-6.7-7.6c-2.9-1.4-6.4-2.2-10.3-2.2c-11.7 0-17.8 5.7-18.3 17.2c0 1.3 0 3 0 5.1c-0.1 2-0.1 4.5-0.1 7.2c0 2.8 0 5.3 .1 7.3c0 2.1 0 3.8 0 5.3c.3 6 2 10.6 5.1 13.6c3 3 8.3 4.5 15.7 4.5c2.5 0 4.4-0.1 6-0.3c1.5-0.2 2.8-0.4 3.8-0.8c1.1-0.3 2-0.7 2.8-1.3c.9-0.5 1.7-1.1 2.5-1.8c2.2-1.8 3.7-4.1 4.4-7c.4-1.5 1-2.8 2-3.8c.9-1 1.9-1.9 2.9-2.5c1.1-0.6 2.1-1.1 3.1-1.3c1-0.3 1.9-0.5 2.6-0.5h-26.9c-1 0-1.9-0.4-2.7-1.1c-0.8-0.8-1.2-1.7-1.2-2.6v-2.5c0-1.5 .3-3 .9-4.5c.6-1.5 1.5-2.8 2.6-4c1.1-1.2 2.5-2.2 4.1-2.9c1.6-0.7 3.5-1.1 5.6-1.1h22.5c3.7 0 6.4 .9 8.1 2.8c1.7 1.9 2.5 4.4 2.5 7.6v10c0 6.9-1.3 12.7-3.9 17.6c-2.6 4.9-6 9-10.4 12.1c-4.5 3.2-9.6 5.5-15.4 7.1c-5.8 1.5-12 2.3-18.4 2.3c-6.7 0-12.9-0.8-18.6-2.3c-5.6-1.6-10.6-3.9-14.8-7.1c-4.2-3.1-7.5-7.2-10-12.1c-2.5-4.9-3.9-10.7-4.2-17.4Z" fill="#e5c9d9" fill-rule="nonzero" transform="translate(7.4,4) translate(0,0) scale(0,0) translate(0,0)"/><path id="_a12" d="M9.4 19.2c-1.6 0-2.9-0.4-3.9-1.4c-0.9-1-1.4-2.4-1.5-4.3c0-0.4 0-1 0-1.9c0-0.8 0-1.4 0-1.8c.1-1.9 .6-3.3 1.5-4.3c1-1 2.3-1.5 3.9-1.5c1.6 0 2.9 .5 3.8 1.5c1 1 1.5 2.4 1.5 4.3c.1 .8 .1 1.4 .1 1.8c0 .5 0 1.1-0.1 1.9c0 1.9-0.5 3.3-1.5 4.3c-0.9 1-2.2 1.4-3.8 1.4Zm0-3.1c.6 0 1.1-0.3 1.4-0.7c.4-0.5 .6-1.1 .6-2.1c0-0.8 0-1.4 0-1.7c0-0.4 0-0.9 0-1.7c0-1-0.2-1.6-0.6-2.1c-0.3-0.4-0.8-0.7-1.4-0.7c-0.6 0-1.1 .3-1.5 .7c-0.3 .5-0.5 1.1-0.5 2.1c0 .4-0.1 .9-0.1 1.7c0 .7 .1 1.3 .1 1.7c0 1 .2 1.6 .5 2.1c.4 .4 .9 .7 1.5 .7Z" fill="#e5c9d9" fill-rule="nonzero" transform="translate(26,51.6) translate(0,0) rotate(0) translate(0,0)"/><script><![CDATA[/*
 KeyshapeJS v1.0.0 (c) 2018 Pixofield Ltd | pixofield.com/keyshapejs/mit-license */
window.KeyshapeJS=function(){function A(a){return"undefined"!==typeof a}function v(a,b){return a&&0==a.indexOf(b)}function H(a){if(!isFinite(a))throw Error("Non-finite value");}function Q(a){if(14>=a)return 16;var b=R[a];b||(b=A(ba[a])?0|(a.toLowerCase().indexOf("color")==a.length-5?48:0):1);return b}function J(a){return 0<=a?Math.pow(a,1/3):-Math.pow(-a,1/3)}function ca(a,b,c,d){if(0==a)return 0==b?b=-d/c:(a=Math.sqrt(c*c-4*b*d),d=(-c+a)/(2*b),0<=d&&1>=d?b=d:(d=(-c-a)/(2*b),b=0<=d&&1>=d?d:0)),b;
var e=c/a-b*b/(a*a)/3;c=b*b*b/(a*a*a)/13.5-b*c/(a*a)/3+d/a;var n=c*c/4+e*e*e/27;b=-b/(3*a);if(0>=n){if(0==e&&0==c)return-J(d/a);a=Math.sqrt(c*c/4-n);d=Math.acos(-c/2/a);c=Math.cos(d/3);d=Math.sqrt(3)*Math.sin(d/3);a=J(a);e=2*a*c+b;if(0<=e&&1>=e)return e;e=-a*(c+d)+b;if(0<=e&&1>=e)return e;e=a*(d-c)+b;if(0<=e&&1>=e)return e}else{a=J(-c/2+Math.sqrt(n));c=J(-c/2-Math.sqrt(n));d=a+c+b;if(0<=d&&1>=d)return d;d=-(a+c)/2+b;if(0<=d&&1>=d)return d}return 0}function da(a,b){if(48==a&&"number"===typeof b)return"#"+
("000000"+b.toString(16)).substr(-6);if(64==a)return b=b.map(function(a){return a+"px"}),b.join(",");if(96==a){a="";for(var c=b.length,d=0;d<c;d+=2)a+=b[d],a+=b[d+1].join(",");return a}if(80==a){if(0==b[0])return"none";a="";c=b.length;for(d=0;d<c;)a+=S[b[d]],1==b[d]?a+="("+b[d+1]+") ":5==b[d]?(a+="("+b[d+1]+"px "+b[d+2]+"px "+b[d+3]+"px rgba("+(b[d+4]>>>24)+","+(b[d+4]>>16&255)+","+(b[d+4]>>8&255)+","+(b[d+4]&255)/255+")) ",d+=3):a=2==b[d]?a+("("+b[d+1]+"px) "):7==b[d]?a+("("+b[d+1]+"deg) "):a+("("+
(0>b[d+1]?0:b[d+1])+") "),d+=2;return a}return 32==a?b+"px":b}function w(a){return 0>=a?0:255<=a?255:a}function ea(a,b,c,d){if(16==a||32==a)return(c-b)*d+b;if(0==a)return.5>d?b:c;if(48==a){if("number"===typeof b&&"number"===typeof c){var e=1-d;return w(e*(b>>16)+d*(c>>16))<<16|w(e*(b>>8&255)+d*(c>>8&255))<<8|w(e*(b&255)+d*(c&255))}return.5>d?b:c}if(64==a){0==b.length&&(b=[0]);0==c.length&&(c=[0]);var n=b.length;b.length!=c.length&&(n=b.length*c.length);var k=[];for(a=0;a<n;++a){var f=b[a%b.length];
var h=(c[a%c.length]-f)*d+f;0>h&&(h=0);k.push(h)}return k}if(96==a){if(b.length!=c.length)return.5>d?b:c;n=b.length;k=[];for(a=0;a<n;a+=2){if(b[a]!==c[a])return.5>d?b:c;k[a]=b[a];k[a+1]=[];for(f=0;f<b[a+1].length;++f)k[a+1].push((c[a+1][f]-b[a+1][f])*d+b[a+1][f])}return k}if(80==a){n=b.length;if(n!=c.length)return.5>d?b:c;k=[];for(a=0;a<n;){if(b[a]!=c[a]||1==b[a])return.5>d?b:c;k[a]=b[a];k[a+1]=(c[a+1]-b[a+1])*d+b[a+1];if(5==b[a]){k[a+2]=(c[a+2]-b[a+2])*d+b[a+2];k[a+3]=(c[a+3]-b[a+3])*d+b[a+3];e=
1-d;var g=b[a+4],q=c[a+4];h=e*(g>>>24)+d*(q>>>24);var m=e*(g>>16&255)+d*(q>>16&255);f=e*(g>>8&255)+d*(q>>8&255);k[a+4]=(w(m)<<16|w(f)<<8|w(e*(g&255)+d*(q&255)))+16777216*(w(h)|0);a+=3}a+=2}return k}return 0}function T(a,b){a:{var c=a+b[2];var d=b[4].length;for(var e=0;e<d;++e)if(c<b[4][e]){c=e;break a}c=d-1}d=b[2];e=b[4][c-1]-d;a=(a-e)/(b[4][c]-d-e);if(b[6]&&b[6].length>c-1)if(d=b[6][c-1],1==d[0])if(0>=a)a=0;else if(1<=a)a=1;else{e=d[1];var n=d[3];a=ca(3*e-3*n+1,-6*e+3*n,3*e,-a);a=3*a*(1-a)*(1-a)*
d[2]+3*a*a*(1-a)*d[4]+a*a*a}else 2==d[0]?(d=d[1],a=Math.ceil(a*d)/d):3==d[0]&&(d=d[1],a=Math.floor(a*d)/d);return ea(b[1]&240,b[5][c-1],b[5][c],a)}function K(){x||(u=(new Date).getTime()+U)}function N(a){if(a||!C){for(var b=!1,c=0;c<t.length;++c)t[c].I(a)&&(b=!0);if(a)for(;0<F.length;)if(a=F.shift(),c=a[0],1==a[1])c.onfinish&&(c.onfinish(),b=!0),c.H();else if(2==a[1]&&c.onloop)c.onloop();return b}}function V(){K();N(!0)&&!x?(C=!0,L(V)):C=!1}function M(){C||(C=!0,L(V))}function W(a,b){var c=[];a.split(b).forEach(function(a){c.push(parseFloat(a))});
return c}function y(a){-1==a.indexOf(",")&&(a=a.replace(" ",","));return W(a,",")}function X(a){a._ks||(a._ks={});if(!a._ks.transform){for(var b=a._ks.transform=[],c=0;14>=c;++c)b[c]=0;b[10]=1;b[11]=1;if(a=a.getAttribute("transform")){a=a.trim().split(") ");for(c=a.length-2;0<=c;--c)if(v(a[c],"translate(")){for(var d=0;d<c;d++)a.shift();break}c=a.shift();v(c,"translate(")&&(c=y(c.substring(10)),b[1]=c[0],b[2]=A(c[1])?c[1]:0,c=a.shift());v(c,"rotate(")&&(c=y(c.substring(7)),b[6]=c[0],c=a.shift());
v(c,"skewX(")&&(c=y(c.substring(6)),b[7]=c[0],c=a.shift());v(c,"skewY(")&&(c=y(c.substring(6)),b[8]=c[0],c=a.shift());v(c,"scale(")&&(c=y(c.substring(6)),b[10]=c[0],b[11]=A(c[1])?c[1]:0,c=a.shift());v(c,"translate(")&&(c=y(c.substring(10)),b[13]=c[0],b[14]=A(c[1])?c[1]:0)}}}function Y(a){this.D=a;this.B=[];this.w=[];this.s=0;this.o=this.a=this.c=null;this.h=this.f=this.g=0;this.b=1;this.i=this.C=this.m=!1}function I(a,b,c){b=a[b];void 0===b&&(b=a[c]);return b}function fa(a){return Array.isArray(a)?
a:v(a,"cubic-bezier(")?(a=a.substring(13,a.length-1).split(","),[1,parseFloat(a[0]),parseFloat(a[1]),parseFloat(a[2]),parseFloat(a[3])]):v(a,"steps(")?(a=a.substring(6,a.length-1).split(","),[a[1]&&"start"==a[1].trim()?2:3,parseFloat(a[0])]):[0]}function ha(a){a=a.trim();return v(a,"#")?(parseInt(a.substring(1),16)<<8)+255:v(a,"rgba(")?(a=a.substring(5,a.length-1),a=a.split(","),(parseInt(a[0],10)<<24)+(parseInt(a[1],10)<<16)+(parseInt(a[2],10)<<8)+255*parseFloat(a[3])<<0):a}function Z(a){!1===a.i&&
(t.push(a),a.i=!0,!1!==a.D.autoplay&&a.play());return this}function O(a){if(!0===a.i){a._cancel();var b=t.indexOf(a);-1<b&&t.splice(b,1);b=F.indexOf(a);-1<b&&F.splice(b,1);a.i=!1}return this}var P=Error("Not in timeline list"),aa="mpath posX posY    rotate skewX skewY  scaleX scaleY  anchorX anchorY".split(" "),ia=" translate translate    rotate skewX skewY  scale scale  translate translate".split(" "),S="none url blur brightness contrast drop-shadow grayscale hue-rotate invert opacity saturate sepia".split(" "),
L=window.requestAnimationFrame||window.webkitRequestAnimationFrame||window.mozRequestAnimationFrame||window.oRequestAnimationFrame||window.msRequestAnimationFrame||null;L||(L=function(a){window.setTimeout(a,16)});var R={d:97,fill:48,fillOpacity:16,filter:80,height:33,opacity:16,offsetDistance:33,stroke:48,strokeDasharray:64,strokeDashoffset:32,strokeOpacity:16,strokeWidth:32,transform:1,width:33},ba=window.getComputedStyle(document.documentElement),C=!1,u=(new Date).getTime(),x,U=0,t=[],F=[];Y.prototype=
{v:function(a){var b=0;if(null!==this.c){var c=this.j();0<this.b&&null!==c&&c>=this.f?this.h?(this.c=u-this.g/this.b,this.h--,b=2):(b=1,a?this.a=c:this.a=this.o?Math.max(this.o,this.f):this.f):0>this.b&&null!==c&&c<=this.g?this.h&&Infinity!=this.f?(this.c=u-this.f/this.b,this.h--,b=2):(this.h=0,b=1,a?this.a=c:this.a=this.o?Math.min(this.o,this.g):this.g):null!==c&&0!=this.b&&(a&&null!==this.a&&(this.c=u-this.a/this.b),this.a=null)}this.o=this.j();return b},I:function(a){a&&(this.m&&(this.m=!1,null===
this.c&&(0!=this.b&&null!==this.a?(this.c=u-this.a/this.b,this.a=null):this.c=u)),null===this.a&&null!==this.c&&(a=this.v(!1),0!=a&&F.push([this,a])));a=this.j();if(null===a)return!1;for(var b=this.B,c=this.w,d=0;d<b.length;++d){for(var e=b[d],n=!1,k=0;k<c[d].length;++k){var f=c[d][k],h=f[0];if(null!==h){var g=f[2];var q=f[4].length,m=f[4][q-1]-g;g=0==m?f[5][q-1]:a<=g?f[5][0]:a>=g+f[3]?0==f[3]%m?f[5][q-1]:T(f[3]%m,f):T((a-g)%m,f);0==h?(e._ks.mpath=f[8],e._ks.transform[h]=g,n=!0):14>=h?(e._ks.transform[h]=
g,n=!0):(g=da(f[1]&240,g),f[1]&1?e.setAttribute(h,g):e.style[h]=g)}}if(n){X(e);n=e._ks.transform;k="";if(f=e._ks.mpath)g=n[0],0>g&&(g=0),100<g&&(g=100),g=g*f[2]/100,h=f[1].getPointAtLength(g),k="translate("+h.x+","+h.y+") ",f[0]&&(.5>g?(g=h,h=f[1].getPointAtLength(.5)):g=f[1].getPointAtLength(g-.5),k+="rotate("+180*Math.atan2(h.y-g.y,h.x-g.x)/Math.PI+") ");for(f=1;f<n.length;++f)h=n[f],h!=(10==f||11==f?1:0)&&(k+=" "+ia[f]+"(",k=2>=f?k+(1==f?h+",0":"0,"+h):13<=f?k+(13==f?h+",0":"0,"+h):10<=f?k+(10==
f?h+",1":"1,"+h):k+h,k+=")");e.setAttribute("transform",k)}}return"running"==this.l()},H:function(){!1!==this.D.autoremove&&"finished"==this.l()&&O(this)},A:function(){if(!this.C){this.C=!0;for(var a=this.B,b=this.w,c=0;c<a.length;++c)for(var d=a[c],e=0;e<b[c].length;++e)14>=b[c][e][0]&&X(d)}},play:function(a){A(a)&&null!==a&&(H(a),0>this.b&&a<this.g&&(a=this.g),0<this.b&&a>this.f&&(a=this.f),this.u(a,!0));if(!this.i)throw P;a=this.j();if(0<this.b&&(null===a||a>=this.f))this.a=this.g;else if(0>this.b&&
(null===a||a<=this.g)){if(Infinity==this.f)throw Error("Cannot seek to Infinity");this.a=this.f}else 0==this.b&&null===a&&(this.a=this.g);if(null===this.a)return this;this.c=null;this.m=!0;this.A();M();return this},pause:function(a){if(!this.i)throw P;A(a)&&H(a);if("paused"!=this.l()){K();var b=this.j();if(null===b)if(0<=this.b)this.a=this.g;else{if(Infinity==this.f)throw Error("Cannot seek to Infinity");this.a=this.f}null!==this.c&&null===this.a&&(this.a=b);this.c=null;this.m=!1;this.v(!1);this.A();
M()}A(a)&&this.u(a,!0);return this},range:function(a,b){if(0==arguments.length)return{"in":this.g,out:this.f};var c=+a,d=this.s;A(b)&&(d=+b);H(c);if(0>c||0>d||c>=d||isNaN(d))throw Error("Invalid range");var e=this.l();this.g=c;this.f=d;"finished"==e&&"running"==this.l()&&this.play();return this},loop:function(a){if(!A(a))return{count:this.h};this.h=!0===a?Infinity:Math.floor(a);if(0>this.h||isNaN(this.h))this.h=0;return this},j:function(){return null!==this.a?this.a:null===this.c?null:(u-this.c)*
this.b},u:function(a,b){b&&K();null!==a&&(this.A(),null!==this.a||null===this.c||0==this.b?(this.a=a,N(!1)):this.c=u-a/this.b,this.i||(this.c=null),this.o=null,this.v(!0),M())},F:function(){return this.j()},time:function(a){if(A(a)){if(!this.i)throw P;H(a);this.u(a,!0);return this}return this.F()},l:function(){var a=this.j();return this.m?"running":null===a?"idle":null===this.c?"paused":0<this.b&&a>=this.f||0>this.b&&a<=this.g?"finished":"running"},state:function(){return this.l()},duration:function(){return this.s},
G:function(a){H(a);K();var b=this.j();this.b=a;null!==b&&this.u(b,!1)},rate:function(a){return A(a)?(this.G(a),this):this.b},_cancel:function(){if(!this.i||"idle"==this.l())return this;this.c=this.a=null;this.m=!1;return this}};return{version:"1.0.0",animate:function(){var a={};if(1==arguments.length%2){a=arguments[arguments.length-1];var b={};for(c in a)b[c]=a[c];a=b}var c=new Y(a);a=arguments;for(var d=b=0;d<a.length-1;d+=2){var e=a[d];var n=e instanceof Element?e:document.getElementById(e.substring(1));
if(!n)throw Error("Invalid target: "+e);e=n;n=a[d+1];e._ks||(e._ks={});for(var k=[],f=0;f<n.length;++f){var h=n[f],g=I(h,"p","property");if("string"!=typeof g||-1!=g.indexOf("-")||""===g||!(0<R[g]||0<=aa.indexOf(g)))throw Error("Invalid property: "+g);var q=aa.indexOf(g);""!==g&&0<=q&&(g=q);q=Q(g);var m=I(h,"t","times");if(!m||2>m.length)throw Error("Not enough times");m=m.slice();if(!isFinite(m[0])||0>m[0])throw Error("Invalid time: "+m[0]);for(var B=1;B<m.length;++B)if(!isFinite(m[B])||0>m[B]||
m[B]<m[B-1])throw Error("Invalid time: "+m[B]);B=m[0];var u=m[m.length-1]-B,x=h.iterations||0;1>x&&(x=1);u*=x;b<u+B&&(b=u+B);var t=I(h,"v","values");if(!t||t.length!=m.length)throw Error("Values do not match times");t=t.slice();for(var D=g,l=t,w=Q(D)&240,p=0;p<l.length;++p)if(96==w){for(var y=l[p].substring(6,l[p].length-2).match(/[A-DF-Za-df-z][-+0-9eE., ]*/ig),C=[],r=0;r<y.length;++r){C.push(y[r][0]);for(var z=1<y[r].trim().length?y[r].substring(1).split(","):[],G=0;G<z.length;++G)z[G]=parseFloat(z[G]);
C.push(z)}l[p]=C}else if(48==w)v(l[p],"#")?l[p]=parseInt(l[p].substring(1),16):v(l[p],"url(")||"none"==l[p]||(console.warn("unsupported color: "+l[p]),l[p]=0);else if(80==w){y=l;C=p;r=l[p];if("none"==r)r=[0];else{z=[];for(var E=r.indexOf("(");0<E;)if(G=S.indexOf(r.substring(0,E)),0<=G){z.push(G);var F=r.indexOf(") ");0>F&&(F=r.length-1);E=r.substring(E+1,F).split(" ");5==G?(z.push(parseFloat(E[0])),z.push(parseFloat(E[1])),z.push(parseFloat(E[2])),z.push(ha(E[3]))):1==G?z.push(E[0]):z.push(parseFloat(E[0]));
r=r.substring(F+1).trim();E=r.indexOf("(")}else break;r=z}y[C]=r}else 64==w?"none"!=l[p]?/^[0-9 .]*$/.test(l[p])?l[p]=W(l[p]," "):(console.warn("unsupported value: "+l[p]),l[p]=[0]):l[p]=[0]:32==w?(H(l[p]),l[p]=parseFloat(l[p])):0===D&&(l[p]=parseFloat(l[p]));D=I(h,"e","easing");l=m.length;for(D||(D=[]);D.length<l;)D.push([1,0,0,.58,1]);for(l=0;l<D.length;++l)D[l]=fa(D[l]);q=[g,q,B,u,m,t,D,x];m=I(h,"mp","motionPath");A(m)&&0===g&&(q[8]=[],q[8][0]=h.motionRotate,h=document.createElementNS("http://www.w3.org/2000/svg",
"path"),m||(m="M0,0"),h.setAttribute("d",m),q[8][1]=h,q[8][2]=h.getTotalLength());k.push(q)}0<k.length&&(c.B.push(e),c.w.push(k))}c.s=b;c.g=0;c.f=c.s;Z(c);return c},add:Z,remove:O,removeAll:function(){for(var a=t.length-1;0<=a;--a)O(t[a]);return this},timelines:function(){return t.slice()},globalPlay:function(){x&&(U=x-(new Date).getTime(),x=void 0,M());return this},globalPause:function(){x||(x=u,N(!1));return this},globalState:function(){return x?"paused":"running"}}}();
]]></script><script><![CDATA[if(KeyshapeJS.version.indexOf('1.')!=0)throw Error('Expected KeyshapeJS v1.*.*');window.ks=document.ks=KeyshapeJS;(function(ks){
ks.animate("#_a0",[{p:'opacity',t:[900,1500],v:[0,1],e:[[0],[0]]}],
"#_a1",[{p:'opacity',t:[900,1500],v:[0,1],e:[[0],[0]]}],
"#_a2",[{p:'opacity',t:[900,1500],v:[0,1],e:[[0],[0]]}],
"#_a3",[{p:'opacity',t:[900,1500],v:[0,1],e:[[0],[0]]}],
"#_a4",[{p:'opacity',t:[900,1500],v:[0,1],e:[[0],[0]]}],
"#_a5",[{p:'mpath',t:[0,500],v:['0%','100%'],e:[[0],[0]],mp:"M7.4,4L51.7,50.4"},{p:'scaleX',t:[0,500,600,700,800],v:[0,0,1.2,.9,1],e:[[0],[0],[0],[0],[0]]},{p:'scaleY',t:[0,500,600,700,800],v:[0,0,1.2,.9,1],e:[[0],[0],[0],[0],[0]]},{p:'anchorX',t:[0,500],v:[0,-46.1],e:[[0],[0]]},{p:'anchorY',t:[0,500],v:[0,-52.6],e:[[0],[0]]}],
"#_a6",[{p:'mpath',t:[0,600],v:['0%','100%'],e:[[0],[0]],mp:"M7.4,4L150.3,49.5"},{p:'scaleX',t:[0,600,700,800,900],v:[0,0,1.2,.9,1],e:[[0],[0],[0],[0],[0]]},{p:'scaleY',t:[0,600,700,800,900],v:[0,0,1.2,.9,1],e:[[0],[0],[0],[0],[0]]},{p:'anchorX',t:[0,600],v:[0,-152.2],e:[[0],[0]]},{p:'anchorY',t:[0,600],v:[0,-53],e:[[0],[0]]}],
"#_a7",[{p:'mpath',t:[0,700],v:['0%','100%'],e:[[0],[0]],mp:"M7.4,4L257.4,49.5"},{p:'scaleX',t:[0,700,800,900,1000],v:[0,0,1.2,.9,1],e:[[0],[0],[0],[0],[0]]},{p:'scaleY',t:[0,700,800,900,1000],v:[0,0,1.2,.9,1],e:[[0],[0],[0],[0],[0]]},{p:'anchorX',t:[0,700],v:[0,-261.9],e:[[0],[0]]},{p:'anchorY',t:[0,700],v:[0,-52.6],e:[[0],[0]]}],
"#_a8",[{p:'mpath',t:[0,800],v:['0%','100%'],e:[[0],[0]],mp:"M7.4,4L362.9,53.4"},{p:'scaleX',t:[0,800,900,1000,1100],v:[0,0,1.2,.9,1],e:[[0],[0],[0],[0],[0]]},{p:'scaleY',t:[0,800,900,1000,1100],v:[0,0,1.2,.9,1],e:[[0],[0],[0],[0],[0]]},{p:'anchorX',t:[0,800],v:[0,-368.5],e:[[0],[0]]},{p:'anchorY',t:[0,800],v:[0,-52.9],e:[[0],[0]]}],
"#_a9",[{p:'mpath',t:[0,900],v:['0%','100%'],e:[[0],[0]],mp:"M7.4,4L468.7,54.3"},{p:'scaleX',t:[0,900,1000,1100,1200],v:[0,0,1.2,.9,1],e:[[0],[0],[0],[0],[0]]},{p:'scaleY',t:[0,900,1000,1100,1200],v:[0,0,1.2,.9,1],e:[[0],[0],[0],[0],[0]]},{p:'anchorX',t:[0,900],v:[0,-475],e:[[0],[0]]},{p:'anchorY',t:[0,900],v:[0,-53],e:[[0],[0]]}],
"#_a10",[{p:'mpath',t:[0,1000],v:['0%','100%'],e:[[0],[0]],mp:"M7.4,4L584.2,54.3"},{p:'scaleX',t:[0,1000,1100,1200,1300],v:[0,0,1.2,.9,1],e:[[0],[0],[0],[0],[0]]},{p:'scaleY',t:[0,1000,1100,1200,1300],v:[0,0,1.2,.9,1],e:[[0],[0],[0],[0],[0]]},{p:'anchorX',t:[0,1000],v:[0,-584.6],e:[[0],[0]]},{p:'anchorY',t:[0,1000],v:[0,-52.6],e:[[0],[0]]}],
"#_a11",[{p:'mpath',t:[0,1100],v:['0%','100%'],e:[[0],[0]],mp:"M7.4,4L703.3,56.3"},{p:'scaleX',t:[0,1100,1200,1300,1400],v:[0,0,1.2,.9,1],e:[[0],[0],[0],[0],[0]]},{p:'scaleY',t:[0,1100,1200,1300,1400],v:[0,0,1.2,.9,1],e:[[0],[0],[0],[0],[0]]},{p:'anchorX',t:[0,1100],v:[0,-694.4],e:[[0],[0]]},{p:'anchorY',t:[0,1100],v:[0,-53.1],e:[[0],[0]]}],
"#_a12",[{p:'mpath',t:[0,100,200,400,500,600,1000],v:['0%','7.2%','7.8%','8.8%','9.9%','11.1%','100%'],e:[[0],[0],[0],[0],[0],[0],[0]],mp:"M26,51.6L5,4.4L2,1.1L3,7.6L2,-0.3L10.6,-0.5L646.7,-6.4"},{p:'d',t:[0,100,200,400,500,600,700,800,900,1000,1100,1200,1300,1400,1500,1600],v:["path('M9.4,19.2C7.8,19.2,6.5,18.8,5.5,17.8C4.6,16.8,4.1,15.4,4,13.5C4,13.1,4,12.5,4,11.6C4,10.8,4,10.2,4,9.8C4.1,7.9,4.6,6.5,5.5,5.5C6.5,4.5,7.8,4,9.4,4C11,4,12.3,4.5,13.2,5.5C14.2,6.5,14.7,7.9,14.7,9.8C14.8,10.6,14.8,11.2,14.8,11.6C14.8,12.1,14.8,12.7,14.7,13.5C14.7,15.4,14.2,16.8,13.2,17.8C12.3,18.8,11,19.2,9.4,19.2ZM9.4,16.1C10,16.1,10.5,15.8,10.8,15.4C11.2,14.9,11.4,14.3,11.4,13.3C11.4,12.5,11.4,11.9,11.4,11.6C11.4,11.2,11.4,10.7,11.4,9.9C11.4,8.9,11.2,8.3,10.8,7.8C10.5,7.4,10,7.1,9.4,7.1C8.8,7.1,8.3,7.4,7.9,7.8C7.6,8.3,7.4,8.9,7.4,9.9C7.4,10.3,7.3,10.8,7.3,11.6C7.3,12.3,7.4,12.9,7.4,13.3C7.4,14.3,7.6,14.9,7.9,15.4C8.3,15.8,8.8,16.1,9.4,16.1Z')","path('M51.9,118.6C37.4,118.6,25.9,114.9,17.5,107.6C9.1,100.3,4.7,89.5,4.2,75.3C4.1,72.3,4,67.8,4,61.6C4,55.4,4.1,50.8,4.2,47.7C4.6,33.7,9,22.9,17.6,15.3C26.1,7.7,37.6,4,51.9,4C66.1,4,77.5,7.7,86,15.3C94.6,22.9,99,33.7,99.5,47.7C99.7,53.9,99.8,58.5,99.8,61.6C99.8,64.8,99.7,69.3,99.5,75.3C98.9,89.5,94.5,100.3,86.2,107.6C77.8,114.9,66.4,118.6,51.9,118.6ZM51.9,94.7C57.2,94.7,61.4,93,64.6,89.7C67.8,86.4,69.5,81.2,69.7,74.3C69.9,68.2,70,63.8,70,61.1C70,58.5,69.9,54.2,69.7,48.2C69.5,41.3,67.8,36.2,64.6,32.9C61.4,29.5,57.2,27.8,51.9,27.8C46.5,27.8,42.2,29.5,39,32.9C35.8,36.2,34.1,41.3,33.9,48.2C33.8,51.2,33.8,55.5,33.8,61.1C33.8,66.8,33.8,71.3,33.9,74.3C34.1,81.2,35.8,86.4,39,89.7C42.2,93,46.5,94.7,51.9,94.7Z')","path('M59.4,140.8C42.6,140.8,29.3,136.4,19.6,127.6C9.9,118.9,4.8,106,4.2,89.1C4.1,85.5,4,80.1,4,72.7C4,65.4,4.1,59.9,4.2,56.2C4.7,39.5,9.8,26.6,19.7,17.5C29.6,8.5,42.8,4,59.4,4C75.8,4,89,8.5,98.9,17.5C108.8,26.6,113.9,39.5,114.4,56.2C114.6,63.6,114.8,69.1,114.8,72.7C114.8,76.5,114.6,82,114.4,89.1C113.8,106,108.7,118.9,99.1,127.6C89.4,136.4,76.2,140.8,59.4,140.8ZM59.4,112.3C65.5,112.3,70.4,110.3,74.1,106.3C77.8,102.3,79.7,96.2,80,87.9C80.2,80.6,80.3,75.3,80.3,72.2C80.3,69,80.2,63.9,80,56.8C79.7,48.5,77.8,42.4,74.1,38.4C70.4,34.4,65.5,32.5,59.4,32.5C53.1,32.5,48.1,34.4,44.5,38.4C40.8,42.4,38.9,48.5,38.6,56.8C38.5,60.3,38.4,65.5,38.4,72.2C38.4,79,38.5,84.3,38.6,87.9C38.9,96.2,40.8,102.3,44.5,106.3C48.1,110.3,53.1,112.3,59.4,112.3Z')","path('M50.9,120.8C36.7,120.8,25.4,117,17.2,109.6C9,102.1,4.7,91.1,4.2,76.6C4.1,73.6,4,69,4,62.7C4,56.4,4.1,51.7,4.2,48.6C4.6,34.3,8.9,23.3,17.3,15.6C25.7,7.8,36.9,4,50.9,4C64.8,4,76,7.8,84.3,15.6C92.7,23.3,97.1,34.3,97.5,48.6C97.7,54.8,97.8,59.5,97.8,62.7C97.8,65.9,97.7,70.6,97.5,76.6C97,91.1,92.6,102.1,84.5,109.6C76.3,117,65.1,120.8,50.9,120.8ZM50.9,96.4C56.1,96.4,60.3,94.7,63.4,91.3C66.5,87.9,68.1,82.7,68.3,75.7C68.5,69.4,68.6,64.9,68.6,62.2C68.6,59.5,68.5,55.1,68.3,49.1C68.1,42,66.5,36.8,63.4,33.4C60.3,30,56.1,28.3,50.9,28.3C45.6,28.3,41.4,30,38.3,33.4C35.2,36.8,33.5,42,33.3,49.1C33.2,52.1,33.2,56.5,33.2,62.2C33.2,68,33.2,72.5,33.3,75.7C33.5,82.7,35.2,87.9,38.3,91.3C41.4,94.7,45.6,96.4,50.9,96.4Z')","path('M54.4,128.3C39.1,128.3,27,124.3,18.2,116.4C9.4,108.5,4.7,96.8,4.2,81.3C4.1,78.1,4,73.2,4,66.5C4,59.8,4.1,54.8,4.2,51.5C4.6,36.3,9.3,24.5,18.3,16.3C27.3,8.1,39.3,4,54.4,4C69.3,4,81.3,8.1,90.3,16.3C99.3,24.5,104,36.3,104.4,51.5C104.7,58.1,104.8,63.1,104.8,66.5C104.8,69.9,104.7,74.9,104.4,81.3C103.9,96.8,99.2,108.5,90.5,116.4C81.7,124.3,69.7,128.3,54.4,128.3ZM54.4,102.4C60,102.4,64.4,100.6,67.8,97C71.1,93.3,72.9,87.8,73.1,80.3C73.3,73.6,73.4,68.8,73.4,66C73.4,63.1,73.3,58.4,73.1,52C72.9,44.5,71.1,38.9,67.8,35.3C64.4,31.7,60,29.9,54.4,29.9C48.7,29.9,44.2,31.7,40.8,35.3C37.5,38.9,35.7,44.5,35.5,52C35.4,55.2,35.3,59.9,35.3,66C35.3,72.2,35.4,77,35.5,80.3C35.7,87.8,37.5,93.3,40.8,97C44.2,100.6,48.7,102.4,54.4,102.4Z')","path('M74.9,128.3C53.4,128.3,36.4,124.3,24,116.4C11.6,108.5,5,96.8,4.2,81.3C4.1,78.1,4,73.2,4,66.5C4,59.8,4.1,54.8,4.2,51.5C4.8,36.3,11.5,24.5,24.1,16.3C36.8,8.1,53.7,4,74.9,4C95.9,4,112.8,8.1,125.4,16.3C138.1,24.5,144.7,36.3,145.3,51.5C145.6,58.1,145.8,63.1,145.8,66.5C145.8,69.9,145.6,74.9,145.3,81.3C144.6,96.8,138,108.5,125.7,116.4C113.3,124.3,96.4,128.3,74.9,128.3ZM74.9,102.4C82.8,102.4,89,100.6,93.7,97C98.4,93.3,100.9,87.8,101.2,80.3C101.5,73.6,101.7,68.8,101.7,66C101.7,63.1,101.5,58.4,101.2,52C100.9,44.5,98.4,38.9,93.7,35.3C89,31.7,82.8,29.9,74.9,29.9C66.9,29.9,60.5,31.7,55.8,35.3C51.1,38.9,48.6,44.5,48.3,52C48.2,55.2,48.1,59.9,48.1,66C48.1,72.2,48.2,77,48.3,80.3C48.6,87.8,51.1,93.3,55.8,97C60.5,100.6,66.9,102.4,74.9,102.4Z')","path('M101.9,114.3C72.2,114.3,48.8,111,31.6,104.5C14.5,97.9,5.4,88.2,4.3,75.4C4.1,72.8,4,68.7,4,63.2C4,57.6,4.1,53.5,4.3,50.7C5.2,38.1,14.3,28.4,31.8,21.6C49.2,14.8,72.6,11.4,101.9,11.4C131,11.4,154.3,14.8,171.7,21.6C189.2,28.4,198.4,38.1,199.2,50.7C199.6,56.2,199.8,60.4,199.8,63.2C199.8,66,199.6,70.1,199.2,75.4C198.2,88.2,189.1,97.9,172.1,104.5C155,111,131.6,114.3,101.9,114.3ZM101.9,92.9C112.8,92.9,121.5,91.4,128,88.4C134.5,85.4,137.9,80.8,138.3,74.6C138.7,69.1,138.9,65.1,138.9,62.7C138.9,60.3,138.7,56.5,138.3,51.1C137.9,45,134.5,40.4,128,37.4C121.5,34.4,112.8,32.9,101.9,32.9C90.8,32.9,82,34.4,75.6,37.4C69.1,40.4,65.6,45,65.2,51.1C65,53.8,64.9,57.7,64.9,62.7C64.9,67.9,65,71.8,65.2,74.6C65.6,80.8,69.1,85.4,75.6,88.4C82,91.4,90.8,92.9,101.9,92.9Z')","path('M148,114.3C132.2,114.3,119.8,111,110.7,104.5C101.7,97.9,96.8,88.2,96.3,75.4C96.2,72.8,96.1,68.7,96.1,63.2C96.1,57.6,96.2,53.5,96.3,50.7C96.7,38.1,101.6,28.4,110.8,21.6C120.1,14.8,132.5,11.4,148,11.4C163.4,11.4,175.7,14.8,185,21.6C194.2,28.4,199.1,38.1,199.5,50.7C199.7,56.2,199.8,60.4,199.8,63.2C199.8,66,199.7,70.1,199.5,75.4C198.9,88.2,194.2,97.9,185.1,104.5C176.1,111,163.7,114.3,148,114.3ZM148,92.9C153.7,92.9,158.3,91.4,161.8,88.4C165.2,85.4,167,80.8,167.3,74.6C167.5,69.1,167.6,65.1,167.6,62.7C167.6,60.3,167.5,56.5,167.3,51.1C167,45,165.2,40.4,161.8,37.4C158.3,34.4,153.7,32.9,148,32.9C142.1,32.9,137.4,34.4,134,37.4C130.6,40.4,128.8,45,128.5,51.1C128.4,53.8,128.4,57.7,128.4,62.7C128.4,67.9,128.4,71.8,128.5,74.6C128.8,80.8,130.6,85.4,134,88.4C137.4,91.4,142.1,92.9,148,92.9Z')","path('M147.8,114.3C132,114.3,119.6,111,110.4,104.5C101.3,97.9,96.5,88.2,95.9,75.4C95.8,72.8,95.8,68.7,95.8,63.2C95.8,57.6,95.8,53.5,95.9,50.7C96.4,38.1,101.2,28.4,110.5,21.6C119.8,14.8,132.2,11.4,147.8,11.4C163.3,11.4,175.6,14.8,184.9,21.6C194.2,28.4,199.1,38.1,199.5,50.7C199.7,56.2,199.8,60.4,199.8,63.2C199.8,66,199.7,70.1,199.5,75.4C198.9,88.2,194.1,97.9,185.1,104.5C176,111,163.6,114.3,147.8,114.3ZM147.8,92.9C153.6,92.9,158.2,91.4,161.6,88.4C165.1,85.4,166.9,80.8,167.1,74.6C167.4,69.1,167.5,65.1,167.5,62.7C167.5,60.3,167.4,56.5,167.1,51.1C166.9,45,165.1,40.4,161.6,37.4C158.2,34.4,153.6,32.9,147.8,32.9C141.9,32.9,137.2,34.4,133.8,37.4C130.3,40.4,128.5,45,128.3,51.1C128.2,53.8,128.1,57.7,128.1,62.7C128.1,67.9,128.2,71.8,128.3,74.6C128.5,80.8,130.3,85.4,133.8,88.4C137.2,91.4,141.9,92.9,147.8,92.9Z')","path('M181.1,114.3C175.4,114.3,170.9,111,167.6,104.5C164.3,97.9,162.5,88.2,162.3,75.4C162.3,72.8,162.3,68.7,162.3,63.2C162.3,57.6,162.3,53.5,162.3,50.7C162.5,38.1,164.3,28.4,167.6,21.6C171,14.8,175.4,11.4,181.1,11.4C186.6,11.4,196.4,4.6,199.7,11.4C199.8,21.6,199.6,38.1,199.7,50.7C199.8,56.2,199.8,60.4,199.8,63.2C199.8,66,199.8,70.1,199.7,75.4C199.5,88.2,199.7,104.5,199.7,111.4C196.4,118,186.8,114.3,181.1,114.3ZM181.1,92.9C183.1,92.9,184.8,91.4,186,88.4C187.3,85.4,188,80.8,188,74.6C188.1,69.1,188.2,65.1,188.2,62.7C188.2,60.3,188.1,56.5,188,51.1C188,45,187.3,40.4,186,37.4C184.8,34.4,183.1,32.9,181.1,32.9C178.9,32.9,177.2,34.4,176,37.4C174.8,40.4,174.1,45,174,51.1C174,53.8,174,57.7,174,62.7C174,67.9,174,71.8,174,74.6C174.1,80.8,174.8,85.4,176,88.4C177.2,91.4,178.9,92.9,181.1,92.9Z')","path('M197.7,114.3C197,114.3,196.5,111,196.1,104.5C195.8,97.9,195.6,88.2,195.5,75.4C195.5,72.8,195.5,68.7,195.5,63.2C195.5,57.6,195.5,53.5,195.5,50.7C195.6,38.1,195.8,28.4,196.1,21.6C196.5,14.8,197,11.4,197.7,11.4C198.3,11.4,199.8,11.4,199.8,11.4C200.2,18.2,199.8,38.1,199.8,50.7C199.8,56.2,199.8,60.4,199.8,63.2C199.8,66,199.8,70.1,199.8,75.4C199.8,88.2,199.2,107.4,199.8,114.3C199.4,120.9,198.3,114.3,197.7,114.3ZM197.7,92.9C197.9,92.9,198.1,91.4,198.3,88.4C198.4,85.4,198.5,80.8,198.5,74.6C198.5,69.1,198.5,65.1,198.5,62.7C198.5,60.3,198.5,56.5,198.5,51.1C198.5,45,198.4,40.4,198.3,37.4C198.1,34.4,197.9,32.9,197.7,32.9C197.4,32.9,197.2,34.4,197.1,37.4C197,40.4,196.9,45,196.9,51.1C196.9,53.8,196.9,57.7,196.9,62.7C196.9,67.9,196.9,71.8,196.9,74.6C196.9,80.8,197,85.4,197.1,88.4C197.2,91.4,197.4,92.9,197.7,92.9Z')","path('M185.2,109.4C176.7,109.4,156.4,111,151.4,104.5C146.5,97.9,143.9,88.2,143.6,75.4C143.5,72.8,143.5,68.7,143.5,63.2C143.5,57.6,143.5,53.5,143.6,50.7C143.8,38.1,146.4,28.4,151.5,21.6C156.5,14.8,163.2,11.4,171.7,11.4C180,11.4,192.3,6.4,199.8,11.4C199.8,17.6,199.4,38.1,199.7,50.7C199.8,56.2,199.8,60.4,199.8,63.2C199.8,66,199.8,70.1,199.7,75.4C199.3,88.2,199.8,96.5,199.8,104.5C194.9,111,193.8,109.4,185.2,109.4ZM171.7,92.9C174.8,92.9,177.3,91.4,179.2,88.4C181,85.4,182,80.8,182.1,74.6C182.2,69.1,182.3,65.1,182.3,62.7C182.3,60.3,182.2,56.5,182.1,51.1C182,45,181,40.4,179.2,37.4C177.3,34.4,182.3,37.4,179.2,37.4C176,37.4,166.1,34.3,164.3,37.4C151.5,37.3,151.6,44.9,151.4,51.1C151.4,53.8,151.3,57.7,151.3,62.7C151.3,67.9,151.4,71.8,151.4,74.6C151.6,80.8,156.4,85.4,158.2,88.4C160.1,91.4,168.5,92.9,171.7,92.9Z')","path('M160,115.4C143.6,115.4,103.7,116,94.2,109.4C84.7,102.8,81.7,88.2,81.1,75.4C81,72.8,80.9,68.7,80.9,63.1C80.9,57.6,81,53.5,81.1,50.7C81.6,38.1,84.6,28.4,94.3,21.6C103.9,14.8,139,12.4,155.3,12.4C171.4,12.4,181.6,14.8,191.3,21.6C200.9,28.4,199,38.1,199.5,50.7C199.7,56.2,199.8,60.4,199.8,63.2C199.8,66,199.7,70.1,199.5,75.4C198.9,88.2,200.7,102.8,191.2,109.4C181.8,116,176.5,115.4,160,115.4ZM135.8,90.9C141.8,90.9,146.7,89.4,150.2,86.4C153.8,83.4,150,81.6,150.2,75.4C150.5,69.9,150.6,66,150.6,63.6C150.6,61.2,150.5,57.3,150.2,52C150,45.8,148.1,41.2,144.5,38.2C140.9,35.2,141.8,30.9,135.8,30.9C129.7,30.9,122.9,29.8,119.3,32.8C108.9,32.8,103.5,45.8,103.2,52C103.1,54.7,103.1,58.5,103.1,63.6C103.1,68.7,103.1,72.7,103.2,75.4C103.5,81.6,115.7,89.9,119.3,92.9C122.9,95.9,129.7,90.9,135.8,90.9Z')","path('M158.2,114.3C145.6,114.3,135.7,111,128.4,104.5C121.1,97.9,107.7,88.2,107.2,75.4C107.2,72.8,107.1,68.7,107.1,63.1C107.1,57.6,107.2,53.5,107.2,50.7C107.6,38.1,121,28.4,128.4,21.6C135.9,14.8,145.8,11.4,158.2,11.4C170.6,11.4,180.5,14.8,187.9,21.6C195.3,28.4,199.2,38.1,199.6,50.7C199.7,56.2,199.8,60.4,199.8,63.2C199.8,66,199.7,70.1,199.6,75.4C199.1,88.2,195.3,97.9,188,104.5C180.8,111,170.9,114.3,158.2,114.3ZM158.2,92.9C162.9,92.9,166.5,91.4,169.3,88.4C172.1,85.4,173.5,80.8,173.7,74.6C173.9,69.1,174,65.1,174,62.7C174,60.3,173.9,56.5,173.7,51.1C173.5,45,172.1,40.4,169.3,37.4C166.5,34.4,162.9,32.9,158.2,32.9C153.5,32.9,141,34.3,138.2,37.3C135.5,40.3,134,44.9,133.8,51.1C133.8,53.8,133.7,57.7,133.7,62.7C133.7,67.9,133.8,71.8,133.8,74.6C134,80.8,135.5,85.4,138.2,88.4C141,91.4,153.5,92.9,158.2,92.9Z')","path('M162.1,114.3C150.7,114.3,141.7,111,135.1,104.5C128.5,97.9,125,88.2,124.6,75.4C124.5,72.8,124.5,68.7,124.5,63.2C124.5,57.6,124.5,53.5,124.6,50.7C124.9,38.1,128.4,28.4,135.2,21.6C141.9,14.8,150.9,11.4,162.1,11.4C173.3,11.4,182.3,14.8,189,21.6C195.7,28.4,199.3,38.1,199.6,50.7C199.7,56.2,199.8,60.4,199.8,63.2C199.8,66,199.7,70.1,199.6,75.4C199.2,88.2,195.7,97.9,189.1,104.5C182.6,111,173.6,114.3,162.1,114.3ZM162.1,92.9C166.3,92.9,169.7,91.4,172.2,88.4C174.7,85.4,176,80.8,176.2,74.6C176.3,69.1,176.4,65.1,176.4,62.7C176.4,60.3,176.3,56.5,176.2,51.1C176,45,174.7,40.4,172.2,37.4C169.7,34.4,166.3,32.9,162.1,32.9C157.9,32.9,154.5,34.4,152,37.4C149.5,40.4,148.2,45,148,51.1C147.9,53.8,147.9,57.7,147.9,62.7C147.9,67.9,147.9,71.8,148,74.6C148.2,80.8,149.5,85.4,152,88.4C154.5,91.4,157.9,92.9,162.1,92.9Z')","path('M154,114.3C140.1,114.3,129.2,111,121.1,104.5C113.1,97.9,108.9,88.2,108.4,75.4C108.3,72.8,108.2,68.7,108.2,63.2C108.2,57.6,108.3,53.5,108.4,50.7C108.8,38.1,113.1,28.4,121.2,21.6C129.4,14.8,140.3,11.4,154,11.4C167.6,11.4,178.5,14.8,186.7,21.6C194.9,28.4,199.1,38.1,199.5,50.7C199.7,56.2,199.8,60.4,199.8,63.2C199.8,66,199.7,70.1,199.5,75.4C199,88.2,194.8,97.9,186.8,104.5C178.9,111,167.9,114.3,154,114.3ZM154,92.9C159.1,92.9,163.2,91.4,166.2,88.4C169.2,85.4,170.9,80.8,171.1,74.6C171.3,69.1,171.4,65.1,171.4,62.7C171.4,60.3,171.3,56.5,171.1,51.1C170.9,45,169.2,40.4,166.2,37.4C163.2,34.4,159.1,32.9,154,32.9C148.8,32.9,144.7,34.4,141.7,37.4C138.7,40.4,137.1,45,136.9,51.1C136.8,53.8,136.7,57.7,136.7,62.7C136.7,67.9,136.8,71.8,136.9,74.6C137.1,80.8,138.7,85.4,141.7,88.4C144.7,91.4,148.8,92.9,154,92.9Z')"],e:[[0],[0],[0],[0],[0],[0],[0],[0],[0],[0],[0],[0],[0],[0],[0],[0]]}],
{autoremove:false}).range(0,1600);
if(document.location.search.substr(1).split('&').indexOf('global=paused')>=0)ks.globalPause()})(KeyshapeJS);
]]></script></svg>