<svg xmlns="http://www.w3.org/2000/svg" width="100%" height="100%" viewBox="0 0 851 259" clip-rule="evenodd" fill-rule="evenodd" stroke-linejoin="round" stroke-miterlimit="2"><style>
@keyframes a0_o { 0% { opacity: 0; } 56.25% { opacity: 0; } 93.75% { opacity: 1; } 100% { opacity: 1; } }
@keyframes a1_o { 0% { opacity: 0; } 56.25% { opacity: 0; } 93.75% { opacity: 1; } 100% { opacity: 1; } }
@keyframes a2_o { 0% { opacity: 0; } 56.25% { opacity: 0; } 93.75% { opacity: 1; } 100% { opacity: 1; } }
@keyframes a3_o { 0% { opacity: 0; } 56.25% { opacity: 0; } 93.75% { opacity: 1; } 100% { opacity: 1; } }
@keyframes a4_o { 0% { opacity: 0; } 56.25% { opacity: 0; } 93.75% { opacity: 1; } 100% { opacity: 1; } }
@keyframes a5_t { 0% { transform: translate(7.4px,4px) scale(0,0) translate(0px,0px); } 31.25% { transform: translate(51.7px,50.4px) scale(0,0) translate(-46.1px,-52.6px); } 37.5% { transform: translate(51.7px,50.4px) scale(1.2,1.2) translate(-46.1px,-52.6px); } 43.75% { transform: translate(51.7px,50.4px) scale(.9,.9) translate(-46.1px,-52.6px); } 50% { transform: translate(51.7px,50.4px) scale(1,1) translate(-46.1px,-52.6px); } 100% { transform: translate(51.7px,50.4px) scale(1,1) translate(-46.1px,-52.6px); } }
@keyframes a5_o { 0% { opacity: 1; } 100% { opacity: 1; } }
@keyframes a6_t { 0% { transform: translate(7.4px,4px) scale(0,0) translate(0px,0px); } 37.5% { transform: translate(150.3px,49.5px) scale(0,0) translate(-152.2px,-53px); } 43.75% { transform: translate(150.3px,49.5px) scale(1.2,1.2) translate(-152.2px,-53px); } 50% { transform: translate(150.3px,49.5px) scale(.9,.9) translate(-152.2px,-53px); } 56.25% { transform: translate(150.3px,49.5px) scale(1,1) translate(-152.2px,-53px); } 100% { transform: translate(150.3px,49.5px) scale(1,1) translate(-152.2px,-53px); } }
@keyframes a6_o { 0% { opacity: 1; } 100% { opacity: 1; } }
@keyframes a7_t { 0% { transform: translate(7.4px,4px) scale(0,0) translate(0px,0px); } 43.75% { transform: translate(257.4px,49.5px) scale(0,0) translate(-261.9px,-52.6px); } 50% { transform: translate(257.4px,49.5px) scale(1.2,1.2) translate(-261.9px,-52.6px); } 56.25% { transform: translate(257.4px,49.5px) scale(.9,.9) translate(-261.9px,-52.6px); } 62.5% { transform: translate(257.4px,49.5px) scale(1,1) translate(-261.9px,-52.6px); } 100% { transform: translate(257.4px,49.5px) scale(1,1) translate(-261.9px,-52.6px); } }
@keyframes a7_o { 0% { opacity: 1; } 100% { opacity: 1; } }
@keyframes a8_t { 0% { transform: translate(7.4px,4px) scale(0,0) translate(0px,0px); } 50% { transform: translate(362.9px,53.4px) scale(0,0) translate(-368.5px,-52.9px); } 56.25% { transform: translate(362.9px,53.4px) scale(1.2,1.2) translate(-368.5px,-52.9px); } 62.5% { transform: translate(362.9px,53.4px) scale(.9,.9) translate(-368.5px,-52.9px); } 68.75% { transform: translate(362.9px,53.4px) scale(1,1) translate(-368.5px,-52.9px); } 100% { transform: translate(362.9px,53.4px) scale(1,1) translate(-368.5px,-52.9px); } }
@keyframes a8_o { 0% { opacity: 1; } 100% { opacity: 1; } }
@keyframes a9_t { 0% { transform: translate(7.4px,4px) scale(0,0) translate(0px,0px); } 56.25% { transform: translate(468.7px,54.3px) scale(0,0) translate(-475px,-53px); } 62.5% { transform: translate(468.7px,54.3px) scale(1.2,1.2) translate(-475px,-53px); } 68.75% { transform: translate(468.7px,54.3px) scale(.9,.9) translate(-475px,-53px); } 75% { transform: translate(468.7px,54.3px) scale(1,1) translate(-475px,-53px); } 100% { transform: translate(468.7px,54.3px) scale(1,1) translate(-475px,-53px); } }
@keyframes a9_o { 0% { opacity: 1; } 100% { opacity: 1; } }
@keyframes a10_t { 0% { transform: translate(7.4px,4px) scale(0,0) translate(0px,0px); } 62.5% { transform: translate(584.2px,54.3px) scale(0,0) translate(-584.6px,-52.6px); } 68.75% { transform: translate(584.2px,54.3px) scale(1.2,1.2) translate(-584.6px,-52.6px); } 75% { transform: translate(584.2px,54.3px) scale(.9,.9) translate(-584.6px,-52.6px); } 81.25% { transform: translate(584.2px,54.3px) scale(1,1) translate(-584.6px,-52.6px); } 100% { transform: translate(584.2px,54.3px) scale(1,1) translate(-584.6px,-52.6px); } }
@keyframes a10_o { 0% { opacity: 1; } 100% { opacity: 1; } }
@keyframes a11_t { 0% { transform: translate(7.4px,4px) scale(0,0) translate(0px,0px); } 68.75% { transform: translate(703.3px,56.3px) scale(0,0) translate(-694.4px,-53.1px); } 75% { transform: translate(703.3px,56.3px) scale(1.2,1.2) translate(-694.4px,-53.1px); } 81.25% { transform: translate(703.3px,56.3px) scale(.9,.9) translate(-694.4px,-53.1px); } 87.5% { transform: translate(703.3px,56.3px) scale(1,1) translate(-694.4px,-53.1px); } 100% { transform: translate(703.3px,56.3px) scale(1,1) translate(-694.4px,-53.1px); } }
@keyframes a11_o { 0% { opacity: 1; } 100% { opacity: 1; } }
@keyframes a12_t { 0% { transform: translate(26px,51.6px) rotate(0deg); } 6.25% { transform: translate(5px,4.4px) rotate(0deg); } 12.5% { transform: translate(2px,1.1px) rotate(0deg); } 25% { transform: translate(3px,7.6px) rotate(0deg); } 31.25% { transform: translate(2px,-0.3px) rotate(0deg); } 37.5% { transform: translate(10.6px,-0.5px) rotate(0deg); } 62.5% { transform: translate(646.7px,-6.4px) rotate(0deg); } 100% { transform: translate(646.7px,-6.4px) rotate(0deg); } }
@keyframes a12_d { 0% { d: path('M9.4 19.2c-1.6 0-2.9-0.4-3.9-1.4c-0.9-1-1.4-2.4-1.5-4.3c0-0.4 0-1 0-1.9c0-0.8 0-1.4 0-1.8c.1-1.9 .6-3.3 1.5-4.3c1-1 2.3-1.5 3.9-1.5c1.6 0 2.9 .5 3.8 1.5c1 1 1.5 2.4 1.5 4.3c.1 .8 .1 1.4 .1 1.8c0 .5 0 1.1-0.1 1.9c0 1.9-0.5 3.3-1.5 4.3c-0.9 1-2.2 1.4-3.8 1.4Zm0-3.1c.6 0 1.1-0.3 1.4-0.7c.4-0.5 .6-1.1 .6-2.1c0-0.8 0-1.4 0-1.7c0-0.4 0-0.9 0-1.7c0-1-0.2-1.6-0.6-2.1c-0.3-0.4-0.8-0.7-1.4-0.7c-0.6 0-1.1 .3-1.5 .7c-0.3 .5-0.5 1.1-0.5 2.1c0 .4-0.1 .9-0.1 1.7c0 .7 .1 1.3 .1 1.7c0 1 .2 1.6 .5 2.1c.4 .4 .9 .7 1.5 .7Z'); } 6.25% { d: path('M51.9 118.6c-14.5 0-26-3.7-34.4-11c-8.4-7.3-12.8-18.1-13.3-32.3c-0.1-3-0.2-7.5-0.2-13.7c0-6.2 .1-10.8 .2-13.9c.4-14 4.8-24.8 13.4-32.4c8.5-7.6 20-11.3 34.3-11.3c14.2 0 25.6 3.7 34.1 11.3c8.6 7.6 13 18.4 13.5 32.4c.2 6.2 .3 10.8 .3 13.9c0 3.2-0.1 7.7-0.3 13.7c-0.6 14.2-5 25-13.3 32.3c-8.4 7.3-19.8 11-34.3 11Zm0-23.9c5.3 0 9.5-1.7 12.7-5c3.2-3.3 4.9-8.5 5.1-15.4c.2-6.1 .3-10.5 .3-13.2c0-2.6-0.1-6.9-0.3-12.9c-0.2-6.9-1.9-12-5.1-15.3c-3.2-3.4-7.4-5.1-12.7-5.1c-5.4 0-9.7 1.7-12.9 5.1c-3.2 3.3-4.9 8.4-5.1 15.3c-0.1 3-0.1 7.3-0.1 12.9c0 5.7 0 10.2 .1 13.2c.2 6.9 1.9 12.1 5.1 15.4c3.2 3.3 7.5 5 12.9 5Z'); } 12.5% { d: path('M59.4 140.8c-16.8 0-30.1-4.4-39.8-13.2c-9.7-8.7-14.8-21.6-15.4-38.5c-0.1-3.6-0.2-9-0.2-16.4c0-7.3 .1-12.8 .2-16.5c.5-16.7 5.6-29.6 15.5-38.7c9.9-9 23.1-13.5 39.7-13.5c16.4 0 29.6 4.5 39.5 13.5c9.9 9.1 15 22 15.5 38.7c.2 7.4 .4 12.9 .4 16.5c0 3.8-0.2 9.3-0.4 16.4c-0.6 16.9-5.7 29.8-15.3 38.5c-9.7 8.8-22.9 13.2-39.7 13.2Zm0-28.5c6.1 0 11-2 14.7-6c3.7-4 5.6-10.1 5.9-18.4c.2-7.3 .3-12.6 .3-15.7c0-3.2-0.1-8.3-0.3-15.4c-0.3-8.3-2.2-14.4-5.9-18.4c-3.7-4-8.6-5.9-14.7-5.9c-6.3 0-11.3 1.9-14.9 5.9c-3.7 4-5.6 10.1-5.9 18.4c-0.1 3.5-0.2 8.7-0.2 15.4c0 6.8 .1 12.1 .2 15.7c.3 8.3 2.2 14.4 5.9 18.4c3.6 4 8.6 6 14.9 6Z'); } 25% { d: path('M50.9 120.8c-14.2 0-25.5-3.8-33.7-11.2c-8.2-7.5-12.5-18.5-13-33c-0.1-3-0.2-7.6-0.2-13.9c0-6.3 .1-11 .2-14.1c.4-14.3 4.7-25.3 13.1-33c8.4-7.8 19.6-11.6 33.6-11.6c13.9 0 25.1 3.8 33.4 11.6c8.4 7.7 12.8 18.7 13.2 33c.2 6.2 .3 10.9 .3 14.1c0 3.2-0.1 7.9-0.3 13.9c-0.5 14.5-4.9 25.5-13 33c-8.2 7.4-19.4 11.2-33.6 11.2Zm0-24.4c5.2 0 9.4-1.7 12.5-5.1c3.1-3.4 4.7-8.6 4.9-15.6c.2-6.3 .3-10.8 .3-13.5c0-2.7-0.1-7.1-0.3-13.1c-0.2-7.1-1.8-12.3-4.9-15.7c-3.1-3.4-7.3-5.1-12.5-5.1c-5.3 0-9.5 1.7-12.6 5.1c-3.1 3.4-4.8 8.6-5 15.7c-0.1 3-0.1 7.4-0.1 13.1c0 5.8 0 10.3 .1 13.5c.2 7 1.9 12.2 5 15.6c3.1 3.4 7.3 5.1 12.6 5.1Z'); } 31.25% { d: path('M54.4 128.3c-15.3 0-27.4-4-36.2-11.9c-8.8-7.9-13.5-19.6-14-35.1c-0.1-3.2-0.2-8.1-0.2-14.8c0-6.7 .1-11.7 .2-15c.4-15.2 5.1-27 14.1-35.2c9-8.2 21-12.3 36.1-12.3c14.9 0 26.9 4.1 35.9 12.3c9 8.2 13.7 20 14.1 35.2c.3 6.6 .4 11.6 .4 15c0 3.4-0.1 8.4-0.4 14.8c-0.5 15.5-5.2 27.2-13.9 35.1c-8.8 7.9-20.8 11.9-36.1 11.9Zm0-25.9c5.6 0 10-1.8 13.4-5.4c3.3-3.7 5.1-9.2 5.3-16.7c.2-6.7 .3-11.5 .3-14.3c0-2.9-0.1-7.6-0.3-14c-0.2-7.5-2-13.1-5.3-16.7c-3.4-3.6-7.8-5.4-13.4-5.4c-5.7 0-10.2 1.8-13.6 5.4c-3.3 3.6-5.1 9.2-5.3 16.7c-0.1 3.2-0.2 7.9-0.2 14c0 6.2 .1 11 .2 14.3c.2 7.5 2 13 5.3 16.7c3.4 3.6 7.9 5.4 13.6 5.4Z'); } 37.5% { d: path('M74.9 128.3c-21.5 0-38.5-4-50.9-11.9c-12.4-7.9-19-19.6-19.8-35.1c-0.1-3.2-0.2-8.1-0.2-14.8c0-6.7 .1-11.7 .2-15c.6-15.2 7.3-27 19.9-35.2c12.7-8.2 29.6-12.3 50.8-12.3c21 0 37.9 4.1 50.5 12.3c12.7 8.2 19.3 20 19.9 35.2c.3 6.6 .5 11.6 .5 15c0 3.4-0.2 8.4-0.5 14.8c-0.7 15.5-7.3 27.2-19.6 35.1c-12.4 7.9-29.3 11.9-50.8 11.9Zm0-25.9c7.9 0 14.1-1.8 18.8-5.4c4.7-3.7 7.2-9.2 7.5-16.7c.3-6.7 .5-11.5 .5-14.3c0-2.9-0.2-7.6-0.5-14c-0.3-7.5-2.8-13.1-7.5-16.7c-4.7-3.6-10.9-5.4-18.8-5.4c-8 0-14.4 1.8-19.1 5.4c-4.7 3.6-7.2 9.2-7.5 16.7c-0.1 3.2-0.2 7.9-0.2 14c0 6.2 .1 11 .2 14.3c.3 7.5 2.8 13 7.5 16.7c4.7 3.6 11.1 5.4 19.1 5.4Z'); } 43.75% { d: path('M101.9 114.3c-29.7 0-53.1-3.3-70.3-9.8c-17.1-6.6-26.2-16.3-27.3-29.1c-0.2-2.6-0.3-6.7-0.3-12.2c0-5.6 .1-9.7 .3-12.5c.9-12.6 10-22.3 27.5-29.1c17.4-6.8 40.8-10.2 70.1-10.2c29.1 0 52.4 3.4 69.8 10.2c17.5 6.8 26.7 16.5 27.5 29.1c.4 5.5 .6 9.7 .6 12.5c0 2.8-0.2 6.9-0.6 12.2c-1 12.8-10.1 22.5-27.1 29.1c-17.1 6.5-40.5 9.8-70.2 9.8Zm0-21.4c10.9 0 19.6-1.5 26.1-4.5c6.5-3 9.9-7.6 10.3-13.8c.4-5.5 .6-9.5 .6-11.9c0-2.4-0.2-6.2-0.6-11.6c-0.4-6.1-3.8-10.7-10.3-13.7c-6.5-3-15.2-4.5-26.1-4.5c-11.1 0-19.9 1.5-26.3 4.5c-6.5 3-10 7.6-10.4 13.7c-0.2 2.7-0.3 6.6-0.3 11.6c0 5.2 .1 9.1 .3 11.9c.4 6.2 3.9 10.8 10.4 13.8c6.4 3 15.2 4.5 26.3 4.5Z'); } 50% { d: path('M148 114.3c-15.8 0-28.2-3.3-37.3-9.8c-9-6.6-13.9-16.3-14.4-29.1c-0.1-2.6-0.2-6.7-0.2-12.2c0-5.6 .1-9.7 .2-12.5c.4-12.6 5.3-22.3 14.5-29.1c9.3-6.8 21.7-10.2 37.2-10.2c15.4 0 27.7 3.4 37 10.2c9.2 6.8 14.1 16.5 14.5 29.1c.2 5.5 .3 9.7 .3 12.5c0 2.8-0.1 6.9-0.3 12.2c-0.6 12.8-5.3 22.5-14.4 29.1c-9 6.5-21.4 9.8-37.1 9.8Zm0-21.4c5.7 0 10.3-1.5 13.8-4.5c3.4-3 5.2-7.6 5.5-13.8c.2-5.5 .3-9.5 .3-11.9c0-2.4-0.1-6.2-0.3-11.6c-0.3-6.1-2.1-10.7-5.5-13.7c-3.5-3-8.1-4.5-13.8-4.5c-5.9 0-10.6 1.5-14 4.5c-3.4 3-5.2 7.6-5.5 13.7c-0.1 2.7-0.1 6.6-0.1 11.6c0 5.2 0 9.1 .1 11.9c.3 6.2 2.1 10.8 5.5 13.8c3.4 3 8.1 4.5 14 4.5Z'); } 56.25% { d: path('M147.8 114.3c-15.8 0-28.2-3.3-37.4-9.8c-9.1-6.6-13.9-16.3-14.5-29.1c-0.1-2.6-0.1-6.7-0.1-12.2c0-5.6 0-9.7 .1-12.5c.5-12.6 5.3-22.3 14.6-29.1c9.3-6.8 21.7-10.2 37.3-10.2c15.5 0 27.8 3.4 37.1 10.2c9.3 6.8 14.2 16.5 14.6 29.1c.2 5.5 .3 9.7 .3 12.5c0 2.8-0.1 6.9-0.3 12.2c-0.6 12.8-5.4 22.5-14.4 29.1c-9.1 6.5-21.5 9.8-37.3 9.8Zm0-21.4c5.8 0 10.4-1.5 13.8-4.5c3.5-3 5.3-7.6 5.5-13.8c.3-5.5 .4-9.5 .4-11.9c0-2.4-0.1-6.2-0.4-11.6c-0.2-6.1-2-10.7-5.5-13.7c-3.4-3-8-4.5-13.8-4.5c-5.9 0-10.6 1.5-14 4.5c-3.5 3-5.3 7.6-5.5 13.7c-0.1 2.7-0.2 6.6-0.2 11.6c0 5.2 .1 9.1 .2 11.9c.2 6.2 2 10.8 5.5 13.8c3.4 3 8.1 4.5 14 4.5Z'); } 62.5% { d: path('M181.1 114.3c-5.7 0-10.2-3.3-13.5-9.8c-3.3-6.6-5.1-16.3-5.3-29.1c0-2.6 0-6.7 0-12.2c0-5.6 0-9.7 0-12.5c.2-12.6 2-22.3 5.3-29.1c3.4-6.8 7.8-10.2 13.5-10.2c5.5 0 15.3-6.8 18.6 0c.1 10.2-0.1 26.7 0 39.3c.1 5.5 .1 9.7 .1 12.5c0 2.8 0 6.9-0.1 12.2c-0.2 12.8 0 29.1 0 36c-3.3 6.6-12.9 2.9-18.6 2.9Zm0-21.4c2 0 3.7-1.5 4.9-4.5c1.3-3 2-7.6 2-13.8c.1-5.5 .2-9.5 .2-11.9c0-2.4-0.1-6.2-0.2-11.6c0-6.1-0.7-10.7-2-13.7c-1.2-3-2.9-4.5-4.9-4.5c-2.2 0-3.9 1.5-5.1 4.5c-1.2 3-1.9 7.6-2 13.7c0 2.7 0 6.6 0 11.6c0 5.2 0 9.1 0 11.9c.1 6.2 .8 10.8 2 13.8c1.2 3 2.9 4.5 5.1 4.5Z'); } 68.75% { d: path('M197.7 114.3c-0.7 0-1.2-3.3-1.6-9.8c-0.3-6.6-0.5-16.3-0.6-29.1c0-2.6 0-6.7 0-12.2c0-5.6 0-9.7 0-12.5c.1-12.6 .3-22.3 .6-29.1c.4-6.8 .9-10.2 1.6-10.2c.6 0 2.1 0 2.1 0c.4 6.8 0 26.7 0 39.3c0 5.5 0 9.7 0 12.5c0 2.8 0 6.9 0 12.2c0 12.8-0.6 32 0 38.9c-0.4 6.6-1.5 0-2.1 0Zm0-21.4c.2 0 .4-1.5 .6-4.5c.1-3 .2-7.6 .2-13.8c0-5.5 0-9.5 0-11.9c0-2.4 0-6.2 0-11.6c0-6.1-0.1-10.7-0.2-13.7c-0.2-3-0.4-4.5-0.6-4.5c-0.3 0-0.5 1.5-0.6 4.5c-0.1 3-0.2 7.6-0.2 13.7c0 2.7 0 6.6 0 11.6c0 5.2 0 9.1 0 11.9c0 6.2 .1 10.8 .2 13.8c.1 3 .3 4.5 .6 4.5Z'); } 75% { d: path('M185.2 109.4c-8.5 0-28.8 1.6-33.8-4.9c-4.9-6.6-7.5-16.3-7.8-29.1c-0.1-2.6-0.1-6.7-0.1-12.2c0-5.6 0-9.7 .1-12.5c.2-12.6 2.8-22.3 7.9-29.1c5-6.8 11.7-10.2 20.2-10.2c8.3 0 20.6-5 28.1 0c0 6.2-0.4 26.7-0.1 39.3c.1 5.5 .1 9.7 .1 12.5c0 2.8 0 6.9-0.1 12.2c-0.4 12.8 .1 21.1 .1 29.1c-4.9 6.5-6 4.9-14.6 4.9Zm-13.5-16.5c3.1 0 5.6-1.5 7.5-4.5c1.8-3 2.8-7.6 2.9-13.8c.2-5.5 .2-9.5 .2-11.9c0-2.4 0-6.2-0.2-11.6c-0.1-6.1-1.1-10.7-2.9-13.7c-1.9-3 3.1 0 0 0c-3.2 0-13.1-3.1-14.9 0c-12.8-0.1-12.7 7.5-12.9 13.7c0 2.7-0.1 6.6-0.1 11.6c0 5.2 .1 9.1 .1 11.9c.2 6.2 5 10.8 6.8 13.8c1.9 3 10.3 4.5 13.5 4.5Z'); } 81.25% { d: path('M160 115.4c-16.4 0-56.3 .6-65.8-6c-9.5-6.6-12.5-21.2-13.1-34c-0.1-2.6-0.2-6.7-0.2-12.3c0-5.5 .1-9.6 .2-12.4c.5-12.6 3.5-22.3 13.2-29.1c9.6-6.8 44.7-9.2 61-9.2c16.1 0 26.3 2.4 36 9.2c9.6 6.8 7.7 16.5 8.2 29.1c.2 5.5 .3 9.7 .3 12.5c0 2.8-0.1 6.9-0.3 12.2c-0.6 12.8 1.2 27.4-8.3 34c-9.4 6.6-14.7 6-31.2 6Zm-24.2-24.5c6 0 10.8-1.5 14.4-4.5c3.6-3-0.2-4.8 0-11c.3-5.5 .4-9.4 .4-11.8c0-2.4-0.1-6.3-0.4-11.6c-0.2-6.2-2.1-10.8-5.7-13.8c-3.6-3-2.7-7.3-8.7-7.3c-6.1 0-12.9-1.1-16.5 1.9c-10.4 0-15.8 13-16.1 19.2c-0.1 2.7-0.1 6.5-0.1 11.6c0 5.1 0 9.1 .1 11.8c.3 6.2 12.5 14.5 16.1 17.5c3.6 3 10.4-2 16.5-2Z'); } 87.5% { d: path('M158.2 114.3c-12.6 0-22.5-3.3-29.8-9.8c-7.3-6.6-20.7-16.3-21.2-29.1c0-2.6-0.1-6.7-0.1-12.3c0-5.5 .1-9.6 .1-12.4c.4-12.6 13.8-22.3 21.2-29.1c7.5-6.8 17.4-10.2 29.8-10.2c12.4 0 22.3 3.4 29.7 10.2c7.4 6.8 11.3 16.5 11.7 29.1c.1 5.5 .2 9.7 .2 12.5c0 2.8-0.1 6.9-0.2 12.2c-0.5 12.8-4.3 22.5-11.6 29.1c-7.2 6.5-17.1 9.8-29.8 9.8Zm0-21.4c4.7 0 8.3-1.5 11.1-4.5c2.8-3 4.2-7.6 4.4-13.8c.2-5.5 .3-9.5 .3-11.9c0-2.4-0.1-6.2-0.3-11.6c-0.2-6.1-1.6-10.7-4.4-13.7c-2.8-3-6.4-4.5-11.1-4.5c-4.7 0-17.2 1.4-20 4.4c-2.7 3-4.2 7.6-4.4 13.8c0 2.7-0.1 6.6-0.1 11.6c0 5.2 .1 9.1 .1 11.9c.2 6.2 1.7 10.8 4.4 13.8c2.8 3 15.3 4.5 20 4.5Z'); } 93.75% { d: path('M162.1 114.3c-11.4 0-20.4-3.3-27-9.8c-6.6-6.6-10.1-16.3-10.5-29.1c-0.1-2.6-0.1-6.7-0.1-12.2c0-5.6 0-9.7 .1-12.5c.3-12.6 3.8-22.3 10.6-29.1c6.7-6.8 15.7-10.2 26.9-10.2c11.2 0 20.2 3.4 26.9 10.2c6.7 6.8 10.3 16.5 10.6 29.1c.1 5.5 .2 9.7 .2 12.5c0 2.8-0.1 6.9-0.2 12.2c-0.4 12.8-3.9 22.5-10.5 29.1c-6.5 6.5-15.5 9.8-27 9.8Zm0-21.4c4.2 0 7.6-1.5 10.1-4.5c2.5-3 3.8-7.6 4-13.8c.1-5.5 .2-9.5 .2-11.9c0-2.4-0.1-6.2-0.2-11.6c-0.2-6.1-1.5-10.7-4-13.7c-2.5-3-5.9-4.5-10.1-4.5c-4.2 0-7.6 1.5-10.1 4.5c-2.5 3-3.8 7.6-4 13.7c-0.1 2.7-0.1 6.6-0.1 11.6c0 5.2 0 9.1 .1 11.9c.2 6.2 1.5 10.8 4 13.8c2.5 3 5.9 4.5 10.1 4.5Z'); } 100% { d: path('M154 114.3c-13.9 0-24.8-3.3-32.9-9.8c-8-6.6-12.2-16.3-12.7-29.1c-0.1-2.6-0.2-6.7-0.2-12.2c0-5.6 .1-9.7 .2-12.5c.4-12.6 4.7-22.3 12.8-29.1c8.2-6.8 19.1-10.2 32.8-10.2c13.6 0 24.5 3.4 32.7 10.2c8.2 6.8 12.4 16.5 12.8 29.1c.2 5.5 .3 9.7 .3 12.5c0 2.8-0.1 6.9-0.3 12.2c-0.5 12.8-4.7 22.5-12.7 29.1c-7.9 6.5-18.9 9.8-32.8 9.8Zm0-21.4c5.1 0 9.2-1.5 12.2-4.5c3-3 4.7-7.6 4.9-13.8c.2-5.5 .3-9.5 .3-11.9c0-2.4-0.1-6.2-0.3-11.6c-0.2-6.1-1.9-10.7-4.9-13.7c-3-3-7.1-4.5-12.2-4.5c-5.2 0-9.3 1.5-12.3 4.5c-3 3-4.6 7.6-4.8 13.7c-0.1 2.7-0.2 6.6-0.2 11.6c0 5.2 .1 9.1 .2 11.9c.2 6.2 1.8 10.8 4.8 13.8c3 3 7.1 4.5 12.3 4.5Z'); } }
</style><path d="M181.5 209.2c0-1.8 0-4.1-0.1-6.8c-0.1-2.7-0.1-6-0.1-9.7c0-3.9 0-7.2 .1-9.9c.1-2.7 .1-5 .1-6.8c.4-8.3 2.2-15.5 5.3-21.6c3.2-6 7.5-10.9 12.8-14.8c5.4-3.9 11.6-6.7 18.8-8.5c7.1-1.8 14.7-2.8 22.9-2.8c4.7 0 9.5 .4 14.5 1c5 .7 9.8 1.8 14.4 3.4c4.7 1.6 9 3.6 13.1 6.2c4.1 2.5 7.6 5.6 10.5 9.4c4.9 5.8 7.3 11.8 7.5 17.9c0 1.1-0.4 2-1.2 2.7c-1 .9-2 1.3-3 1.3h-29.5c-1 0-2-0.2-3-0.7c-0.6-0.5-1.3-1.1-1.9-1.8c-1.9-4.5-4.7-7.7-8.4-9.5c-3.7-1.9-8-2.9-13-2.9c-14.7 0-22.3 7.2-22.9 21.6c0 1.7-0.1 3.8-0.1 6.4c-0.1 2.6-0.1 5.7-0.1 9.2c0 3.5 0 6.6 .1 9.1c0 2.6 .1 4.8 .1 6.7c.3 7.6 2.4 13.3 6.3 17.1c3.8 3.8 10.4 5.7 19.8 5.7c3.1 0 5.6-0.1 7.5-0.4c1.9-0.2 3.5-0.5 4.9-1c1.3-0.4 2.5-0.9 3.5-1.6c1-0.7 2-1.4 3-2.3c2.8-2.3 4.7-5.2 5.6-8.8c.5-2 1.3-3.6 2.5-4.8c1.1-1.3 2.4-2.3 3.7-3.1c1.3-0.8 2.6-1.4 3.9-1.7c1.3-0.4 2.4-0.6 3.3-0.6h-33.9c-1.2 0-2.4-0.5-3.4-1.4c-1-1-1.5-2.1-1.5-3.3v-3.1c0-1.9 .4-3.8 1.1-5.7c.8-1.9 1.9-3.6 3.3-5.1c1.4-1.5 3.1-2.7 5.1-3.6c2.1-0.9 4.4-1.3 7.1-1.3h28.3c4.7 0 8.1 1.1 10.2 3.5c2.1 2.3 3.1 5.5 3.1 9.5v12.7c0 8.6-1.6 15.9-4.8 22.1c-3.3 6.2-7.7 11.2-13.2 15.2c-5.6 4-12 7-19.3 8.9c-7.3 1.9-15.1 2.9-23.2 2.9c-8.4 0-16.2-1-23.3-2.9c-7.2-1.9-13.4-4.9-18.6-8.9c-5.3-4-9.5-9-12.7-15.2c-3.1-6.2-4.8-13.5-5.2-21.9Z" fill="#e5c9d9" fill-rule="nonzero" opacity="0" style="animation: 1.6s linear both a0_o;"/><path d="M313.1 255.2c-0.8-1-1.1-1.9-1.1-2.7c0-0.9 0-1.4 .2-1.7l44.3-115.6c1.4-3.5 3.9-5.2 7.6-5.2h29.6c3.7 0 6.3 1.7 7.7 5.2l44.3 115.6c.1 .3 .2 .8 .2 1.7c0 .9-0.4 1.8-1.3 2.6c-0.8 .8-1.7 1.2-2.7 1.2h-24.7c-3.2 0-5.3-1.3-6.5-4l-9.9-25.6c-4.6 1.7-9.2 3.1-13.9 4.2c-4.8 1.1-9.3 1.9-13.7 2.5c-4.4 .5-8.5 .9-12.3 1c-3.8 .2-7.2 .3-10 .3h-4.5c-1.2 0-2.1 0-2.7-0.2c2.3 .4 4.2 1.6 5.6 3.7c1.5 2 1.6 4.4 .5 7.2l-2.7 6.9c-1.1 2.7-3.3 4-6.5 4h-24.6c-0.9 0-1.9-0.4-2.9-1.1Zm48.5-46.4c3.6-0.2 7.3-0.7 11.1-1.3c3.3-0.4 6.8-1.1 10.4-2c3.7-1 7.1-2.3 10.4-3.9l-14.7-39.9l-17.2 47.1Z" fill="#e5c9d9" fill-rule="nonzero" opacity="0" style="animation: 1.6s linear both a1_o;"/><path d="M589 130.2c1.4 0 2.5 .4 3.4 1.1c.9 .8 1.3 1.9 1.3 3.4v117.2c0 1.4-0.4 2.4-1.3 3.1c-0.9 .9-2 1.3-3.4 1.3h-24.3c-1.3 0-2.4-0.5-3.3-1.4c-1-0.9-1.5-1.9-1.5-3v-61.9c0-0.6-0.3-0.9-0.9-0.9c-0.4 0-0.7 .1-1 .3l-18.5 32.5c-1.7 2.7-3.9 4.1-6.7 4.1h-10.3c-2.7 0-4.9-1.4-6.7-4.1l-18.3-32.3c-0.3-0.4-0.6-0.5-1-0.5c-0.6 0-0.9 .3-0.9 .9v61.9c0 1.2-0.6 2.3-1.6 3.1c-0.9 .9-2 1.3-3.4 1.3h-24.1c-1.4 0-2.5-0.4-3.4-1.3c-0.9-0.7-1.4-1.7-1.4-3.1v-106.7c0-2.5 .6-4.8 1.8-6.7c1.1-1.9 2.5-3.5 4.2-4.7c1.6-1.2 3.3-2.1 5.1-2.7c1.8-0.6 3.3-0.9 4.6-0.9h10.7c3.1 0 5.4 1.2 6.9 3.8l31.7 54.1c.1 .4 .4 .6 .9 .6c.4 0 .7-0.2 1-0.6l31.9-54.1c1.5-2.6 3.8-3.8 6.9-3.8h21.6Z" fill="#e5c9d9" fill-rule="nonzero" opacity="0" style="animation: 1.6s linear both a2_o;"/><path d="M619.9 251.4v-106c0-4.6 1.7-8.4 5-11.3c3.3-3 7.2-4.5 11.6-4.5h78c1.4 0 2.6 .5 3.5 1.4c1 .9 1.4 2 1.4 3.3v18c0 1.3-0.4 2.3-1.3 3c-0.9 .9-2.1 1.3-3.6 1.3h-70.5c3 0 5.6 1 7.5 3.1c2 2.1 3 4.3 3 6.7v7.6c0 1.3 .5 2.6 1.4 3.8c1 1.2 2.4 1.8 4.3 1.8h41.7c1.4 0 2.6 .5 3.5 1.4c1 .9 1.4 2 1.4 3.3v16.3c0 1.4-0.4 2.5-1.4 3.4c-0.9 .9-2.1 1.4-3.5 1.4h-57.9c2.9 0 5.4 .9 7.4 2.9c2.1 1.9 3.1 4.1 3.1 6.5v8.5c0 1.3 .5 2.6 1.5 3.8c1 1.2 2.4 1.8 4.2 1.8h55.8c3.3 0 5 1.6 5 4.7v17.8c0 1.4-0.5 2.6-1.5 3.3c-0.9 .8-2.1 1.2-3.5 1.2h-91.3c-1.3 0-2.4-0.4-3.3-1.3c-1-0.9-1.5-2-1.5-3.2Z" fill="#e5c9d9" fill-rule="nonzero" opacity="0" style="animation: 1.6s linear both a3_o;"/><path d="M850.9 217.9c0 7.3-1.8 13.6-5.5 18.6c-3.6 5.1-8.2 9.2-13.8 12.4c-5.6 3.1-11.9 5.4-18.7 6.7c-6.9 1.4-13.6 2.1-20.1 2.1c-6.2 0-12.7-0.6-19.4-1.8c-6.7-1.2-12.8-3.2-18.4-6.1c-5.6-2.8-10.3-6.5-14.1-11.2c-3.7-4.6-5.8-10.4-6.2-17.3c0-1.1 .4-2 1.3-2.7c.8-0.7 1.8-1.1 2.9-1.1h25.4c.8 0 1.5 .1 2 .2c.6 .1 1.2 .3 1.7 .5c.9 .5 1.9 1.4 3.2 2.6c2.1 3.8 5.1 6.5 9.1 7.8c4 1.4 8.2 2.1 12.5 2.1c1.9 0 4.1-0.1 6.6-0.3c2.5-0.3 4.8-0.8 6.9-1.6c2.1-0.8 3.9-1.9 5.4-3.4c1.5-1.5 2.3-3.5 2.3-5.9c0-3.3-1.3-5.6-3.8-7.1c-2.6-1.4-5.2-2.6-8-3.4c-2.2-0.7-4.8-1.4-7.8-2.1c-3-0.7-6.4-1.4-10.4-2.1c-5.8-1.1-11.5-2.5-17-4.2c-5.5-1.8-10.3-4.1-14.6-7c-4.3-2.9-7.7-6.6-10.3-11c-2.6-4.4-3.9-9.8-3.9-16.2c0-8 2.3-14.8 6.9-20.6c4.7-5.7 10.8-10.1 18.3-13.1c8.1-3.1 17.5-4.7 28.1-4.7c4.2 0 8.5 .3 13.1 1c4.5 .6 8.9 1.7 13.1 3.2c4.3 1.6 8.3 3.5 12 6c3.7 2.5 6.9 5.5 9.5 9c4.4 5.3 6.7 10.7 7.1 16.1c0 1-0.4 1.9-1.2 2.7c-0.9 .9-1.8 1.3-2.8 1.3h-26.8c-2.6 0-4.7-1.1-6.3-3.3c-0.7-2.5-2.7-4.7-5.9-6.5c-3.4-1.7-7.4-2.5-11.8-2.5c-1.9 0-3.9 .1-5.9 .3c-1.9 .3-3.7 .8-5.4 1.7c-1.7 .8-3 1.9-4 3.3c-1 1.4-1.5 3.2-1.5 5.4c0 3.4 1.9 6.1 5.7 8.1c3.8 2 10.9 4 21.4 6c6 1.1 11.9 2.4 17.8 3.9c6 1.5 11.2 3.7 15.8 6.4c4.6 2.8 8.3 6.4 11.2 10.8c2.8 4.4 4.3 10.1 4.3 17Z" fill="#e5c9d9" fill-rule="nonzero" opacity="0" style="animation: 1.6s linear both a4_o;"/><path d="M.8 99.2v-84.3c0-2.2 .4-4 1.3-5.6c.8-1.5 1.9-2.8 3.2-3.9c1.3-1 2.8-1.8 4.4-2.3c1.5-0.4 3-0.7 4.3-0.7h37.3c5.2 0 10.1 .5 14.6 1.4c4.6 .9 8.6 2.5 12 4.7c3.5 2.2 6.2 5.1 8.2 8.8c2 3.7 3.1 8.3 3.1 13.8c0 4.1-1.1 7.9-3.3 11.2c-2.2 3.4-5.2 6.1-9 8.1c4.5 1.7 8.1 4.7 10.7 8.8c2.5 4.2 3.8 8.6 3.8 13.1c0 5.5-1 10.3-3.1 14.1c-2.1 3.8-4.9 7-8.4 9.4c-3.6 2.5-7.7 4.3-12.4 5.4c-4.7 1.1-9.7 1.6-14.9 1.6h-48c-1 0-1.9-0.3-2.7-1.1c-0.8-0.7-1.1-1.5-1.1-2.5Zm47.4-57c3.4 0 6.2-0.9 8.3-2.7c2.1-1.8 3.2-4.3 3.2-7.7c0-3.4-1.1-5.9-3.3-7.6c-2.2-1.6-4.9-2.5-8.3-2.5h-27.3c2.3 0 4.3 .8 5.9 2.4c1.7 1.6 2.5 3.3 2.5 5.2v8.7c0 .9 .4 1.8 1.2 2.7c.8 1 1.9 1.5 3.3 1.5h14.4Zm1.3 41.2c3.7 0 6.6-1 8.9-2.9c2.3-1.9 3.4-4.7 3.4-8.2c0-3.5-1.1-6.2-3.5-8.3c-2.3-2.1-5.2-3.1-8.8-3.1h-28.7c2.3 0 4.3 .8 5.9 2.4c1.7 1.6 2.5 3.3 2.5 5.2v10.5c0 1 .3 2 1.1 2.9c.8 1 1.9 1.5 3.4 1.5h15.8Z" fill="#e5c9d9" fill-rule="nonzero" transform="translate(7.4,4) scale(0,0)" style="animation: 1.6s linear both a5_t, 1.6s linear both a5_o;"/><path d="M99.9 102.4c-0.6-0.8-0.9-1.5-0.9-2.2c0-0.7 .1-1.1 .2-1.3l35.2-91.9c1.1-2.8 3.1-4.2 6.1-4.2h23.5c3 0 5 1.4 6.1 4.2l35.2 91.9c.1 .2 .2 .6 .2 1.3c0 .8-0.4 1.5-1 2.1c-0.7 .6-1.4 .9-2.2 .9h-19.6c-2.5 0-4.3-1-5.2-3.1l-7.9-20.3c-3.6 1.3-7.3 2.4-11 3.3c-3.8 .8-7.4 1.5-10.9 1.9c-3.5 .5-6.8 .7-9.8 .9c-3 .1-5.7 .2-7.9 .2h-3.6c-0.9 0-1.7 0-2.2-0.1c1.9 .2 3.3 1.2 4.5 2.8c1.2 1.7 1.3 3.6 .4 5.8l-2.1 5.5c-0.9 2.1-2.7 3.1-5.2 3.1h-19.6c-0.7 0-1.5-0.2-2.3-0.8Zm38.6-36.9c2.8-0.2 5.8-0.5 8.8-1c2.6-0.4 5.4-0.9 8.3-1.7c2.9-0.7 5.6-1.7 8.3-3.1l-11.7-31.6l-13.7 37.4Z" fill="#e5c9d9" fill-rule="nonzero" transform="translate(7.4,4) scale(0,0)" style="animation: 1.6s linear both a6_t, 1.6s linear both a6_o;"/><path d="M217.6 99.2v-84.3c0-3.3 1.3-6.2 3.8-8.7c2.6-2.5 5.7-3.8 9.4-3.8h5c1.2 0 2.5 .2 4 .7c1.5 .4 3.1 1.7 4.7 3.8c6 8.8 11.3 16.8 16.1 23.9c2.9 4.3 5.2 7.7 6.9 10.3c1.7 2.5 3.3 4.9 4.8 7c1.5 2.2 2.8 4.1 3.8 5.6c1 1.5 1.6 2.4 1.8 2.7c0 .2 .2 .3 .6 .3c.5 0 .8-0.2 .8-0.7v-41.1c0-3.7 1.3-6.7 4.1-9c2.7-2.3 5.8-3.5 9.2-3.5h9.8c1.1 0 2 .3 2.7 1c.7 .9 1.1 1.8 1.1 2.8v92.9c0 .8-0.4 1.7-1.1 2.6c-0.8 .7-1.7 1.1-2.7 1.1h-17.2c-2.2 0-3.9-0.9-5.2-2.7c-6-8.9-11.5-16.8-16.4-23.8c-2.9-4.2-5.2-7.6-6.9-10.1c-1.8-2.6-3.4-4.9-4.9-7.1c-1.5-2.2-2.8-4-3.8-5.5c-1-1.5-1.6-2.4-1.8-2.6c-0.3-0.3-0.6-0.5-0.8-0.5c-0.5 0-0.7 .3-0.7 .7v48c0 1.1-0.4 1.9-1.3 2.6c-0.8 .7-1.7 1-2.7 1h-19.3c-0.9 0-1.7-0.4-2.6-1.1c-0.8-0.8-1.2-1.6-1.2-2.5Z" fill="#e5c9d9" fill-rule="nonzero" transform="translate(7.4,4) scale(0,0)" style="animation: 1.6s linear both a7_t, 1.6s linear both a7_o;"/><path d="M354.3 99.5v-25.6c0-1.6-0.2-3.1-0.6-4.7c-0.4-1.6-0.9-2.9-1.5-4l-32.8-57.9c-0.3-0.5-0.5-1-0.5-1.6c0-0.7 .3-1.4 1-2.1c.7-0.6 1.4-0.9 2.2-0.9h19.9c1.1 0 2.2 .3 3.3 .8c1 .5 1.8 1.3 2.2 2.4c3.6 6.2 6.9 11.8 9.8 16.8c1.8 3.1 3.2 5.5 4.2 7.3c1.1 1.8 2 3.4 2.9 5c.9 1.5 1.6 2.8 2.3 3.9c.6 1 1 1.6 1.1 1.8c.2 .3 .5 .5 .8 .5c.3 0 .5-0.2 .6-0.5c.1-0.2 .5-0.8 1.1-1.9c.7-1.1 1.5-2.5 2.5-4.1c.9-1.7 2-3.5 3.2-5.6c1.2-2.2 2.4-4.3 3.7-6.4c2.9-5 6.2-10.6 9.8-16.8c1.3-2.1 3.2-3.2 5.5-3.2h19.9c.8 0 1.5 .3 2.2 .9c.7 .7 1 1.4 1 2.1c0 .6-0.2 1.1-0.5 1.6c-5.8 10.4-11.2 19.7-15.9 28c-2.9 5-5.1 9.1-6.8 12c-1.6 2.9-3.2 5.6-4.6 8.2c-1.4 2.5-2.6 4.7-3.7 6.5c-1 1.8-1.6 2.8-1.8 3.1c-0.7 1.2-1.2 2.6-1.6 4.1c-0.3 1.5-0.5 2.9-0.5 4.2v26.1c0 1.2-0.4 2-1.1 2.7c-0.7 .6-1.6 .9-2.9 .9h-20.6c-1.1 0-2-0.3-2.7-1c-0.7-0.7-1.1-1.5-1.1-2.6Z" fill="#e5c9d9" fill-rule="nonzero" transform="translate(7.4,4) scale(0,0)" style="animation: 1.6s linear both a8_t, 1.6s linear both a8_o;"/><path d="M422.6 102.4c-0.6-0.8-0.9-1.5-0.9-2.2c0-0.7 .1-1.1 .2-1.3l35.2-91.9c1.1-2.8 3.1-4.2 6.1-4.2h23.5c3 0 5 1.4 6.1 4.2l35.2 91.9c.1 .2 .2 .6 .2 1.3c0 .8-0.3 1.5-1 2.1c-0.7 .6-1.4 .9-2.2 .9h-19.6c-2.5 0-4.3-1-5.2-3.1l-7.9-20.3c-3.6 1.3-7.3 2.4-11 3.3c-3.8 .8-7.4 1.5-10.9 1.9c-3.5 .5-6.8 .7-9.8 .9c-3 .1-5.7 .2-7.9 .2h-3.6c-0.9 0-1.7 0-2.2-0.1c1.9 .2 3.3 1.2 4.5 2.8c1.2 1.7 1.3 3.6 .4 5.8l-2.1 5.5c-0.9 2.1-2.7 3.1-5.2 3.1h-19.6c-0.7 0-1.5-0.2-2.3-0.8Zm38.6-36.9c2.8-0.2 5.8-0.5 8.8-1c2.6-0.4 5.4-0.9 8.3-1.7c2.9-0.7 5.6-1.7 8.3-3.1l-11.7-31.6l-13.7 37.4Z" fill="#e5c9d9" fill-rule="nonzero" transform="translate(7.4,4) scale(0,0)" style="animation: 1.6s linear both a9_t, 1.6s linear both a9_o;"/><path d="M540.3 99.2v-84.3c0-3.3 1.3-6.2 3.8-8.7c2.6-2.5 5.7-3.8 9.4-3.8h5.1c1.1 0 2.4 .2 3.9 .7c1.5 .4 3.1 1.7 4.7 3.8c6 8.8 11.3 16.8 16.1 23.9c2.9 4.3 5.2 7.7 6.9 10.3c1.7 2.5 3.3 4.9 4.8 7c1.5 2.2 2.8 4.1 3.8 5.6c1 1.5 1.6 2.4 1.8 2.7c0 .2 .2 .3 .6 .3c.5 0 .8-0.2 .8-0.7v-41.1c0-3.7 1.4-6.7 4.1-9c2.7-2.3 5.8-3.5 9.2-3.5h9.8c1.1 0 2 .3 2.7 1c.7 .9 1.1 1.8 1.1 2.8v92.9c0 .8-0.4 1.7-1.1 2.6c-0.8 .7-1.7 1.1-2.7 1.1h-17.2c-2.2 0-3.9-0.9-5.2-2.7c-6-8.9-11.5-16.8-16.4-23.8c-2.9-4.2-5.2-7.6-6.9-10.1c-1.8-2.6-3.4-4.9-4.9-7.1c-1.5-2.2-2.8-4-3.8-5.5c-1-1.5-1.6-2.4-1.8-2.6c-0.3-0.3-0.6-0.5-0.8-0.5c-0.5 0-0.7 .3-0.7 .7v48c0 1.1-0.4 1.9-1.3 2.6c-0.8 .7-1.7 1-2.7 1h-19.3c-0.9 0-1.7-0.4-2.6-1.1c-0.8-0.8-1.2-1.6-1.2-2.5Z" fill="#e5c9d9" fill-rule="nonzero" transform="translate(7.4,4) scale(0,0)" style="animation: 1.6s linear both a10_t, 1.6s linear both a10_o;"/><path d="M646.6 65.8c0-1.4 0-3.2 0-5.4c-0.1-2.2-0.1-4.7-0.1-7.7c0-3.1 0-5.7 .1-7.9c0-2.1 0-3.9 0-5.4c.3-6.6 1.8-12.3 4.3-17.1c2.5-4.8 5.9-8.7 10.2-11.8c4.2-3.1 9.2-5.3 14.8-6.8c5.7-1.4 11.8-2.2 18.3-2.2c3.7 0 7.6 .3 11.5 .8c4 .6 7.8 1.5 11.5 2.7c3.7 1.3 7.1 2.9 10.4 4.9c3.2 2 6 4.5 8.3 7.5c3.9 4.6 5.8 9.4 5.9 14.3c0 .8-0.3 1.5-0.9 2.1c-0.8 .7-1.6 1-2.4 1h-23.4c-0.8 0-1.6-0.2-2.4-0.6c-0.5-0.3-1-0.8-1.5-1.4c-1.5-3.5-3.8-6.1-6.7-7.6c-2.9-1.4-6.4-2.2-10.3-2.2c-11.7 0-17.8 5.7-18.3 17.2c0 1.3 0 3 0 5.1c-0.1 2-0.1 4.5-0.1 7.2c0 2.8 0 5.3 .1 7.3c0 2.1 0 3.8 0 5.3c.3 6 2 10.6 5.1 13.6c3 3 8.3 4.5 15.7 4.5c2.5 0 4.4-0.1 6-0.3c1.5-0.2 2.8-0.4 3.8-0.8c1.1-0.3 2-0.7 2.8-1.3c.9-0.5 1.7-1.1 2.5-1.8c2.2-1.8 3.7-4.1 4.4-7c.4-1.5 1-2.8 2-3.8c.9-1 1.9-1.9 2.9-2.5c1.1-0.6 2.1-1.1 3.1-1.3c1-0.3 1.9-0.5 2.6-0.5h-26.9c-1 0-1.9-0.4-2.7-1.1c-0.8-0.8-1.2-1.7-1.2-2.6v-2.5c0-1.5 .3-3 .9-4.5c.6-1.5 1.5-2.8 2.6-4c1.1-1.2 2.5-2.2 4.1-2.9c1.6-0.7 3.5-1.1 5.6-1.1h22.5c3.7 0 6.4 .9 8.1 2.8c1.7 1.9 2.5 4.4 2.5 7.6v10c0 6.9-1.3 12.7-3.9 17.6c-2.6 4.9-6 9-10.4 12.1c-4.5 3.2-9.6 5.5-15.4 7.1c-5.8 1.5-12 2.3-18.4 2.3c-6.7 0-12.9-0.8-18.6-2.3c-5.6-1.6-10.6-3.9-14.8-7.1c-4.2-3.1-7.5-7.2-10-12.1c-2.5-4.9-3.9-10.7-4.2-17.4Z" fill="#e5c9d9" fill-rule="nonzero" transform="translate(7.4,4) scale(0,0)" style="animation: 1.6s linear both a11_t, 1.6s linear both a11_o;"/><path d="M9.4 19.2c-1.6 0-2.9-0.4-3.9-1.4c-0.9-1-1.4-2.4-1.5-4.3c0-0.4 0-1 0-1.9c0-0.8 0-1.4 0-1.8c.1-1.9 .6-3.3 1.5-4.3c1-1 2.3-1.5 3.9-1.5c1.6 0 2.9 .5 3.8 1.5c1 1 1.5 2.4 1.5 4.3c.1 .8 .1 1.4 .1 1.8c0 .5 0 1.1-0.1 1.9c0 1.9-0.5 3.3-1.5 4.3c-0.9 1-2.2 1.4-3.8 1.4Zm0-3.1c.6 0 1.1-0.3 1.4-0.7c.4-0.5 .6-1.1 .6-2.1c0-0.8 0-1.4 0-1.7c0-0.4 0-0.9 0-1.7c0-1-0.2-1.6-0.6-2.1c-0.3-0.4-0.8-0.7-1.4-0.7c-0.6 0-1.1 .3-1.5 .7c-0.3 .5-0.5 1.1-0.5 2.1c0 .4-0.1 .9-0.1 1.7c0 .7 .1 1.3 .1 1.7c0 1 .2 1.6 .5 2.1c.4 .4 .9 .7 1.5 .7Z" fill="#e5c9d9" fill-rule="nonzero" transform="translate(26,51.6) rotate(0)" style="animation: 1.6s linear both a12_t, 1.6s linear both a12_d;"/></svg>