<?xml version="1.0" encoding="UTF-8" standalone="no"?><!DOCTYPE svg PUBLIC "-//W3C//DTD SVG 1.1//EN" "http://www.w3.org/Graphics/SVG/1.1/DTD/svg11.dtd"><svg width="100%" height="100%" viewBox="0 0 1464 783" version="1.1" xmlns="http://www.w3.org/2000/svg" xmlns:xlink="http://www.w3.org/1999/xlink" xml:space="preserve" xmlns:serif="http://www.serif.com/" style="fill-rule:evenodd;clip-rule:evenodd;stroke-linejoin:round;stroke-miterlimit:2;"><g><path d="M255.651,100.36c-46.172,32.078 -141.686,-3.676 -172.639,39.842c-13.664,19.212 -18.564,42.434 -22.376,65.21c-3.313,19.789 -6.929,41.934 -0.496,61.403c27.23,82.405 175.455,111.462 247.492,93.367c26.678,-6.701 50.736,-20.969 64.156,-45.625c29.183,-53.618 95.157,-360.995 -116.137,-214.197Z" style="fill:#ff8879;fill-opacity:0.33;"/><path d="M1223.4,333.157c22.345,45.907 66.236,80.296 85.314,77.953c80.752,-9.917 89.976,-82.314 92.478,-102.578c25.367,-205.453 -280.045,-185.456 -177.792,24.625Z" style="fill:#ff8879;"/><path d="M1357,0.394l-1313.14,0c0,0 -59.058,549.056 0,619.655c73.744,88.157 229.95,94.402 344.332,18.628c142.646,-94.498 108.174,-181.158 281.917,-254.195c144.699,-60.828 178.181,3.661 384.302,0c425.814,-7.561 302.589,-384.088 302.589,-384.088Z" style="fill:#ff6d88;"/><clipPath id="_clip1"><path d="M1357,0.394l-1313.14,0c0,0 -59.058,549.056 0,619.655c73.744,88.157 229.95,94.402 344.332,18.628c142.646,-94.498 108.174,-181.158 281.917,-254.195c144.699,-60.828 178.181,3.661 384.302,0c425.814,-7.561 302.589,-384.088 302.589,-384.088Z"/></clipPath><g clip-path="url(#_clip1)"><path d="M-141.38,662.496c59.577,1.585 111.699,-12.395 160.721,-37.936c18.459,-9.617 40.165,-14.512 55.573,-27.468c24.119,-20.281 38.184,-48.658 55.194,-72.618c45.741,-64.432 115.058,-181.133 202.43,-211.757c161.025,-56.439 516.456,53.484 515.223,56.737c-4.266,11.252 -88.677,18.605 -105.549,21.159c-99.544,15.064 -301.983,-31.032 -373.717,32.613c-65.37,57.998 -82.36,157.55 -112.592,229.534c-13.981,33.291 -41.462,61.712 -61.821,92.509c-14.113,21.349 -27.122,50.241 -50.71,66.429c-56.211,38.576 -150.939,58.347 -223.405,66.56" style="fill:#fff;fill-opacity:0.19;"/></g><path d="M277.434,183.776c-31.975,28.192 -55.026,95.868 -43.797,154.881c7.948,41.769 30.141,72.925 27.522,118.388c-4.979,86.439 -50.863,139.502 -6.796,231.208c54.206,112.806 239.111,124.509 321.245,35.571c84.802,-91.827 16.719,-214.959 -42.337,-300.597c-19.504,-28.284 -43.9,-53.414 -58.983,-84.57c-22.492,-46.459 -13.603,-109.963 -46.892,-150.328c-37.161,-45.059 -98.555,-49.878 -149.962,-4.553Z" style="fill:#e47bc2;"/><clipPath id="_clip2"><path d="M277.434,183.776c-31.975,28.192 -55.026,95.868 -43.797,154.881c7.948,41.769 30.141,72.925 27.522,118.388c-4.979,86.439 -50.863,139.502 -6.796,231.208c54.206,112.806 239.111,124.509 321.245,35.571c84.802,-91.827 16.719,-214.959 -42.337,-300.597c-19.504,-28.284 -43.9,-53.414 -58.983,-84.57c-22.492,-46.459 -13.603,-109.963 -46.892,-150.328c-37.161,-45.059 -98.555,-49.878 -149.962,-4.553Z"/></clipPath><g clip-path="url(#_clip2)"><path d="M289.775,769.697c61.319,2.61 114.966,-20.422 165.422,-62.501c18.999,-15.845 41.34,-23.908 57.199,-45.253c24.824,-33.413 39.3,-80.164 56.808,-119.639c47.079,-106.152 120.179,-291.017 208.352,-348.87c81.81,-53.678 257.559,-44.544 349.769,-30.784c33.821,5.046 66.251,11.915 98.984,23.336c4.343,1.516 14.341,-1.007 13.072,4.352c-4.391,18.538 -102.117,45.92 -119.482,50.126c-102.456,24.819 -231.502,30.18 -305.334,135.034c-67.283,95.552 -84.77,259.563 -115.886,378.158c-14.39,54.847 -42.675,101.671 -63.629,152.409c-14.526,35.172 -27.916,82.772 -52.194,109.441c-57.855,63.555 -155.355,96.127 -229.94,109.659" style="fill:#fff;fill-opacity:0.19;"/></g><g><path d="M295.013,534.134c-17.847,19.627 -38.128,30.772 -61.456,43.419c-7.864,4.264 -34.766,33.467 -18.018,70.207c8.963,19.661 197.945,78.771 286.016,28.084c34.388,-19.791 50.353,-78.173 36.011,-98.291c-36.494,-51.193 -57.266,-45.337 -105.182,-121.316" style="fill:#8a4bac;"/><path d="M252.152,437.745c9.964,16.241 25.436,31.8 30.84,50.439c4.937,17.028 0.609,35.439 4.928,52.13c3.84,14.838 19.943,38.947 34.716,37.143c20.82,-2.542 44.343,-54.266 58.947,-61.671c3.936,-1.996 49.38,-39.146 52.557,-44.007c3.433,-5.25 -16.342,-97.479 -17.796,-115.917" style="fill:#ca72ae;"/><path d="M363.273,247.822c5.71,-4.881 40.921,-6.875 23.03,-19.614c-23.03,-16.397 -65.811,-20.296 -91.423,-7.223c-39.564,20.196 -36.207,32.993 -88.854,36.778c-7.917,0.57 -19.283,2.236 -26.706,-1.54c-9.818,-4.995 -0.837,-21.795 2.315,-28.543c10.37,-22.197 21.29,-53.368 45.203,-64.83c45.127,-21.633 145.587,-9.851 180.376,27.603c9.94,10.702 13.249,20.225 8.473,34.238c-0.225,0.66 -0.525,0.936 -0.061,1.509c11.507,14.222 33.454,12.651 44.524,29.641c21.266,32.638 19.461,84.836 -1.794,116.706c-2.72,4.078 -16.063,46.596 -29.295,45.263c-12.27,-1.237 -13.374,-61.948 -13.374,-61.948c0,0 -55.212,7.834 -57.451,9.733" style="fill:#b0679e;"/><path d="M387.068,224.039c0,0 -44.284,-14.261 -62.027,-14.261c-15.496,0 -45.194,18.71 -59.643,24.55c-19.054,7.702 -54.684,21.661 -54.684,21.661l-11.89,38.533c-3.228,44.738 5.432,80.987 21.605,123.319c3.616,9.466 7.193,27.246 15.018,33.774c14.56,12.145 35.69,16.107 53.078,14.02c46.232,-5.547 83.611,-16.225 112.683,-56.674c8.863,-12.331 0.42,-31.379 5.605,-38.283c12.762,-16.995 38.96,-4.677 45.972,-40.638c1.031,-5.284 0.677,-10.948 -0.485,-16.18c-3.39,-15.252 -15.483,-29.955 -31.571,-23.214c-3.349,1.403 -12.564,10.896 -15.194,10.674c-3.977,-0.335 -8.142,-4.003 -10.91,-6.71c-7.378,-7.213 -31.47,-21.602 -30.59,-38.621c0.586,-11.322 43.451,-5.267 23.033,-31.95Z" style="fill:#fb8ed8;"/></g><g><path d="M448.407,250.325l0,-89.061c0,-2.335 0.364,-4.314 1.091,-5.938c0.727,-1.624 1.647,-2.994 2.76,-4.11c1.112,-1.117 2.331,-1.929 3.658,-2.436c1.326,-0.508 2.545,-0.761 3.658,-0.761l31.573,0c4.364,0 8.471,0.482 12.322,1.446c3.85,0.964 7.23,2.613 10.14,4.948c2.909,2.334 5.219,5.455 6.93,9.363c1.712,3.907 2.567,8.753 2.567,14.539c0,4.364 -0.919,8.322 -2.759,11.874c-1.84,3.553 -4.385,6.394 -7.637,8.526c3.851,1.827 6.867,4.948 9.049,9.363c2.182,4.415 3.273,9.007 3.273,13.777c0,5.887 -0.877,10.86 -2.632,14.92c-1.754,4.06 -4.128,7.384 -7.123,9.972c-2.995,2.588 -6.482,4.466 -10.46,5.633c-3.979,1.167 -8.193,1.751 -12.643,1.751l-40.558,0c-0.856,0 -1.605,-0.381 -2.246,-1.142c-0.642,-0.761 -0.963,-1.65 -0.963,-2.664Zm40.045,-60.288c2.909,0 5.262,-0.939 7.059,-2.816c1.797,-1.878 2.696,-4.593 2.696,-8.145c0,-3.553 -0.92,-6.217 -2.76,-7.993c-1.84,-1.776 -4.171,-2.664 -6.995,-2.664l-23.103,0c1.968,0 3.637,0.837 5.006,2.512c1.369,1.675 2.053,3.527 2.053,5.557l0,9.134c0,0.914 0.343,1.878 1.027,2.893c0.685,1.015 1.626,1.522 2.824,1.522l12.193,0Zm1.155,43.541c3.081,0 5.583,-1.015 7.509,-3.045c1.925,-2.03 2.888,-4.922 2.888,-8.678c0,-3.653 -0.984,-6.571 -2.953,-8.753c-1.968,-2.183 -4.449,-3.274 -7.444,-3.274l-24.258,0c1.968,0 3.637,0.838 5.006,2.512c1.369,1.675 2.053,3.527 2.053,5.557l0,11.114c0,1.015 0.321,2.03 0.963,3.045c0.642,1.015 1.604,1.522 2.888,1.522l13.348,0Z" style="fill:#fff;fill-rule:nonzero;"/><path d="M532.219,253.674c-0.513,-0.812 -0.77,-1.573 -0.77,-2.284c0,-0.71 0.043,-1.167 0.128,-1.37l29.777,-97.13c0.942,-2.943 2.653,-4.415 5.134,-4.415l19.895,0c2.481,0 4.192,1.472 5.134,4.415l29.777,97.13c0.085,0.203 0.128,0.66 0.128,1.37c0,0.812 -0.278,1.548 -0.834,2.208c-0.557,0.659 -1.177,0.989 -1.861,0.989l-16.557,0c-2.14,0 -3.594,-1.116 -4.364,-3.349l-6.675,-21.466c-3.08,1.421 -6.203,2.588 -9.369,3.502c-3.166,0.913 -6.225,1.598 -9.177,2.055c-2.952,0.457 -5.712,0.761 -8.279,0.913c-2.566,0.152 -4.791,0.229 -6.674,0.229l-3.016,0c-0.813,0 -1.433,-0.051 -1.861,-0.153c1.54,0.305 2.802,1.32 3.786,3.045c0.984,1.726 1.091,3.755 0.321,6.09l-1.797,5.785c-0.77,2.233 -2.224,3.349 -4.364,3.349l-16.557,0c-0.599,0 -1.24,-0.304 -1.925,-0.913Zm32.601,-38.974c2.396,-0.203 4.877,-0.558 7.444,-1.066c2.225,-0.406 4.557,-0.989 6.995,-1.75c2.439,-0.762 4.77,-1.853 6.995,-3.273l-9.883,-33.494l-11.551,39.583Z" style="fill:#fff;fill-rule:nonzero;"/><path d="M631.69,250.325l0,-89.061c0,-3.553 1.069,-6.648 3.209,-9.287c2.139,-2.639 4.791,-3.958 7.957,-3.958l4.236,0c0.941,0 2.053,0.228 3.337,0.685c1.283,0.456 2.61,1.801 3.979,4.034c5.048,9.338 9.583,17.762 13.605,25.272c2.481,4.567 4.428,8.196 5.84,10.885c1.411,2.69 2.759,5.176 4.043,7.46c1.283,2.284 2.353,4.237 3.208,5.861c0.856,1.624 1.369,2.588 1.54,2.893c0,0.203 0.172,0.304 0.514,0.304c0.428,0 0.642,-0.253 0.642,-0.761l0,-43.388c0,-3.959 1.155,-7.156 3.465,-9.592c2.31,-2.435 4.92,-3.653 7.829,-3.653l8.215,0c0.941,0 1.711,0.355 2.31,1.065c0.599,0.914 0.898,1.878 0.898,2.893l0,98.195c0,0.914 -0.299,1.827 -0.898,2.741c-0.685,0.812 -1.455,1.218 -2.31,1.218l-14.504,0c-1.882,0 -3.337,-0.965 -4.364,-2.893c-5.134,-9.337 -9.754,-17.711 -13.861,-25.12c-2.482,-4.466 -4.45,-8.043 -5.904,-10.733c-1.455,-2.689 -2.824,-5.176 -4.108,-7.46c-1.283,-2.283 -2.353,-4.212 -3.208,-5.785c-0.856,-1.573 -1.369,-2.512 -1.541,-2.816c-0.256,-0.305 -0.47,-0.457 -0.641,-0.457c-0.428,0 -0.642,0.254 -0.642,0.761l0,50.697c0,1.116 -0.342,2.029 -1.027,2.74c-0.684,0.71 -1.454,1.066 -2.31,1.066l-16.3,0c-0.771,0 -1.498,-0.406 -2.182,-1.218c-0.685,-0.812 -1.027,-1.675 -1.027,-2.588Z" style="fill:#fff;fill-rule:nonzero;"/><path d="M747.204,250.629l0,-27.099c0,-1.624 -0.171,-3.273 -0.513,-4.948c-0.342,-1.674 -0.77,-3.07 -1.284,-4.186l-27.723,-61.201c-0.257,-0.508 -0.385,-1.066 -0.385,-1.675c0,-0.812 0.278,-1.548 0.834,-2.207c0.556,-0.66 1.177,-0.99 1.861,-0.99l16.814,0c0.941,0 1.861,0.279 2.759,0.837c0.899,0.559 1.519,1.396 1.861,2.512c3.081,6.597 5.862,12.535 8.343,17.813c1.455,3.247 2.631,5.81 3.53,7.688c0.898,1.877 1.711,3.628 2.438,5.252c0.728,1.624 1.369,2.994 1.926,4.111c0.556,1.116 0.877,1.776 0.962,1.979c0.171,0.304 0.385,0.456 0.642,0.456c0.257,0 0.428,-0.152 0.513,-0.456c0.086,-0.203 0.407,-0.888 0.963,-2.056c0.556,-1.167 1.241,-2.613 2.054,-4.338c0.812,-1.726 1.732,-3.705 2.759,-5.938c1.027,-2.233 2.054,-4.466 3.08,-6.698c2.482,-5.278 5.263,-11.216 8.343,-17.813c1.113,-2.232 2.653,-3.349 4.621,-3.349l16.814,0c0.684,0 1.304,0.33 1.861,0.99c0.556,0.659 0.834,1.395 0.834,2.207c0,0.609 -0.129,1.167 -0.385,1.675c-4.963,10.961 -9.455,20.806 -13.477,29.535c-2.396,5.379 -4.3,9.616 -5.711,12.712c-1.412,3.095 -2.717,5.988 -3.915,8.677c-1.198,2.69 -2.225,4.974 -3.08,6.851c-0.856,1.878 -1.37,2.969 -1.541,3.273c-0.599,1.32 -1.048,2.766 -1.347,4.339c-0.3,1.573 -0.45,3.07 -0.45,4.491l0,27.556c0,1.218 -0.299,2.157 -0.898,2.816c-0.599,0.66 -1.412,0.99 -2.439,0.99l-17.455,0c-0.941,0 -1.711,-0.355 -2.31,-1.066c-0.599,-0.71 -0.899,-1.624 -0.899,-2.74Z" style="fill:#fff;fill-rule:nonzero;"/><path d="M804.961,253.674c-0.513,-0.812 -0.77,-1.573 -0.77,-2.284c0,-0.71 0.043,-1.167 0.129,-1.37l29.777,-97.13c0.941,-2.943 2.652,-4.415 5.134,-4.415l19.894,0c2.481,0 4.192,1.472 5.134,4.415l29.777,97.13c0.085,0.203 0.128,0.66 0.128,1.37c0,0.812 -0.278,1.548 -0.834,2.208c-0.556,0.659 -1.177,0.989 -1.861,0.989l-16.557,0c-2.139,0 -3.594,-1.116 -4.364,-3.349l-6.674,-21.466c-3.081,1.421 -6.204,2.588 -9.37,3.502c-3.166,0.913 -6.225,1.598 -9.177,2.055c-2.952,0.457 -5.711,0.761 -8.278,0.913c-2.567,0.152 -4.792,0.229 -6.675,0.229l-3.016,0c-0.813,0 -1.433,-0.051 -1.861,-0.153c1.54,0.305 2.802,1.32 3.787,3.045c0.984,1.726 1.09,3.755 0.32,6.09l-1.797,5.785c-0.77,2.233 -2.224,3.349 -4.363,3.349l-16.557,0c-0.599,0 -1.241,-0.304 -1.926,-0.913Zm32.601,-38.974c2.396,-0.203 4.877,-0.558 7.444,-1.066c2.225,-0.406 4.557,-0.989 6.995,-1.75c2.439,-0.762 4.771,-1.853 6.995,-3.273l-9.883,-33.494l-11.551,39.583Z" style="fill:#fff;fill-rule:nonzero;"/><path d="M904.432,250.325l0,-89.061c0,-3.553 1.07,-6.648 3.209,-9.287c2.139,-2.639 4.791,-3.958 7.957,-3.958l4.236,0c0.941,0 2.053,0.228 3.337,0.685c1.283,0.456 2.61,1.801 3.979,4.034c5.048,9.338 9.583,17.762 13.605,25.272c2.481,4.567 4.428,8.196 5.84,10.885c1.412,2.69 2.759,5.176 4.043,7.46c1.283,2.284 2.353,4.237 3.208,5.861c0.856,1.624 1.37,2.588 1.541,2.893c0,0.203 0.171,0.304 0.513,0.304c0.428,0 0.642,-0.253 0.642,-0.761l0,-43.388c0,-3.959 1.155,-7.156 3.465,-9.592c2.31,-2.435 4.92,-3.653 7.83,-3.653l8.214,0c0.941,0 1.711,0.355 2.31,1.065c0.599,0.914 0.899,1.878 0.899,2.893l0,98.195c0,0.914 -0.3,1.827 -0.899,2.741c-0.684,0.812 -1.454,1.218 -2.31,1.218l-14.504,0c-1.882,0 -3.337,-0.965 -4.363,-2.893c-5.134,-9.337 -9.755,-17.711 -13.862,-25.12c-2.482,-4.466 -4.45,-8.043 -5.904,-10.733c-1.455,-2.689 -2.824,-5.176 -4.107,-7.46c-1.284,-2.283 -2.354,-4.212 -3.209,-5.785c-0.856,-1.573 -1.369,-2.512 -1.54,-2.816c-0.257,-0.305 -0.471,-0.457 -0.642,-0.457c-0.428,0 -0.642,0.254 -0.642,0.761l0,50.697c0,1.116 -0.342,2.029 -1.027,2.74c-0.684,0.71 -1.454,1.066 -2.31,1.066l-16.3,0c-0.77,0 -1.498,-0.406 -2.182,-1.218c-0.685,-0.812 -1.027,-1.675 -1.027,-2.588Z" style="fill:#fff;fill-rule:nonzero;"/><path d="M994.276,215.005c0,-1.523 -0.021,-3.426 -0.064,-5.709c-0.042,-2.284 -0.064,-4.999 -0.064,-8.145c0,-3.248 0.022,-6.014 0.064,-8.297c0.043,-2.284 0.064,-4.187 0.064,-5.709c0.257,-7.004 1.455,-13.042 3.594,-18.117c2.139,-5.075 5.006,-9.236 8.6,-12.484c3.593,-3.248 7.786,-5.633 12.578,-7.155c4.792,-1.523 9.926,-2.284 15.402,-2.284c3.166,0 6.417,0.279 9.754,0.837c3.337,0.559 6.568,1.498 9.691,2.817c3.123,1.319 6.053,3.045 8.792,5.176c2.738,2.131 5.091,4.77 7.059,7.917c3.251,4.871 4.92,9.895 5.005,15.072c0,0.913 -0.256,1.674 -0.77,2.283c-0.684,0.711 -1.369,1.066 -2.053,1.066l-19.766,0c-0.685,0 -1.369,-0.203 -2.054,-0.609c-0.427,-0.406 -0.855,-0.914 -1.283,-1.523c-1.284,-3.755 -3.166,-6.419 -5.647,-7.992c-2.482,-1.573 -5.391,-2.36 -8.728,-2.36c-9.84,0 -14.974,6.039 -15.402,18.117c0,1.421 -0.022,3.222 -0.064,5.404c-0.043,2.182 -0.064,4.745 -0.064,7.688c0,2.944 0.021,5.507 0.064,7.689c0.042,2.182 0.064,4.034 0.064,5.556c0.257,6.395 1.668,11.19 4.235,14.387c2.567,3.197 7.017,4.796 13.349,4.796c2.053,0 3.722,-0.102 5.005,-0.305c1.284,-0.203 2.375,-0.482 3.273,-0.837c0.899,-0.355 1.69,-0.812 2.375,-1.37c0.684,-0.558 1.369,-1.193 2.053,-1.903c1.883,-1.929 3.123,-4.415 3.722,-7.46c0.343,-1.624 0.899,-2.969 1.669,-4.034c0.77,-1.066 1.604,-1.929 2.503,-2.588c0.898,-0.66 1.775,-1.142 2.631,-1.447c0.856,-0.304 1.583,-0.457 2.182,-0.457l-22.718,0c-0.856,0 -1.626,-0.405 -2.31,-1.217c-0.685,-0.812 -1.027,-1.726 -1.027,-2.741l0,-2.588c0,-1.624 0.257,-3.222 0.77,-4.795c0.513,-1.574 1.241,-2.995 2.182,-4.263c0.941,-1.269 2.096,-2.284 3.465,-3.045c1.369,-0.761 2.952,-1.142 4.749,-1.142l18.996,0c3.166,0 5.455,0.99 6.867,2.969c1.412,1.979 2.117,4.643 2.117,7.993l0,10.656c0,7.206 -1.09,13.398 -3.272,18.574c-2.182,5.176 -5.134,9.439 -8.857,12.788c-3.722,3.349 -8.043,5.836 -12.963,7.46c-4.92,1.624 -10.118,2.436 -15.594,2.436c-5.648,0 -10.867,-0.812 -15.659,-2.436c-4.792,-1.624 -8.963,-4.111 -12.514,-7.46c-3.551,-3.349 -6.375,-7.612 -8.471,-12.788c-2.096,-5.176 -3.273,-11.317 -3.53,-18.421Z" style="fill:#fff;fill-rule:nonzero;"/><path d="M1126.86,256.11c-12.15,0 -21.734,-3.502 -28.75,-10.505c-7.016,-7.003 -10.739,-17.305 -11.166,-30.905c-0.086,-2.842 -0.129,-7.206 -0.129,-13.093c0,-5.886 0.043,-10.301 0.129,-13.245c0.342,-13.397 4.085,-23.724 11.23,-30.981c7.145,-7.256 16.707,-10.885 28.686,-10.885c11.894,0 21.413,3.629 28.558,10.885c7.145,7.257 10.888,17.584 11.23,30.981c0.172,5.887 0.257,10.302 0.257,13.245c0,3.045 -0.085,7.409 -0.257,13.093c-0.427,13.6 -4.128,23.902 -11.102,30.905c-6.973,7.003 -16.535,10.505 -28.686,10.505Zm0,-22.836c4.45,0 8.001,-1.599 10.653,-4.796c2.653,-3.197 4.065,-8.094 4.236,-14.691c0.171,-5.887 0.256,-10.099 0.256,-12.636c0,-2.538 -0.085,-6.648 -0.256,-12.332c-0.171,-6.597 -1.583,-11.494 -4.236,-14.691c-2.652,-3.197 -6.203,-4.796 -10.653,-4.796c-4.535,0 -8.129,1.599 -10.781,4.796c-2.653,3.197 -4.064,8.094 -4.236,14.691c-0.085,2.842 -0.128,6.953 -0.128,12.332c0,5.48 0.043,9.692 0.128,12.636c0.172,6.597 1.583,11.494 4.236,14.691c2.652,3.197 6.246,4.796 10.781,4.796Z" style="fill:#fff;fill-rule:nonzero;"/><path d="M724.848,290.539c0,1.856 -0.366,3.422 -1.097,4.7c-0.73,1.277 -1.66,2.311 -2.788,3.102c-1.129,0.791 -2.385,1.361 -3.77,1.711c-1.385,0.35 -2.731,0.525 -4.039,0.525c-1.256,0 -2.557,-0.152 -3.904,-0.457c-1.346,-0.304 -2.583,-0.813 -3.712,-1.528c-1.128,-0.715 -2.07,-1.658 -2.827,-2.829c-0.756,-1.171 -1.173,-2.623 -1.25,-4.357c0,-0.274 0.084,-0.502 0.25,-0.684c0.167,-0.183 0.366,-0.274 0.596,-0.274l5.116,0c0.154,0 0.289,0.015 0.404,0.046c0.116,0.03 0.225,0.076 0.327,0.137c0.18,0.121 0.398,0.334 0.654,0.638c0.41,0.974 1.019,1.635 1.827,1.985c0.808,0.35 1.648,0.525 2.519,0.525c0.385,0 0.827,-0.031 1.327,-0.092c0.501,-0.06 0.962,-0.19 1.385,-0.387c0.423,-0.198 0.789,-0.487 1.096,-0.867c0.308,-0.38 0.462,-0.875 0.462,-1.483c0,-0.821 -0.256,-1.414 -0.769,-1.779c-0.513,-0.365 -1.052,-0.654 -1.616,-0.867c-0.436,-0.183 -0.955,-0.358 -1.558,-0.525c-0.602,-0.167 -1.301,-0.342 -2.096,-0.525c-1.179,-0.273 -2.321,-0.631 -3.423,-1.072c-1.103,-0.441 -2.084,-1.026 -2.943,-1.756c-0.859,-0.73 -1.551,-1.65 -2.077,-2.761c-0.526,-1.11 -0.788,-2.471 -0.788,-4.083c0,-2.007 0.468,-3.734 1.404,-5.178c0.936,-1.445 2.16,-2.548 3.673,-3.308c1.641,-0.791 3.526,-1.186 5.654,-1.186c0.846,0 1.725,0.083 2.635,0.251c0.91,0.167 1.795,0.441 2.654,0.821c0.859,0.38 1.66,0.882 2.404,1.505c0.744,0.624 1.385,1.377 1.923,2.259c0.872,1.338 1.347,2.692 1.423,4.06c0,0.244 -0.083,0.472 -0.25,0.685c-0.166,0.213 -0.352,0.319 -0.557,0.319l-5.385,0c-0.539,0 -0.962,-0.274 -1.27,-0.821c-0.153,-0.639 -0.551,-1.186 -1.192,-1.643c-0.692,-0.425 -1.487,-0.638 -2.385,-0.638c-0.384,0 -0.775,0.03 -1.173,0.091c-0.397,0.061 -0.763,0.198 -1.096,0.411c-0.334,0.212 -0.603,0.494 -0.808,0.844c-0.205,0.349 -0.308,0.798 -0.308,1.346c0,0.851 0.385,1.536 1.154,2.053c0.77,0.486 2.206,0.988 4.308,1.505c1.205,0.274 2.404,0.601 3.597,0.981c1.192,0.38 2.25,0.92 3.173,1.62c0.923,0.699 1.673,1.604 2.25,2.714c0.577,1.111 0.866,2.533 0.866,4.266Z" style="fill:#fff;fill-rule:nonzero;"/><path d="M739.772,300.668c-3.641,0 -6.513,-1.049 -8.616,-3.148c-2.103,-2.099 -3.218,-5.186 -3.347,-9.262c-0.025,-0.852 -0.038,-2.159 -0.038,-3.924c0,-1.764 0.013,-3.087 0.038,-3.969c0.103,-4.015 1.225,-7.11 3.366,-9.284c2.141,-2.175 5.007,-3.263 8.597,-3.263c3.564,0 6.417,1.088 8.558,3.263c2.141,2.174 3.263,5.269 3.366,9.284c0.051,1.764 0.077,3.087 0.077,3.969c0,0.913 -0.026,2.221 -0.077,3.924c-0.128,4.076 -1.237,7.163 -3.327,9.262c-2.09,2.099 -4.956,3.148 -8.597,3.148Zm0,-6.844c1.333,0 2.397,-0.479 3.192,-1.437c0.795,-0.958 1.218,-2.426 1.27,-4.403c0.051,-1.764 0.077,-3.026 0.077,-3.786c0,-0.761 -0.026,-1.993 -0.077,-3.696c-0.052,-1.977 -0.475,-3.445 -1.27,-4.403c-0.795,-0.958 -1.859,-1.437 -3.192,-1.437c-1.359,0 -2.436,0.479 -3.231,1.437c-0.795,0.958 -1.218,2.426 -1.27,4.403c-0.025,0.852 -0.038,2.083 -0.038,3.696c0,1.642 0.013,2.904 0.038,3.786c0.052,1.977 0.475,3.445 1.27,4.403c0.795,0.958 1.872,1.437 3.231,1.437Z" style="fill:#fff;fill-rule:nonzero;"/><path d="M756.042,298.934l0,-26.69c0,-0.578 0.096,-1.11 0.289,-1.597c0.192,-0.487 0.442,-0.905 0.75,-1.255c0.308,-0.349 0.667,-0.623 1.077,-0.821c0.41,-0.198 0.82,-0.296 1.231,-0.296l15.424,0c0.256,0 0.487,0.121 0.692,0.365c0.205,0.243 0.308,0.517 0.308,0.821l0,4.836c0,0.335 -0.103,0.593 -0.308,0.776c-0.179,0.213 -0.41,0.319 -0.692,0.319l-13.847,0c0.564,0 1.057,0.243 1.481,0.73c0.423,0.487 0.634,1.065 0.634,1.734l0,3.878l9.232,0c0.666,0 1,0.395 1,1.186l0,4.791c0,0.365 -0.09,0.646 -0.269,0.844c-0.18,0.197 -0.424,0.296 -0.731,0.296l-11.347,0c0.513,0 0.993,0.228 1.442,0.685c0.449,0.456 0.673,1.034 0.673,1.733l0,7.665c0,0.335 -0.089,0.609 -0.269,0.821c-0.154,0.213 -0.385,0.32 -0.692,0.32l-5.116,0c-0.282,0 -0.513,-0.107 -0.692,-0.32c-0.18,-0.212 -0.27,-0.486 -0.27,-0.821Z" style="fill:#fff;fill-rule:nonzero;"/><path d="M799.892,268.275c0.666,0 1,0.395 1,1.186l0,5.064c0,0.365 -0.09,0.639 -0.269,0.821c-0.18,0.213 -0.424,0.32 -0.731,0.32l-8.886,0c0.565,0 1.065,0.243 1.501,0.73c0.435,0.486 0.653,1.034 0.653,1.642l0,20.896c0,0.365 -0.089,0.647 -0.269,0.844c-0.179,0.198 -0.423,0.297 -0.731,0.297l-5.308,0c-0.256,0 -0.487,-0.107 -0.692,-0.32c-0.205,-0.212 -0.308,-0.486 -0.308,-0.821l0,-21.854c0,-0.426 -0.122,-0.768 -0.365,-1.026c-0.244,-0.259 -0.507,-0.388 -0.789,-0.388l-5.577,0c-0.308,0 -0.551,-0.107 -0.731,-0.32c-0.179,-0.182 -0.269,-0.456 -0.269,-0.821l0,-2.327c0,-1.186 0.346,-2.136 1.038,-2.851c0.693,-0.715 1.462,-1.072 2.308,-1.072l18.425,0Z" style="fill:#fff;fill-rule:nonzero;"/><path d="M832.202,268.548c0.154,0.213 0.231,0.441 0.231,0.685l0,0.273l-4.116,29.063c-0.026,0.396 -0.192,0.745 -0.5,1.05c-0.257,0.304 -0.603,0.456 -1.039,0.456l-3.846,0c-0.333,0 -0.628,-0.099 -0.885,-0.297c-0.256,-0.197 -0.436,-0.494 -0.538,-0.889l-3.616,-11.954c-0.026,-0.091 -0.09,-0.137 -0.192,-0.137c-0.077,0 -0.141,0.046 -0.193,0.137l-3.577,11.954c-0.282,0.79 -0.769,1.186 -1.461,1.186l-3.847,0c-0.436,0 -0.782,-0.152 -1.038,-0.456c-0.257,-0.274 -0.411,-0.624 -0.462,-1.05l-4.116,-29.063c-0.025,-0.243 -0.019,-0.433 0.02,-0.57c0.038,-0.137 0.096,-0.266 0.173,-0.388c0.205,-0.182 0.397,-0.273 0.577,-0.273l5,0c0.744,0 1.154,0.349 1.231,1.049l2.192,16.151c0.052,0.152 0.129,0.228 0.231,0.228c0.103,0 0.167,-0.061 0.192,-0.182l2.385,-8.988c0.205,-0.822 0.616,-1.232 1.231,-1.232l2.885,0c0.667,0 1.09,0.41 1.269,1.232l2.385,8.942c0.026,0.122 0.09,0.183 0.192,0.183c0.129,0 0.193,-0.061 0.193,-0.183l2.231,-16.151c0.077,-0.365 0.192,-0.639 0.346,-0.821c0.205,-0.152 0.487,-0.228 0.846,-0.228l5.039,0c0.231,0 0.423,0.091 0.577,0.273Z" style="fill:#fff;fill-rule:nonzero;"/><path d="M833.548,299.938c-0.154,-0.243 -0.231,-0.471 -0.231,-0.684c0,-0.213 0.013,-0.35 0.039,-0.411l8.923,-29.108c0.283,-0.882 0.795,-1.324 1.539,-1.324l5.962,0c0.744,0 1.257,0.442 1.539,1.324l8.923,29.108c0.026,0.061 0.039,0.198 0.039,0.411c0,0.243 -0.083,0.463 -0.25,0.661c-0.167,0.198 -0.353,0.297 -0.558,0.297l-4.962,0c-0.641,0 -1.077,-0.335 -1.308,-1.004l-2,-6.433c-0.923,0.426 -1.859,0.776 -2.808,1.049c-0.948,0.274 -1.865,0.479 -2.75,0.616c-0.885,0.137 -1.712,0.228 -2.481,0.274c-0.769,0.046 -1.436,0.068 -2,0.068l-0.923,0c-0.257,0 -0.449,-0.015 -0.577,-0.045c0.487,0.061 0.878,0.357 1.173,0.889c0.295,0.533 0.327,1.149 0.096,1.848l-0.538,1.734c-0.231,0.669 -0.667,1.004 -1.308,1.004l-4.962,0c-0.179,0 -0.372,-0.092 -0.577,-0.274Zm9.77,-11.68c0.718,-0.061 1.462,-0.167 2.231,-0.319c0.667,-0.122 1.365,-0.297 2.096,-0.525c0.731,-0.228 1.43,-0.555 2.097,-0.981l-2.962,-10.037l-3.462,11.862Z" style="fill:#fff;fill-rule:nonzero;"/><path d="M885.975,299.847c-0.154,0.182 -0.346,0.273 -0.577,0.273l-5.385,0c-0.744,0 -1.269,-0.41 -1.577,-1.231l-3.885,-9.125c-0.231,-0.487 -0.577,-0.73 -1.038,-0.73l-5.078,0c0.667,0 1.186,0.273 1.558,0.821c0.372,0.547 0.558,1.08 0.558,1.597l0,7.528c0,0.365 -0.09,0.646 -0.269,0.844c-0.18,0.198 -0.424,0.296 -0.731,0.296l-5.231,0c-0.282,0 -0.513,-0.106 -0.693,-0.319c-0.179,-0.213 -0.269,-0.487 -0.269,-0.821l0,-26.69c0,-1.126 0.333,-2.069 1,-2.829c0.667,-0.761 1.449,-1.141 2.346,-1.141l8.155,0c1.436,0 2.801,0.19 4.096,0.571c1.295,0.38 2.43,0.98 3.404,1.802c0.975,0.821 1.757,1.893 2.347,3.216c0.59,1.323 0.884,2.928 0.884,4.814c0,1.885 -0.327,3.543 -0.98,4.973c-0.654,1.429 -1.686,2.6 -3.097,3.513c-0.205,0.182 -0.308,0.38 -0.308,0.593c0,0.213 0.026,0.38 0.077,0.502l4.808,10.356c0.077,0.183 0.116,0.35 0.116,0.502c0,0.213 -0.077,0.441 -0.231,0.685Zm-7.808,-21.17c0,-1.247 -0.302,-2.198 -0.904,-2.852c-0.603,-0.653 -1.417,-0.98 -2.443,-0.98l-6.615,0c0.615,0 1.115,0.266 1.5,0.798c0.384,0.532 0.577,1.087 0.577,1.665l0,3.65c0,0.396 0.115,0.73 0.346,1.004c0.231,0.274 0.513,0.411 0.846,0.411l3.346,0c1.026,0 1.84,-0.305 2.443,-0.913c0.602,-0.608 0.904,-1.536 0.904,-2.783Z" style="fill:#fff;fill-rule:nonzero;"/><path d="M889.937,298.98l0,-26.69c0,-1.156 0.333,-2.107 1,-2.852c0.667,-0.745 1.449,-1.118 2.346,-1.118l15.694,0c0.256,0 0.487,0.122 0.692,0.365c0.205,0.244 0.308,0.517 0.308,0.821l0,4.517c0,0.335 -0.103,0.593 -0.308,0.776c-0.179,0.213 -0.41,0.319 -0.692,0.319l-14.232,0c0.615,0 1.122,0.259 1.519,0.776c0.398,0.517 0.596,1.08 0.596,1.688l0,1.916c0,0.335 0.103,0.654 0.308,0.958c0.205,0.305 0.5,0.457 0.885,0.457l8.347,0c0.666,0 1,0.395 1,1.186l0,4.106c0,0.791 -0.334,1.186 -1,1.186l-11.655,0c0.59,0 1.09,0.244 1.5,0.73c0.41,0.487 0.615,1.034 0.615,1.643l0,2.144c0,0.335 0.109,0.654 0.327,0.958c0.218,0.304 0.507,0.456 0.866,0.456l11.232,0c0.282,0 0.519,0.114 0.711,0.343c0.192,0.228 0.289,0.509 0.289,0.844l0,4.471c0,0.334 -0.103,0.608 -0.308,0.821c-0.205,0.213 -0.436,0.319 -0.692,0.319l-18.386,0c-0.283,0 -0.513,-0.106 -0.693,-0.319c-0.179,-0.213 -0.269,-0.487 -0.269,-0.821Z" style="fill:#fff;fill-rule:nonzero;"/></g></g></svg>