<?xml version="1.0" encoding="UTF-8" standalone="no"?><!DOCTYPE svg PUBLIC "-//W3C//DTD SVG 1.1//EN" "http://www.w3.org/Graphics/SVG/1.1/DTD/svg11.dtd"><svg width="100%" height="100%" viewBox="0 0 1806 1116" version="1.1" xmlns="http://www.w3.org/2000/svg" xmlns:xlink="http://www.w3.org/1999/xlink" xml:space="preserve" xmlns:serif="http://www.serif.com/" style="fill-rule:evenodd;clip-rule:evenodd;stroke-linejoin:round;stroke-miterlimit:2;"><g><path d="M975.784,768.428c-63.328,69.812 -14.053,176.475 0,212.895c59.487,154.161 185.499,139.667 217.729,125.631c472.704,-205.871 72.078,-658.004 -217.729,-338.526Z" style="fill:#ff8879;"/><path d="M517.939,694.991c-28.954,20.253 -190.756,169.855 -64.1,331.598c58.414,74.596 259.728,120.266 334.101,56.373c76.79,-65.969 80.647,-215.182 27.172,-276.705c-17.662,-20.319 -131.236,-78.997 -161.38,-107.995c-33.65,-32.371 -89.243,-35.833 -135.793,-3.271Z" style="fill:#e47bc2;"/><clipPath id="_clip1"><path d="M517.939,694.991c-28.954,20.253 -190.756,169.855 -64.1,331.598c58.414,74.596 259.728,120.266 334.101,56.373c76.79,-65.969 80.647,-215.182 27.172,-276.705c-17.662,-20.319 -131.236,-78.997 -161.38,-107.995c-33.65,-32.371 -89.243,-35.833 -135.793,-3.271Z"/></clipPath><g clip-path="url(#_clip1)"><path d="M529.114,1115.92c55.526,1.875 104.103,-14.671 149.792,-44.901c17.204,-11.382 37.434,-17.175 51.795,-32.51c22.479,-24.004 35.587,-57.589 51.44,-85.948c42.631,-76.26 108.825,-209.067 188.666,-250.628c74.081,-38.563 233.224,-32.001 316.722,-22.116c30.626,3.625 59.992,8.56 89.632,16.765c3.932,1.088 12.986,-0.724 11.836,3.126c-3.975,13.318 -92.468,32.989 -108.193,36.011c-92.775,17.829 -209.628,21.681 -276.484,97.008c-60.926,68.645 -76.76,186.471 -104.937,271.669c-13.031,39.402 -38.643,73.041 -57.617,109.491c-13.154,25.268 -25.279,59.464 -47.262,78.623c-52.389,45.657 -140.677,69.058 -208.215,78.779" style="fill:#fff;fill-opacity:0.19;"/></g></g></svg>